<ttFont>
    <TTGlyph name="A" xMin="-6" yMin="0" xMax="648" yMax="695">
      <contour>
        <pt x="390" y="695" on="1"/>
        <pt x="589" y="118" on="1"/>
        <pt x="631" y="103" on="0"/>
        <pt x="648" y="83" on="1"/>
        <pt x="638" y="0" on="1"/>
        <pt x="404" y="0" on="1"/>
        <pt x="394" y="83" on="1"/>
        <pt x="406" y="99" on="0"/>
        <pt x="442" y="113" on="1"/>
        <pt x="415" y="197" on="1"/>
        <pt x="215" y="197" on="1"/>
        <pt x="190" y="116" on="1"/>
        <pt x="225" y="102" on="0"/>
        <pt x="242" y="83" on="1"/>
        <pt x="232" y="0" on="1"/>
        <pt x="4" y="0" on="1"/>
        <pt x="-6" y="83" on="1"/>
        <pt x="12" y="106" on="0"/>
        <pt x="61" y="121" on="1"/>
        <pt x="253" y="695" on="1"/>
      </contour>
      <contour>
        <pt x="307" y="555" on="1"/>
        <pt x="307" y="494" on="0"/>
        <pt x="282" y="413" on="1"/>
        <pt x="243" y="289" on="1"/>
        <pt x="386" y="289" on="1"/>
        <pt x="348" y="411" on="1"/>
        <pt x="325" y="481" on="0"/>
        <pt x="322" y="538" on="1"/>
        <pt x="321" y="555" on="1"/>
      </contour>
    </TTGlyph>
    <TTGlyph name="AE" xMin="-18" yMin="0" xMax="873" yMax="690">
      <contour>
        <pt x="865" y="690" on="1"/>
        <pt x="865" y="516" on="1"/>
        <pt x="791" y="507" on="1"/>
        <pt x="768" y="527" on="0"/>
        <pt x="754" y="581" on="1"/>
        <pt x="598" y="581" on="1"/>
        <pt x="598" y="405" on="1"/>
        <pt x="737" y="405" on="1"/>
        <pt x="746" y="433" on="0"/>
        <pt x="762" y="447" on="1"/>
        <pt x="825" y="440" on="1"/>
        <pt x="825" y="264" on="1"/>
        <pt x="762" y="256" on="1"/>
        <pt x="747" y="268" on="0"/>
        <pt x="737" y="298" on="1"/>
        <pt x="598" y="298" on="1"/>
        <pt x="598" y="109" on="1"/>
        <pt x="762" y="109" on="1"/>
        <pt x="775" y="161" on="0"/>
        <pt x="799" y="183" on="1"/>
        <pt x="873" y="174" on="1"/>
        <pt x="873" y="0" on="1"/>
        <pt x="409" y="0" on="1"/>
        <pt x="399" y="83" on="1"/>
        <pt x="412" y="100" on="0"/>
        <pt x="454" y="116" on="1"/>
        <pt x="454" y="220" on="1"/>
        <pt x="248" y="220" on="1"/>
        <pt x="185" y="112" on="1"/>
        <pt x="217" y="98" on="0"/>
        <pt x="230" y="83" on="1"/>
        <pt x="220" y="0" on="1"/>
        <pt x="-8" y="0" on="1"/>
        <pt x="-18" y="83" on="1"/>
        <pt x="-2" y="103" on="0"/>
        <pt x="43" y="119" on="1"/>
        <pt x="398" y="690" on="1"/>
      </contour>
      <contour>
        <pt x="454" y="319" on="1"/>
        <pt x="454" y="584" on="1"/>
        <pt x="445" y="584" on="1"/>
        <pt x="427" y="525" on="0"/>
        <pt x="384" y="452" on="1"/>
        <pt x="306" y="319" on="1"/>
      </contour>
    </TTGlyph>
    <TTGlyph name="Aacute" xMin="-6" yMin="0" xMax="648" yMax="972">
      <contour>
        <pt x="263" y="787" on="1"/>
        <pt x="269" y="831" on="0"/>
        <pt x="318" y="943" on="0"/>
        <pt x="347" y="972" on="1"/>
        <pt x="451" y="908" on="1"/>
        <pt x="437" y="869" on="0"/>
        <pt x="359" y="782" on="0"/>
        <pt x="317" y="756" on="1"/>
        <pt x="263" y="785" on="0"/>
      </contour>
      <contour>
        <pt x="390" y="695" on="1"/>
        <pt x="589" y="118" on="1"/>
        <pt x="631" y="103" on="0"/>
        <pt x="648" y="83" on="1"/>
        <pt x="638" y="0" on="1"/>
        <pt x="404" y="0" on="1"/>
        <pt x="394" y="83" on="1"/>
        <pt x="406" y="99" on="0"/>
        <pt x="442" y="113" on="1"/>
        <pt x="415" y="197" on="1"/>
        <pt x="215" y="197" on="1"/>
        <pt x="190" y="116" on="1"/>
        <pt x="225" y="102" on="0"/>
        <pt x="242" y="83" on="1"/>
        <pt x="232" y="0" on="1"/>
        <pt x="4" y="0" on="1"/>
        <pt x="-6" y="83" on="1"/>
        <pt x="12" y="106" on="0"/>
        <pt x="61" y="121" on="1"/>
        <pt x="253" y="695" on="1"/>
      </contour>
      <contour>
        <pt x="307" y="555" on="1"/>
        <pt x="307" y="494" on="0"/>
        <pt x="282" y="413" on="1"/>
        <pt x="243" y="289" on="1"/>
        <pt x="386" y="289" on="1"/>
        <pt x="348" y="411" on="1"/>
        <pt x="325" y="481" on="0"/>
        <pt x="322" y="538" on="1"/>
        <pt x="321" y="555" on="1"/>
      </contour>
    </TTGlyph>
    <TTGlyph name="Acircumflex" xMin="-6" yMin="0" xMax="648" yMax="971">
      <contour>
        <pt x="486" y="797" on="1"/>
        <pt x="450" y="756" on="1"/>
        <pt x="404" y="769" on="0"/>
        <pt x="326" y="836" on="1"/>
        <pt x="248" y="769" on="0"/>
        <pt x="202" y="756" on="1"/>
        <pt x="166" y="797" on="1"/>
        <pt x="179" y="832" on="0"/>
        <pt x="281" y="941" on="0"/>
        <pt x="326" y="971" on="1"/>
        <pt x="371" y="941" on="0"/>
        <pt x="473" y="832" on="0"/>
      </contour>
      <contour>
        <pt x="390" y="695" on="1"/>
        <pt x="589" y="118" on="1"/>
        <pt x="631" y="103" on="0"/>
        <pt x="648" y="83" on="1"/>
        <pt x="638" y="0" on="1"/>
        <pt x="404" y="0" on="1"/>
        <pt x="394" y="83" on="1"/>
        <pt x="406" y="99" on="0"/>
        <pt x="442" y="113" on="1"/>
        <pt x="415" y="197" on="1"/>
        <pt x="215" y="197" on="1"/>
        <pt x="190" y="116" on="1"/>
        <pt x="225" y="102" on="0"/>
        <pt x="242" y="83" on="1"/>
        <pt x="232" y="0" on="1"/>
        <pt x="4" y="0" on="1"/>
        <pt x="-6" y="83" on="1"/>
        <pt x="12" y="106" on="0"/>
        <pt x="61" y="121" on="1"/>
        <pt x="253" y="695" on="1"/>
      </contour>
      <contour>
        <pt x="307" y="555" on="1"/>
        <pt x="307" y="494" on="0"/>
        <pt x="282" y="413" on="1"/>
        <pt x="243" y="289" on="1"/>
        <pt x="386" y="289" on="1"/>
        <pt x="348" y="411" on="1"/>
        <pt x="325" y="481" on="0"/>
        <pt x="322" y="538" on="1"/>
        <pt x="321" y="555" on="1"/>
      </contour>
    </TTGlyph>
    <TTGlyph name="Adieresis" xMin="-6" yMin="0" xMax="648" yMax="894">
      <contour>
        <pt x="126" y="818" on="1"/>
        <pt x="126" y="894" on="0"/>
        <pt x="289" y="894" on="0"/>
        <pt x="289" y="743" on="0"/>
        <pt x="207" y="743" on="1"/>
        <pt x="167" y="743" on="0"/>
        <pt x="126" y="777" on="0"/>
      </contour>
      <contour>
        <pt x="366" y="818" on="1"/>
        <pt x="366" y="894" on="0"/>
        <pt x="529" y="894" on="0"/>
        <pt x="529" y="743" on="0"/>
        <pt x="447" y="743" on="1"/>
        <pt x="407" y="743" on="0"/>
        <pt x="366" y="777" on="0"/>
      </contour>
      <contour>
        <pt x="390" y="695" on="1"/>
        <pt x="589" y="118" on="1"/>
        <pt x="631" y="103" on="0"/>
        <pt x="648" y="83" on="1"/>
        <pt x="638" y="0" on="1"/>
        <pt x="404" y="0" on="1"/>
        <pt x="394" y="83" on="1"/>
        <pt x="406" y="99" on="0"/>
        <pt x="442" y="113" on="1"/>
        <pt x="415" y="197" on="1"/>
        <pt x="215" y="197" on="1"/>
        <pt x="190" y="116" on="1"/>
        <pt x="225" y="102" on="0"/>
        <pt x="242" y="83" on="1"/>
        <pt x="232" y="0" on="1"/>
        <pt x="4" y="0" on="1"/>
        <pt x="-6" y="83" on="1"/>
        <pt x="12" y="106" on="0"/>
        <pt x="61" y="121" on="1"/>
        <pt x="253" y="695" on="1"/>
      </contour>
      <contour>
        <pt x="307" y="555" on="1"/>
        <pt x="307" y="494" on="0"/>
        <pt x="282" y="413" on="1"/>
        <pt x="243" y="289" on="1"/>
        <pt x="386" y="289" on="1"/>
        <pt x="348" y="411" on="1"/>
        <pt x="325" y="481" on="0"/>
        <pt x="322" y="538" on="1"/>
        <pt x="321" y="555" on="1"/>
      </contour>
    </TTGlyph>
    <TTGlyph name="Agrave" xMin="-6" yMin="0" xMax="648" yMax="972">
      <contour>
        <pt x="379" y="787" on="1"/>
        <pt x="325" y="756" on="1"/>
        <pt x="283" y="782" on="0"/>
        <pt x="205" y="869" on="0"/>
        <pt x="191" y="908" on="1"/>
        <pt x="295" y="972" on="1"/>
        <pt x="324" y="943" on="0"/>
        <pt x="373" y="831" on="0"/>
      </contour>
      <contour>
        <pt x="390" y="695" on="1"/>
        <pt x="589" y="118" on="1"/>
        <pt x="631" y="103" on="0"/>
        <pt x="648" y="83" on="1"/>
        <pt x="638" y="0" on="1"/>
        <pt x="404" y="0" on="1"/>
        <pt x="394" y="83" on="1"/>
        <pt x="406" y="99" on="0"/>
        <pt x="442" y="113" on="1"/>
        <pt x="415" y="197" on="1"/>
        <pt x="215" y="197" on="1"/>
        <pt x="190" y="116" on="1"/>
        <pt x="225" y="102" on="0"/>
        <pt x="242" y="83" on="1"/>
        <pt x="232" y="0" on="1"/>
        <pt x="4" y="0" on="1"/>
        <pt x="-6" y="83" on="1"/>
        <pt x="12" y="106" on="0"/>
        <pt x="61" y="121" on="1"/>
        <pt x="253" y="695" on="1"/>
      </contour>
      <contour>
        <pt x="307" y="555" on="1"/>
        <pt x="307" y="494" on="0"/>
        <pt x="282" y="413" on="1"/>
        <pt x="243" y="289" on="1"/>
        <pt x="386" y="289" on="1"/>
        <pt x="348" y="411" on="1"/>
        <pt x="325" y="481" on="0"/>
        <pt x="322" y="538" on="1"/>
        <pt x="321" y="555" on="1"/>
      </contour>
    </TTGlyph>
    <TTGlyph name="Aring" xMin="-6" yMin="0" xMax="648" yMax="951">
      <contour>
        <pt x="262" y="736" on="0"/>
        <pt x="199" y="784" on="0"/>
        <pt x="199" y="902" on="0"/>
        <pt x="263" y="951" on="0"/>
        <pt x="321" y="951" on="1"/>
        <pt x="446" y="951" on="0"/>
        <pt x="446" y="842" on="1"/>
        <pt x="446" y="736" on="0"/>
        <pt x="321" y="736" on="1"/>
      </contour>
      <contour>
        <pt x="264" y="843" on="1"/>
        <pt x="264" y="792" on="0"/>
        <pt x="381" y="792" on="0"/>
        <pt x="381" y="843" on="1"/>
        <pt x="381" y="896" on="0"/>
        <pt x="264" y="896" on="0"/>
      </contour>
      <contour>
        <pt x="390" y="695" on="1"/>
        <pt x="589" y="118" on="1"/>
        <pt x="631" y="103" on="0"/>
        <pt x="648" y="83" on="1"/>
        <pt x="638" y="0" on="1"/>
        <pt x="404" y="0" on="1"/>
        <pt x="394" y="83" on="1"/>
        <pt x="406" y="99" on="0"/>
        <pt x="442" y="113" on="1"/>
        <pt x="415" y="197" on="1"/>
        <pt x="215" y="197" on="1"/>
        <pt x="190" y="116" on="1"/>
        <pt x="225" y="102" on="0"/>
        <pt x="242" y="83" on="1"/>
        <pt x="232" y="0" on="1"/>
        <pt x="4" y="0" on="1"/>
        <pt x="-6" y="83" on="1"/>
        <pt x="12" y="106" on="0"/>
        <pt x="61" y="121" on="1"/>
        <pt x="253" y="695" on="1"/>
      </contour>
      <contour>
        <pt x="307" y="555" on="1"/>
        <pt x="307" y="494" on="0"/>
        <pt x="282" y="413" on="1"/>
        <pt x="243" y="289" on="1"/>
        <pt x="386" y="289" on="1"/>
        <pt x="348" y="411" on="1"/>
        <pt x="325" y="481" on="0"/>
        <pt x="322" y="538" on="1"/>
        <pt x="321" y="555" on="1"/>
      </contour>
    </TTGlyph>
    <TTGlyph name="Atilde" xMin="-6" yMin="0" xMax="648" yMax="901">
      <contour>
        <pt x="139" y="865" on="0"/>
        <pt x="202" y="901" on="0"/>
        <pt x="268" y="901" on="0"/>
        <pt x="360" y="873" on="0"/>
        <pt x="390" y="873" on="1"/>
        <pt x="446" y="873" on="0"/>
        <pt x="482" y="894" on="1"/>
        <pt x="494" y="901" on="1"/>
        <pt x="534" y="838" on="1"/>
        <pt x="530" y="832" on="0"/>
        <pt x="495" y="802" on="0"/>
        <pt x="480" y="793" on="1"/>
        <pt x="438" y="769" on="0"/>
        <pt x="364" y="769" on="0"/>
        <pt x="269" y="797" on="0"/>
        <pt x="244" y="797" on="1"/>
        <pt x="197" y="797" on="0"/>
        <pt x="164" y="777" on="1"/>
        <pt x="153" y="770" on="1"/>
        <pt x="115" y="836" on="1"/>
        <pt x="120" y="843" on="0"/>
      </contour>
      <contour>
        <pt x="390" y="695" on="1"/>
        <pt x="589" y="118" on="1"/>
        <pt x="631" y="103" on="0"/>
        <pt x="648" y="83" on="1"/>
        <pt x="638" y="0" on="1"/>
        <pt x="404" y="0" on="1"/>
        <pt x="394" y="83" on="1"/>
        <pt x="406" y="99" on="0"/>
        <pt x="442" y="113" on="1"/>
        <pt x="415" y="197" on="1"/>
        <pt x="215" y="197" on="1"/>
        <pt x="190" y="116" on="1"/>
        <pt x="225" y="102" on="0"/>
        <pt x="242" y="83" on="1"/>
        <pt x="232" y="0" on="1"/>
        <pt x="4" y="0" on="1"/>
        <pt x="-6" y="83" on="1"/>
        <pt x="12" y="106" on="0"/>
        <pt x="61" y="121" on="1"/>
        <pt x="253" y="695" on="1"/>
      </contour>
      <contour>
        <pt x="307" y="555" on="1"/>
        <pt x="307" y="494" on="0"/>
        <pt x="282" y="413" on="1"/>
        <pt x="243" y="289" on="1"/>
        <pt x="386" y="289" on="1"/>
        <pt x="348" y="411" on="1"/>
        <pt x="325" y="481" on="0"/>
        <pt x="322" y="538" on="1"/>
        <pt x="321" y="555" on="1"/>
      </contour>
    </TTGlyph>
    <TTGlyph name="B" xMin="32" yMin="0" xMax="588" yMax="690">
      <contour>
        <pt x="269" y="690" on="1"/>
        <pt x="387" y="690" on="0"/>
        <pt x="494" y="661" on="0"/>
        <pt x="517" y="641" on="1"/>
        <pt x="568" y="597" on="0"/>
        <pt x="568" y="506" on="1"/>
        <pt x="568" y="438" on="0"/>
        <pt x="495" y="377" on="1"/>
        <pt x="588" y="330" on="0"/>
        <pt x="588" y="202" on="1"/>
        <pt x="588" y="102" on="0"/>
        <pt x="457" y="5" on="0"/>
        <pt x="327" y="0" on="1"/>
        <pt x="42" y="0" on="1"/>
        <pt x="32" y="83" on="1"/>
        <pt x="45" y="100" on="0"/>
        <pt x="87" y="116" on="1"/>
        <pt x="87" y="573" on="1"/>
        <pt x="46" y="588" on="0"/>
        <pt x="32" y="607" on="1"/>
        <pt x="42" y="690" on="1"/>
      </contour>
      <contour>
        <pt x="320" y="299" on="1"/>
        <pt x="231" y="299" on="1"/>
        <pt x="231" y="109" on="1"/>
        <pt x="300" y="109" on="1"/>
        <pt x="368" y="109" on="0"/>
        <pt x="438" y="149" on="0"/>
        <pt x="438" y="253" on="0"/>
        <pt x="383" y="299" on="0"/>
      </contour>
      <contour>
        <pt x="283" y="581" on="1"/>
        <pt x="231" y="581" on="1"/>
        <pt x="231" y="408" on="1"/>
        <pt x="313" y="408" on="1"/>
        <pt x="364" y="408" on="0"/>
        <pt x="418" y="460" on="0"/>
        <pt x="418" y="535" on="0"/>
        <pt x="380" y="573" on="0"/>
        <pt x="330" y="581" on="0"/>
      </contour>
    </TTGlyph>
    <TTGlyph name="C" xMin="30" yMin="-8" xMax="549" yMax="698">
      <contour>
        <pt x="404" y="572" on="1"/>
        <pt x="374" y="585" on="0"/>
        <pt x="254" y="585" on="0"/>
        <pt x="180" y="481" on="0"/>
        <pt x="180" y="221" on="0"/>
        <pt x="251" y="112" on="0"/>
        <pt x="321" y="112" on="1"/>
        <pt x="428" y="112" on="0"/>
        <pt x="513" y="144" on="1"/>
        <pt x="549" y="55" on="1"/>
        <pt x="443" y="-8" on="0"/>
        <pt x="157" y="-8" on="0"/>
        <pt x="30" y="154" on="0"/>
        <pt x="30" y="522" on="0"/>
        <pt x="187" y="698" on="0"/>
        <pt x="329" y="698" on="1"/>
        <pt x="443" y="698" on="0"/>
        <pt x="546" y="635" on="1"/>
        <pt x="546" y="629" on="0"/>
        <pt x="546" y="595" on="0"/>
        <pt x="532" y="513" on="0"/>
        <pt x="519" y="487" on="1"/>
        <pt x="424" y="487" on="1"/>
        <pt x="410" y="514" on="0"/>
      </contour>
    </TTGlyph>
    <TTGlyph name="Ccedilla" xMin="30" yMin="-217" xMax="549" yMax="698">
      <contour>
        <pt x="261" y="-72" on="1"/>
        <pt x="260" y="-64" on="0"/>
        <pt x="260" y="-32" on="0"/>
        <pt x="269" y="-7" on="1"/>
        <pt x="144" y="0" on="0"/>
        <pt x="30" y="163" on="0"/>
        <pt x="30" y="522" on="0"/>
        <pt x="187" y="698" on="0"/>
        <pt x="329" y="698" on="1"/>
        <pt x="443" y="698" on="0"/>
        <pt x="546" y="635" on="1"/>
        <pt x="546" y="629" on="0"/>
        <pt x="546" y="595" on="0"/>
        <pt x="532" y="513" on="0"/>
        <pt x="519" y="487" on="1"/>
        <pt x="424" y="487" on="1"/>
        <pt x="410" y="514" on="0"/>
        <pt x="404" y="572" on="1"/>
        <pt x="374" y="585" on="0"/>
        <pt x="254" y="585" on="0"/>
        <pt x="180" y="481" on="0"/>
        <pt x="180" y="221" on="0"/>
        <pt x="251" y="112" on="0"/>
        <pt x="321" y="112" on="1"/>
        <pt x="428" y="112" on="0"/>
        <pt x="513" y="144" on="1"/>
        <pt x="549" y="55" on="1"/>
        <pt x="462" y="3" on="0"/>
        <pt x="350" y="-5" on="1"/>
        <pt x="344" y="-20" on="0"/>
        <pt x="344" y="-35" on="1"/>
        <pt x="409" y="-42" on="0"/>
        <pt x="409" y="-111" on="1"/>
        <pt x="409" y="-206" on="0"/>
        <pt x="260" y="-217" on="1"/>
        <pt x="244" y="-163" on="1"/>
        <pt x="277" y="-151" on="0"/>
        <pt x="303" y="-131" on="0"/>
        <pt x="303" y="-93" on="0"/>
        <pt x="279" y="-73" on="0"/>
      </contour>
    </TTGlyph>
    <TTGlyph name="D" xMin="32" yMin="0" xMax="615" yMax="690">
      <contour>
        <pt x="297" y="0" on="1"/>
        <pt x="42" y="0" on="1"/>
        <pt x="32" y="83" on="1"/>
        <pt x="45" y="100" on="0"/>
        <pt x="87" y="116" on="1"/>
        <pt x="87" y="573" on="1"/>
        <pt x="46" y="588" on="0"/>
        <pt x="32" y="607" on="1"/>
        <pt x="42" y="690" on="1"/>
        <pt x="265" y="690" on="1"/>
        <pt x="426" y="690" on="0"/>
        <pt x="615" y="510" on="0"/>
        <pt x="615" y="161" on="0"/>
        <pt x="444" y="0" on="0"/>
      </contour>
      <contour>
        <pt x="231" y="109" on="1"/>
        <pt x="303" y="109" on="1"/>
        <pt x="378" y="109" on="0"/>
        <pt x="465" y="200" on="0"/>
        <pt x="465" y="331" on="1"/>
        <pt x="465" y="581" on="0"/>
        <pt x="276" y="581" on="1"/>
        <pt x="231" y="581" on="1"/>
      </contour>
    </TTGlyph>
    <TTGlyph name="E" xMin="32" yMin="0" xMax="506" yMax="690">
      <contour>
        <pt x="506" y="0" on="1"/>
        <pt x="42" y="0" on="1"/>
        <pt x="32" y="83" on="1"/>
        <pt x="45" y="100" on="0"/>
        <pt x="87" y="116" on="1"/>
        <pt x="87" y="573" on="1"/>
        <pt x="46" y="588" on="0"/>
        <pt x="32" y="607" on="1"/>
        <pt x="42" y="690" on="1"/>
        <pt x="498" y="690" on="1"/>
        <pt x="498" y="516" on="1"/>
        <pt x="424" y="507" on="1"/>
        <pt x="401" y="527" on="0"/>
        <pt x="387" y="581" on="1"/>
        <pt x="231" y="581" on="1"/>
        <pt x="231" y="409" on="1"/>
        <pt x="370" y="409" on="1"/>
        <pt x="382" y="439" on="0"/>
        <pt x="395" y="451" on="1"/>
        <pt x="458" y="444" on="1"/>
        <pt x="458" y="266" on="1"/>
        <pt x="395" y="258" on="1"/>
        <pt x="382" y="268" on="0"/>
        <pt x="370" y="300" on="1"/>
        <pt x="231" y="300" on="1"/>
        <pt x="231" y="109" on="1"/>
        <pt x="395" y="109" on="1"/>
        <pt x="408" y="161" on="0"/>
        <pt x="432" y="183" on="1"/>
        <pt x="506" y="174" on="1"/>
      </contour>
    </TTGlyph>
    <TTGlyph name="Eacute" xMin="32" yMin="0" xMax="506" yMax="972">
      <contour>
        <pt x="266" y="756" on="1"/>
        <pt x="212" y="787" on="1"/>
        <pt x="218" y="831" on="0"/>
        <pt x="267" y="943" on="0"/>
        <pt x="296" y="972" on="1"/>
        <pt x="400" y="908" on="1"/>
        <pt x="386" y="869" on="0"/>
        <pt x="308" y="782" on="0"/>
      </contour>
      <contour>
        <pt x="506" y="0" on="1"/>
        <pt x="42" y="0" on="1"/>
        <pt x="32" y="83" on="1"/>
        <pt x="45" y="100" on="0"/>
        <pt x="87" y="116" on="1"/>
        <pt x="87" y="573" on="1"/>
        <pt x="46" y="588" on="0"/>
        <pt x="32" y="607" on="1"/>
        <pt x="42" y="690" on="1"/>
        <pt x="498" y="690" on="1"/>
        <pt x="498" y="516" on="1"/>
        <pt x="424" y="507" on="1"/>
        <pt x="401" y="527" on="0"/>
        <pt x="387" y="581" on="1"/>
        <pt x="231" y="581" on="1"/>
        <pt x="231" y="409" on="1"/>
        <pt x="370" y="409" on="1"/>
        <pt x="382" y="439" on="0"/>
        <pt x="395" y="451" on="1"/>
        <pt x="458" y="444" on="1"/>
        <pt x="458" y="266" on="1"/>
        <pt x="395" y="258" on="1"/>
        <pt x="382" y="268" on="0"/>
        <pt x="370" y="300" on="1"/>
        <pt x="231" y="300" on="1"/>
        <pt x="231" y="109" on="1"/>
        <pt x="395" y="109" on="1"/>
        <pt x="408" y="161" on="0"/>
        <pt x="432" y="183" on="1"/>
        <pt x="506" y="174" on="1"/>
      </contour>
    </TTGlyph>
    <TTGlyph name="Ecircumflex" xMin="32" yMin="0" xMax="506" yMax="971">
      <contour>
        <pt x="440" y="797" on="1"/>
        <pt x="404" y="756" on="1"/>
        <pt x="358" y="769" on="0"/>
        <pt x="280" y="836" on="1"/>
        <pt x="202" y="769" on="0"/>
        <pt x="156" y="756" on="1"/>
        <pt x="120" y="797" on="1"/>
        <pt x="133" y="832" on="0"/>
        <pt x="235" y="941" on="0"/>
        <pt x="280" y="971" on="1"/>
        <pt x="325" y="941" on="0"/>
        <pt x="427" y="832" on="0"/>
      </contour>
      <contour>
        <pt x="506" y="0" on="1"/>
        <pt x="42" y="0" on="1"/>
        <pt x="32" y="83" on="1"/>
        <pt x="45" y="100" on="0"/>
        <pt x="87" y="116" on="1"/>
        <pt x="87" y="573" on="1"/>
        <pt x="46" y="588" on="0"/>
        <pt x="32" y="607" on="1"/>
        <pt x="42" y="690" on="1"/>
        <pt x="498" y="690" on="1"/>
        <pt x="498" y="516" on="1"/>
        <pt x="424" y="507" on="1"/>
        <pt x="401" y="527" on="0"/>
        <pt x="387" y="581" on="1"/>
        <pt x="231" y="581" on="1"/>
        <pt x="231" y="409" on="1"/>
        <pt x="370" y="409" on="1"/>
        <pt x="382" y="439" on="0"/>
        <pt x="395" y="451" on="1"/>
        <pt x="458" y="444" on="1"/>
        <pt x="458" y="266" on="1"/>
        <pt x="395" y="258" on="1"/>
        <pt x="382" y="268" on="0"/>
        <pt x="370" y="300" on="1"/>
        <pt x="231" y="300" on="1"/>
        <pt x="231" y="109" on="1"/>
        <pt x="395" y="109" on="1"/>
        <pt x="408" y="161" on="0"/>
        <pt x="432" y="183" on="1"/>
        <pt x="506" y="174" on="1"/>
      </contour>
    </TTGlyph>
    <TTGlyph name="Edieresis" xMin="32" yMin="0" xMax="506" yMax="894">
      <contour>
        <pt x="74" y="818" on="1"/>
        <pt x="74" y="894" on="0"/>
        <pt x="237" y="894" on="0"/>
        <pt x="237" y="743" on="0"/>
        <pt x="155" y="743" on="1"/>
        <pt x="115" y="743" on="0"/>
        <pt x="74" y="777" on="0"/>
      </contour>
      <contour>
        <pt x="314" y="818" on="1"/>
        <pt x="314" y="894" on="0"/>
        <pt x="477" y="894" on="0"/>
        <pt x="477" y="743" on="0"/>
        <pt x="395" y="743" on="1"/>
        <pt x="355" y="743" on="0"/>
        <pt x="314" y="777" on="0"/>
      </contour>
      <contour>
        <pt x="506" y="0" on="1"/>
        <pt x="42" y="0" on="1"/>
        <pt x="32" y="83" on="1"/>
        <pt x="45" y="100" on="0"/>
        <pt x="87" y="116" on="1"/>
        <pt x="87" y="573" on="1"/>
        <pt x="46" y="588" on="0"/>
        <pt x="32" y="607" on="1"/>
        <pt x="42" y="690" on="1"/>
        <pt x="498" y="690" on="1"/>
        <pt x="498" y="516" on="1"/>
        <pt x="424" y="507" on="1"/>
        <pt x="401" y="527" on="0"/>
        <pt x="387" y="581" on="1"/>
        <pt x="231" y="581" on="1"/>
        <pt x="231" y="409" on="1"/>
        <pt x="370" y="409" on="1"/>
        <pt x="382" y="439" on="0"/>
        <pt x="395" y="451" on="1"/>
        <pt x="458" y="444" on="1"/>
        <pt x="458" y="266" on="1"/>
        <pt x="395" y="258" on="1"/>
        <pt x="382" y="268" on="0"/>
        <pt x="370" y="300" on="1"/>
        <pt x="231" y="300" on="1"/>
        <pt x="231" y="109" on="1"/>
        <pt x="395" y="109" on="1"/>
        <pt x="408" y="161" on="0"/>
        <pt x="432" y="183" on="1"/>
        <pt x="506" y="174" on="1"/>
      </contour>
    </TTGlyph>
    <TTGlyph name="Egrave" xMin="32" yMin="0" xMax="506" yMax="972">
      <contour>
        <pt x="340" y="787" on="1"/>
        <pt x="286" y="756" on="1"/>
        <pt x="244" y="782" on="0"/>
        <pt x="166" y="869" on="0"/>
        <pt x="152" y="908" on="1"/>
        <pt x="256" y="972" on="1"/>
        <pt x="285" y="943" on="0"/>
        <pt x="334" y="831" on="0"/>
      </contour>
      <contour>
        <pt x="506" y="0" on="1"/>
        <pt x="42" y="0" on="1"/>
        <pt x="32" y="83" on="1"/>
        <pt x="45" y="100" on="0"/>
        <pt x="87" y="116" on="1"/>
        <pt x="87" y="573" on="1"/>
        <pt x="46" y="588" on="0"/>
        <pt x="32" y="607" on="1"/>
        <pt x="42" y="690" on="1"/>
        <pt x="498" y="690" on="1"/>
        <pt x="498" y="516" on="1"/>
        <pt x="424" y="507" on="1"/>
        <pt x="401" y="527" on="0"/>
        <pt x="387" y="581" on="1"/>
        <pt x="231" y="581" on="1"/>
        <pt x="231" y="409" on="1"/>
        <pt x="370" y="409" on="1"/>
        <pt x="382" y="439" on="0"/>
        <pt x="395" y="451" on="1"/>
        <pt x="458" y="444" on="1"/>
        <pt x="458" y="266" on="1"/>
        <pt x="395" y="258" on="1"/>
        <pt x="382" y="268" on="0"/>
        <pt x="370" y="300" on="1"/>
        <pt x="231" y="300" on="1"/>
        <pt x="231" y="109" on="1"/>
        <pt x="395" y="109" on="1"/>
        <pt x="408" y="161" on="0"/>
        <pt x="432" y="183" on="1"/>
        <pt x="506" y="174" on="1"/>
      </contour>
    </TTGlyph>
    <TTGlyph name="Eth" xMin="13" yMin="0" xMax="631" yMax="690">
      <contour>
        <pt x="313" y="0" on="1"/>
        <pt x="58" y="0" on="1"/>
        <pt x="48" y="83" on="1"/>
        <pt x="61" y="100" on="0"/>
        <pt x="103" y="116" on="1"/>
        <pt x="103" y="316" on="1"/>
        <pt x="23" y="316" on="1"/>
        <pt x="13" y="380" on="1"/>
        <pt x="44" y="415" on="0"/>
        <pt x="103" y="415" on="1"/>
        <pt x="103" y="573" on="1"/>
        <pt x="62" y="588" on="0"/>
        <pt x="48" y="607" on="1"/>
        <pt x="58" y="690" on="1"/>
        <pt x="281" y="690" on="1"/>
        <pt x="442" y="690" on="0"/>
        <pt x="631" y="510" on="0"/>
        <pt x="631" y="161" on="0"/>
        <pt x="460" y="0" on="0"/>
      </contour>
      <contour>
        <pt x="247" y="109" on="1"/>
        <pt x="319" y="109" on="1"/>
        <pt x="394" y="109" on="0"/>
        <pt x="481" y="200" on="0"/>
        <pt x="481" y="331" on="1"/>
        <pt x="481" y="581" on="0"/>
        <pt x="292" y="581" on="1"/>
        <pt x="247" y="581" on="1"/>
        <pt x="247" y="415" on="1"/>
        <pt x="397" y="415" on="1"/>
        <pt x="407" y="351" on="1"/>
        <pt x="377" y="316" on="0"/>
        <pt x="317" y="316" on="1"/>
        <pt x="247" y="316" on="1"/>
      </contour>
    </TTGlyph>
    <TTGlyph name="Euro" xMin="26" yMin="-8" xMax="614" yMax="698">
      <contour>
        <pt x="477" y="566" on="1"/>
        <pt x="437" y="585" on="0"/>
        <pt x="349" y="585" on="0"/>
        <pt x="285" y="526" on="0"/>
        <pt x="272" y="455" on="1"/>
        <pt x="475" y="455" on="1"/>
        <pt x="485" y="403" on="1"/>
        <pt x="455" y="368" on="0"/>
        <pt x="395" y="368" on="1"/>
        <pt x="264" y="368" on="1"/>
        <pt x="264" y="321" on="0"/>
        <pt x="265" y="307" on="1"/>
        <pt x="475" y="307" on="1"/>
        <pt x="485" y="255" on="1"/>
        <pt x="455" y="220" on="0"/>
        <pt x="395" y="220" on="1"/>
        <pt x="277" y="220" on="1"/>
        <pt x="291" y="162" on="0"/>
        <pt x="351" y="112" on="0"/>
        <pt x="398" y="112" on="1"/>
        <pt x="499" y="112" on="0"/>
        <pt x="580" y="144" on="1"/>
        <pt x="614" y="55" on="1"/>
        <pt x="514" y="-8" on="0"/>
        <pt x="375" y="-8" on="1"/>
        <pt x="267" y="-8" on="0"/>
        <pt x="148" y="99" on="0"/>
        <pt x="130" y="220" on="1"/>
        <pt x="36" y="220" on="1"/>
        <pt x="26" y="272" on="1"/>
        <pt x="57" y="307" on="0"/>
        <pt x="116" y="307" on="1"/>
        <pt x="122" y="307" on="1"/>
        <pt x="122" y="368" on="1"/>
        <pt x="36" y="368" on="1"/>
        <pt x="26" y="420" on="1"/>
        <pt x="57" y="455" on="0"/>
        <pt x="116" y="455" on="1"/>
        <pt x="131" y="455" on="1"/>
        <pt x="152" y="577" on="0"/>
        <pt x="294" y="698" on="0"/>
        <pt x="512" y="698" on="0"/>
        <pt x="611" y="635" on="1"/>
        <pt x="611" y="628" on="0"/>
        <pt x="611" y="594" on="0"/>
        <pt x="598" y="513" on="0"/>
        <pt x="586" y="487" on="1"/>
        <pt x="496" y="487" on="1"/>
        <pt x="482" y="513" on="0"/>
      </contour>
    </TTGlyph>
    <TTGlyph name="F" xMin="32" yMin="0" xMax="498" yMax="690">
      <contour>
        <pt x="498" y="690" on="1"/>
        <pt x="498" y="516" on="1"/>
        <pt x="424" y="507" on="1"/>
        <pt x="401" y="527" on="0"/>
        <pt x="387" y="581" on="1"/>
        <pt x="231" y="581" on="1"/>
        <pt x="231" y="399" on="1"/>
        <pt x="370" y="399" on="1"/>
        <pt x="382" y="429" on="0"/>
        <pt x="395" y="441" on="1"/>
        <pt x="458" y="434" on="1"/>
        <pt x="458" y="256" on="1"/>
        <pt x="395" y="248" on="1"/>
        <pt x="382" y="258" on="0"/>
        <pt x="370" y="290" on="1"/>
        <pt x="231" y="290" on="1"/>
        <pt x="231" y="124" on="1"/>
        <pt x="298" y="109" on="0"/>
        <pt x="328" y="83" on="1"/>
        <pt x="318" y="0" on="1"/>
        <pt x="42" y="0" on="1"/>
        <pt x="32" y="83" on="1"/>
        <pt x="45" y="100" on="0"/>
        <pt x="87" y="116" on="1"/>
        <pt x="87" y="573" on="1"/>
        <pt x="46" y="588" on="0"/>
        <pt x="32" y="607" on="1"/>
        <pt x="42" y="690" on="1"/>
      </contour>
    </TTGlyph>
    <TTGlyph name="G" xMin="30" yMin="-8" xMax="603" yMax="698">
      <contour>
        <pt x="323" y="585" on="1"/>
        <pt x="255" y="585" on="0"/>
        <pt x="180" y="481" on="0"/>
        <pt x="180" y="352" on="1"/>
        <pt x="180" y="105" on="0"/>
        <pt x="316" y="105" on="1"/>
        <pt x="370" y="105" on="0"/>
        <pt x="412" y="122" on="1"/>
        <pt x="412" y="235" on="1"/>
        <pt x="366" y="250" on="0"/>
        <pt x="349" y="272" on="1"/>
        <pt x="359" y="351" on="1"/>
        <pt x="593" y="351" on="1"/>
        <pt x="603" y="272" on="1"/>
        <pt x="590" y="256" on="0"/>
        <pt x="556" y="241" on="1"/>
        <pt x="556" y="56" on="1"/>
        <pt x="508" y="21" on="0"/>
        <pt x="393" y="-8" on="0"/>
        <pt x="307" y="-8" on="1"/>
        <pt x="164" y="-8" on="0"/>
        <pt x="30" y="155" on="0"/>
        <pt x="30" y="522" on="0"/>
        <pt x="189" y="698" on="0"/>
        <pt x="466" y="698" on="0"/>
        <pt x="554" y="635" on="1"/>
        <pt x="554" y="629" on="0"/>
        <pt x="554" y="595" on="0"/>
        <pt x="540" y="513" on="0"/>
        <pt x="527" y="487" on="1"/>
        <pt x="435" y="487" on="1"/>
        <pt x="420" y="515" on="0"/>
        <pt x="415" y="570" on="1"/>
        <pt x="372" y="585" on="0"/>
      </contour>
    </TTGlyph>
    <TTGlyph name="H" xMin="32" yMin="0" xMax="650" yMax="690">
      <contour>
        <pt x="451" y="316" on="1"/>
        <pt x="231" y="316" on="1"/>
        <pt x="231" y="116" on="1"/>
        <pt x="271" y="100" on="0"/>
        <pt x="286" y="83" on="1"/>
        <pt x="276" y="0" on="1"/>
        <pt x="42" y="0" on="1"/>
        <pt x="32" y="83" on="1"/>
        <pt x="45" y="100" on="0"/>
        <pt x="87" y="116" on="1"/>
        <pt x="87" y="573" on="1"/>
        <pt x="46" y="588" on="0"/>
        <pt x="32" y="607" on="1"/>
        <pt x="42" y="690" on="1"/>
        <pt x="276" y="690" on="1"/>
        <pt x="286" y="607" on="1"/>
        <pt x="270" y="588" on="0"/>
        <pt x="231" y="573" on="1"/>
        <pt x="231" y="416" on="1"/>
        <pt x="451" y="416" on="1"/>
        <pt x="451" y="573" on="1"/>
        <pt x="410" y="588" on="0"/>
        <pt x="396" y="607" on="1"/>
        <pt x="406" y="690" on="1"/>
        <pt x="640" y="690" on="1"/>
        <pt x="650" y="607" on="1"/>
        <pt x="634" y="588" on="0"/>
        <pt x="595" y="573" on="1"/>
        <pt x="595" y="116" on="1"/>
        <pt x="635" y="100" on="0"/>
        <pt x="650" y="83" on="1"/>
        <pt x="640" y="0" on="1"/>
        <pt x="406" y="0" on="1"/>
        <pt x="396" y="83" on="1"/>
        <pt x="409" y="100" on="0"/>
        <pt x="451" y="116" on="1"/>
      </contour>
    </TTGlyph>
    <TTGlyph name="I" xMin="32" yMin="0" xMax="286" yMax="690">
      <contour>
        <pt x="276" y="690" on="1"/>
        <pt x="286" y="607" on="1"/>
        <pt x="270" y="588" on="0"/>
        <pt x="231" y="573" on="1"/>
        <pt x="231" y="116" on="1"/>
        <pt x="271" y="100" on="0"/>
        <pt x="286" y="83" on="1"/>
        <pt x="276" y="0" on="1"/>
        <pt x="42" y="0" on="1"/>
        <pt x="32" y="83" on="1"/>
        <pt x="45" y="100" on="0"/>
        <pt x="87" y="116" on="1"/>
        <pt x="87" y="573" on="1"/>
        <pt x="46" y="588" on="0"/>
        <pt x="32" y="607" on="1"/>
        <pt x="42" y="690" on="1"/>
      </contour>
    </TTGlyph>
    <TTGlyph name="Iacute" xMin="32" yMin="0" xMax="292" yMax="972">
      <contour>
        <pt x="158" y="756" on="1"/>
        <pt x="104" y="787" on="1"/>
        <pt x="110" y="831" on="0"/>
        <pt x="159" y="943" on="0"/>
        <pt x="188" y="972" on="1"/>
        <pt x="292" y="908" on="1"/>
        <pt x="278" y="869" on="0"/>
        <pt x="200" y="782" on="0"/>
      </contour>
      <contour>
        <pt x="276" y="690" on="1"/>
        <pt x="286" y="607" on="1"/>
        <pt x="270" y="588" on="0"/>
        <pt x="231" y="573" on="1"/>
        <pt x="231" y="116" on="1"/>
        <pt x="271" y="100" on="0"/>
        <pt x="286" y="83" on="1"/>
        <pt x="276" y="0" on="1"/>
        <pt x="42" y="0" on="1"/>
        <pt x="32" y="83" on="1"/>
        <pt x="45" y="100" on="0"/>
        <pt x="87" y="116" on="1"/>
        <pt x="87" y="573" on="1"/>
        <pt x="46" y="588" on="0"/>
        <pt x="32" y="607" on="1"/>
        <pt x="42" y="690" on="1"/>
      </contour>
    </TTGlyph>
    <TTGlyph name="Icircumflex" xMin="1" yMin="0" xMax="321" yMax="971">
      <contour>
        <pt x="321" y="797" on="1"/>
        <pt x="285" y="756" on="1"/>
        <pt x="239" y="769" on="0"/>
        <pt x="161" y="836" on="1"/>
        <pt x="83" y="769" on="0"/>
        <pt x="37" y="756" on="1"/>
        <pt x="1" y="797" on="1"/>
        <pt x="14" y="832" on="0"/>
        <pt x="116" y="941" on="0"/>
        <pt x="161" y="971" on="1"/>
        <pt x="206" y="941" on="0"/>
        <pt x="308" y="832" on="0"/>
      </contour>
      <contour>
        <pt x="276" y="690" on="1"/>
        <pt x="286" y="607" on="1"/>
        <pt x="270" y="588" on="0"/>
        <pt x="231" y="573" on="1"/>
        <pt x="231" y="116" on="1"/>
        <pt x="271" y="100" on="0"/>
        <pt x="286" y="83" on="1"/>
        <pt x="276" y="0" on="1"/>
        <pt x="42" y="0" on="1"/>
        <pt x="32" y="83" on="1"/>
        <pt x="45" y="100" on="0"/>
        <pt x="87" y="116" on="1"/>
        <pt x="87" y="573" on="1"/>
        <pt x="46" y="588" on="0"/>
        <pt x="32" y="607" on="1"/>
        <pt x="42" y="690" on="1"/>
      </contour>
    </TTGlyph>
    <TTGlyph name="Idieresis" xMin="-27" yMin="0" xMax="356" yMax="894">
      <contour>
        <pt x="-27" y="818" on="1"/>
        <pt x="-27" y="894" on="0"/>
        <pt x="136" y="894" on="0"/>
        <pt x="136" y="743" on="0"/>
        <pt x="54" y="743" on="1"/>
        <pt x="14" y="743" on="0"/>
        <pt x="-27" y="777" on="0"/>
      </contour>
      <contour>
        <pt x="193" y="818" on="1"/>
        <pt x="193" y="894" on="0"/>
        <pt x="356" y="894" on="0"/>
        <pt x="356" y="743" on="0"/>
        <pt x="274" y="743" on="1"/>
        <pt x="234" y="743" on="0"/>
        <pt x="193" y="777" on="0"/>
      </contour>
      <contour>
        <pt x="276" y="690" on="1"/>
        <pt x="286" y="607" on="1"/>
        <pt x="270" y="588" on="0"/>
        <pt x="231" y="573" on="1"/>
        <pt x="231" y="116" on="1"/>
        <pt x="271" y="100" on="0"/>
        <pt x="286" y="83" on="1"/>
        <pt x="276" y="0" on="1"/>
        <pt x="42" y="0" on="1"/>
        <pt x="32" y="83" on="1"/>
        <pt x="45" y="100" on="0"/>
        <pt x="87" y="116" on="1"/>
        <pt x="87" y="573" on="1"/>
        <pt x="46" y="588" on="0"/>
        <pt x="32" y="607" on="1"/>
        <pt x="42" y="690" on="1"/>
      </contour>
    </TTGlyph>
    <TTGlyph name="Igrave" xMin="32" yMin="0" xMax="286" yMax="972">
      <contour>
        <pt x="235" y="787" on="1"/>
        <pt x="181" y="756" on="1"/>
        <pt x="139" y="782" on="0"/>
        <pt x="61" y="869" on="0"/>
        <pt x="47" y="908" on="1"/>
        <pt x="151" y="972" on="1"/>
        <pt x="180" y="943" on="0"/>
        <pt x="229" y="831" on="0"/>
      </contour>
      <contour>
        <pt x="276" y="690" on="1"/>
        <pt x="286" y="607" on="1"/>
        <pt x="270" y="588" on="0"/>
        <pt x="231" y="573" on="1"/>
        <pt x="231" y="116" on="1"/>
        <pt x="271" y="100" on="0"/>
        <pt x="286" y="83" on="1"/>
        <pt x="276" y="0" on="1"/>
        <pt x="42" y="0" on="1"/>
        <pt x="32" y="83" on="1"/>
        <pt x="45" y="100" on="0"/>
        <pt x="87" y="116" on="1"/>
        <pt x="87" y="573" on="1"/>
        <pt x="46" y="588" on="0"/>
        <pt x="32" y="607" on="1"/>
        <pt x="42" y="690" on="1"/>
      </contour>
    </TTGlyph>
    <TTGlyph name="J" xMin="-139" yMin="-208" xMax="277" yMax="690">
      <contour>
        <pt x="12" y="-100" on="1"/>
        <pt x="48" y="-100" on="0"/>
        <pt x="78" y="-63" on="0"/>
        <pt x="78" y="-9" on="1"/>
        <pt x="78" y="573" on="1"/>
        <pt x="37" y="588" on="0"/>
        <pt x="23" y="607" on="1"/>
        <pt x="33" y="690" on="1"/>
        <pt x="267" y="690" on="1"/>
        <pt x="277" y="607" on="1"/>
        <pt x="261" y="588" on="0"/>
        <pt x="222" y="573" on="1"/>
        <pt x="221" y="0" on="1"/>
        <pt x="221" y="-115" on="0"/>
        <pt x="132" y="-208" on="0"/>
        <pt x="-67" y="-208" on="0"/>
        <pt x="-138" y="-156" on="1"/>
        <pt x="-138" y="-150" on="0"/>
        <pt x="-138" y="-119" on="0"/>
        <pt x="-125" y="-48" on="0"/>
        <pt x="-113" y="-24" on="1"/>
        <pt x="-23" y="-24" on="1"/>
        <pt x="-9" y="-46" on="0"/>
        <pt x="-3" y="-99" on="1"/>
        <pt x="2" y="-100" on="0"/>
      </contour>
    </TTGlyph>
    <TTGlyph name="K" xMin="32" yMin="0" xMax="635" yMax="690">
      <contour>
        <pt x="625" y="0" on="1"/>
        <pt x="459" y="0" on="1"/>
        <pt x="237" y="360" on="1"/>
        <pt x="404" y="582" on="1"/>
        <pt x="376" y="595" on="0"/>
        <pt x="365" y="609" on="1"/>
        <pt x="375" y="690" on="1"/>
        <pt x="603" y="690" on="1"/>
        <pt x="613" y="609" on="1"/>
        <pt x="599" y="593" on="0"/>
        <pt x="561" y="577" on="1"/>
        <pt x="388" y="364" on="1"/>
        <pt x="546" y="126" on="1"/>
        <pt x="611" y="112" on="0"/>
        <pt x="635" y="83" on="1"/>
      </contour>
      <contour>
        <pt x="276" y="690" on="1"/>
        <pt x="286" y="607" on="1"/>
        <pt x="270" y="588" on="0"/>
        <pt x="231" y="573" on="1"/>
        <pt x="231" y="116" on="1"/>
        <pt x="271" y="100" on="0"/>
        <pt x="286" y="83" on="1"/>
        <pt x="276" y="0" on="1"/>
        <pt x="42" y="0" on="1"/>
        <pt x="32" y="83" on="1"/>
        <pt x="45" y="100" on="0"/>
        <pt x="87" y="116" on="1"/>
        <pt x="87" y="573" on="1"/>
        <pt x="46" y="588" on="0"/>
        <pt x="32" y="607" on="1"/>
        <pt x="42" y="690" on="1"/>
      </contour>
    </TTGlyph>
    <TTGlyph name="L" xMin="32" yMin="0" xMax="500" yMax="690">
      <contour>
        <pt x="500" y="0" on="1"/>
        <pt x="42" y="0" on="1"/>
        <pt x="32" y="83" on="1"/>
        <pt x="45" y="100" on="0"/>
        <pt x="87" y="116" on="1"/>
        <pt x="87" y="573" on="1"/>
        <pt x="46" y="588" on="0"/>
        <pt x="32" y="607" on="1"/>
        <pt x="42" y="690" on="1"/>
        <pt x="276" y="690" on="1"/>
        <pt x="286" y="607" on="1"/>
        <pt x="270" y="588" on="0"/>
        <pt x="231" y="573" on="1"/>
        <pt x="231" y="109" on="1"/>
        <pt x="389" y="109" on="1"/>
        <pt x="402" y="161" on="0"/>
        <pt x="426" y="183" on="1"/>
        <pt x="500" y="174" on="1"/>
      </contour>
    </TTGlyph>
    <TTGlyph name="Lslash" xMin="-3" yMin="0" xMax="502" yMax="690">
      <contour>
        <pt x="233" y="109" on="1"/>
        <pt x="391" y="109" on="1"/>
        <pt x="404" y="161" on="0"/>
        <pt x="428" y="183" on="1"/>
        <pt x="502" y="174" on="1"/>
        <pt x="502" y="0" on="1"/>
        <pt x="44" y="0" on="1"/>
        <pt x="34" y="83" on="1"/>
        <pt x="47" y="100" on="0"/>
        <pt x="89" y="116" on="1"/>
        <pt x="89" y="294" on="1"/>
        <pt x="20" y="269" on="1"/>
        <pt x="-3" y="306" on="1"/>
        <pt x="3" y="321" on="0"/>
        <pt x="50" y="362" on="0"/>
        <pt x="74" y="371" on="1"/>
        <pt x="89" y="376" on="1"/>
        <pt x="89" y="573" on="1"/>
        <pt x="48" y="588" on="0"/>
        <pt x="34" y="607" on="1"/>
        <pt x="44" y="690" on="1"/>
        <pt x="278" y="690" on="1"/>
        <pt x="288" y="607" on="1"/>
        <pt x="272" y="588" on="0"/>
        <pt x="233" y="573" on="1"/>
        <pt x="233" y="427" on="1"/>
        <pt x="365" y="474" on="1"/>
        <pt x="387" y="437" on="1"/>
        <pt x="381" y="421" on="0"/>
        <pt x="336" y="382" on="0"/>
        <pt x="311" y="373" on="1"/>
        <pt x="233" y="345" on="1"/>
      </contour>
    </TTGlyph>
    <TTGlyph name="M" xMin="30" yMin="0" xMax="876" yMax="690">
      <contour>
        <pt x="681" y="377" on="1"/>
        <pt x="681" y="417" on="0"/>
        <pt x="688" y="501" on="1"/>
        <pt x="690" y="525" on="1"/>
        <pt x="680" y="526" on="1"/>
        <pt x="657" y="441" on="0"/>
        <pt x="640" y="391" on="1"/>
        <pt x="507" y="0" on="1"/>
        <pt x="374" y="0" on="1"/>
        <pt x="234" y="391" on="1"/>
        <pt x="215" y="436" on="0"/>
        <pt x="200" y="503" on="1"/>
        <pt x="194" y="526" on="1"/>
        <pt x="184" y="525" on="1"/>
        <pt x="193" y="436" on="0"/>
        <pt x="193" y="377" on="1"/>
        <pt x="193" y="114" on="1"/>
        <pt x="230" y="100" on="0"/>
        <pt x="248" y="77" on="1"/>
        <pt x="238" y="0" on="1"/>
        <pt x="42" y="0" on="1"/>
        <pt x="32" y="77" on="1"/>
        <pt x="50" y="100" on="0"/>
        <pt x="87" y="114" on="1"/>
        <pt x="87" y="576" on="1"/>
        <pt x="46" y="591" on="0"/>
        <pt x="30" y="613" on="1"/>
        <pt x="40" y="690" on="1"/>
        <pt x="268" y="690" on="1"/>
        <pt x="414" y="287" on="1"/>
        <pt x="442" y="221" on="0"/>
        <pt x="450" y="166" on="1"/>
        <pt x="453" y="149" on="1"/>
        <pt x="467" y="149" on="1"/>
        <pt x="471" y="210" on="0"/>
        <pt x="503" y="287" on="1"/>
        <pt x="642" y="690" on="1"/>
        <pt x="866" y="690" on="1"/>
        <pt x="876" y="613" on="1"/>
        <pt x="860" y="591" on="0"/>
        <pt x="819" y="576" on="1"/>
        <pt x="819" y="118" on="1"/>
        <pt x="858" y="103" on="0"/>
        <pt x="874" y="83" on="1"/>
        <pt x="864" y="0" on="1"/>
        <pt x="636" y="0" on="1"/>
        <pt x="626" y="82" on="1"/>
        <pt x="642" y="102" on="0"/>
        <pt x="681" y="117" on="1"/>
      </contour>
    </TTGlyph>
    <TTGlyph name="N" xMin="30" yMin="0" xMax="653" yMax="690">
      <contour>
        <pt x="193" y="377" on="1"/>
        <pt x="193" y="114" on="1"/>
        <pt x="230" y="100" on="0"/>
        <pt x="248" y="77" on="1"/>
        <pt x="238" y="0" on="1"/>
        <pt x="42" y="0" on="1"/>
        <pt x="32" y="77" on="1"/>
        <pt x="50" y="100" on="0"/>
        <pt x="87" y="114" on="1"/>
        <pt x="87" y="576" on="1"/>
        <pt x="46" y="591" on="0"/>
        <pt x="30" y="613" on="1"/>
        <pt x="40" y="690" on="1"/>
        <pt x="246" y="690" on="1"/>
        <pt x="445" y="302" on="1"/>
        <pt x="467" y="260" on="0"/>
        <pt x="488" y="190" on="1"/>
        <pt x="495" y="166" on="1"/>
        <pt x="506" y="170" on="1"/>
        <pt x="492" y="257" on="0"/>
        <pt x="492" y="316" on="1"/>
        <pt x="492" y="575" on="1"/>
        <pt x="456" y="589" on="0"/>
        <pt x="437" y="613" on="1"/>
        <pt x="447" y="690" on="1"/>
        <pt x="643" y="690" on="1"/>
        <pt x="653" y="613" on="1"/>
        <pt x="634" y="589" on="0"/>
        <pt x="598" y="575" on="1"/>
        <pt x="598" y="0" on="1"/>
        <pt x="441" y="0" on="1"/>
        <pt x="240" y="391" on="1"/>
        <pt x="218" y="433" on="0"/>
        <pt x="197" y="504" on="1"/>
        <pt x="190" y="527" on="1"/>
        <pt x="179" y="523" on="1"/>
        <pt x="193" y="436" on="0"/>
      </contour>
    </TTGlyph>
    <TTGlyph name="Ntilde" xMin="30" yMin="0" xMax="653" yMax="901">
      <contour>
        <pt x="155" y="865" on="0"/>
        <pt x="218" y="901" on="0"/>
        <pt x="284" y="901" on="0"/>
        <pt x="376" y="873" on="0"/>
        <pt x="406" y="873" on="1"/>
        <pt x="462" y="873" on="0"/>
        <pt x="498" y="894" on="1"/>
        <pt x="510" y="901" on="1"/>
        <pt x="550" y="838" on="1"/>
        <pt x="546" y="832" on="0"/>
        <pt x="511" y="802" on="0"/>
        <pt x="496" y="793" on="1"/>
        <pt x="454" y="769" on="0"/>
        <pt x="380" y="769" on="0"/>
        <pt x="285" y="797" on="0"/>
        <pt x="260" y="797" on="1"/>
        <pt x="213" y="797" on="0"/>
        <pt x="180" y="777" on="1"/>
        <pt x="169" y="770" on="1"/>
        <pt x="131" y="836" on="1"/>
        <pt x="136" y="843" on="0"/>
      </contour>
      <contour>
        <pt x="193" y="377" on="1"/>
        <pt x="193" y="114" on="1"/>
        <pt x="230" y="100" on="0"/>
        <pt x="248" y="77" on="1"/>
        <pt x="238" y="0" on="1"/>
        <pt x="42" y="0" on="1"/>
        <pt x="32" y="77" on="1"/>
        <pt x="50" y="100" on="0"/>
        <pt x="87" y="114" on="1"/>
        <pt x="87" y="576" on="1"/>
        <pt x="46" y="591" on="0"/>
        <pt x="30" y="613" on="1"/>
        <pt x="40" y="690" on="1"/>
        <pt x="246" y="690" on="1"/>
        <pt x="445" y="302" on="1"/>
        <pt x="467" y="260" on="0"/>
        <pt x="488" y="190" on="1"/>
        <pt x="495" y="166" on="1"/>
        <pt x="506" y="170" on="1"/>
        <pt x="492" y="257" on="0"/>
        <pt x="492" y="316" on="1"/>
        <pt x="492" y="575" on="1"/>
        <pt x="456" y="589" on="0"/>
        <pt x="437" y="613" on="1"/>
        <pt x="447" y="690" on="1"/>
        <pt x="643" y="690" on="1"/>
        <pt x="653" y="613" on="1"/>
        <pt x="634" y="589" on="0"/>
        <pt x="598" y="575" on="1"/>
        <pt x="598" y="0" on="1"/>
        <pt x="441" y="0" on="1"/>
        <pt x="240" y="391" on="1"/>
        <pt x="218" y="433" on="0"/>
        <pt x="197" y="504" on="1"/>
        <pt x="190" y="527" on="1"/>
        <pt x="179" y="523" on="1"/>
        <pt x="193" y="436" on="0"/>
      </contour>
    </TTGlyph>
    <TTGlyph name="O" xMin="30" yMin="-8" xMax="613" yMax="698">
      <contour>
        <pt x="171" y="-8" on="0"/>
        <pt x="30" y="156" on="0"/>
        <pt x="30" y="523" on="0"/>
        <pt x="185" y="698" on="0"/>
        <pt x="472" y="698" on="0"/>
        <pt x="613" y="542" on="0"/>
        <pt x="613" y="176" on="0"/>
        <pt x="455" y="-8" on="0"/>
      </contour>
      <contour>
        <pt x="180" y="481" on="0"/>
        <pt x="180" y="223" on="0"/>
        <pt x="256" y="105" on="0"/>
        <pt x="389" y="105" on="0"/>
        <pt x="463" y="216" on="0"/>
        <pt x="463" y="345" on="1"/>
        <pt x="463" y="585" on="0"/>
        <pt x="319" y="585" on="1"/>
        <pt x="252" y="585" on="0"/>
      </contour>
    </TTGlyph>
    <TTGlyph name="OE" xMin="31" yMin="-8" xMax="838" yMax="698">
      <contour>
        <pt x="838" y="0" on="1"/>
        <pt x="402" y="0" on="1"/>
        <pt x="351" y="-8" on="0"/>
        <pt x="300" y="-8" on="1"/>
        <pt x="160" y="-8" on="0"/>
        <pt x="31" y="154" on="0"/>
        <pt x="31" y="343" on="1"/>
        <pt x="31" y="698" on="0"/>
        <pt x="314" y="698" on="1"/>
        <pt x="370" y="698" on="0"/>
        <pt x="412" y="690" on="1"/>
        <pt x="830" y="690" on="1"/>
        <pt x="830" y="516" on="1"/>
        <pt x="756" y="507" on="1"/>
        <pt x="733" y="527" on="0"/>
        <pt x="719" y="581" on="1"/>
        <pt x="565" y="581" on="1"/>
        <pt x="565" y="409" on="1"/>
        <pt x="702" y="409" on="1"/>
        <pt x="714" y="439" on="0"/>
        <pt x="727" y="451" on="1"/>
        <pt x="790" y="444" on="1"/>
        <pt x="790" y="266" on="1"/>
        <pt x="727" y="258" on="1"/>
        <pt x="714" y="268" on="0"/>
        <pt x="702" y="300" on="1"/>
        <pt x="565" y="300" on="1"/>
        <pt x="565" y="109" on="1"/>
        <pt x="727" y="109" on="1"/>
        <pt x="740" y="161" on="0"/>
        <pt x="764" y="183" on="1"/>
        <pt x="838" y="174" on="1"/>
      </contour>
      <contour>
        <pt x="181" y="484" on="0"/>
        <pt x="181" y="220" on="0"/>
        <pt x="245" y="105" on="0"/>
        <pt x="371" y="105" on="0"/>
        <pt x="423" y="117" on="1"/>
        <pt x="423" y="566" on="1"/>
        <pt x="372" y="585" on="0"/>
        <pt x="241" y="585" on="0"/>
      </contour>
    </TTGlyph>
    <TTGlyph name="Oacute" xMin="30" yMin="-8" xMax="613" yMax="972">
      <contour>
        <pt x="300" y="756" on="1"/>
        <pt x="246" y="787" on="1"/>
        <pt x="252" y="831" on="0"/>
        <pt x="301" y="943" on="0"/>
        <pt x="330" y="972" on="1"/>
        <pt x="434" y="908" on="1"/>
        <pt x="420" y="869" on="0"/>
        <pt x="342" y="782" on="0"/>
      </contour>
      <contour>
        <pt x="171" y="-8" on="0"/>
        <pt x="30" y="156" on="0"/>
        <pt x="30" y="523" on="0"/>
        <pt x="185" y="698" on="0"/>
        <pt x="472" y="698" on="0"/>
        <pt x="613" y="542" on="0"/>
        <pt x="613" y="176" on="0"/>
        <pt x="455" y="-8" on="0"/>
      </contour>
      <contour>
        <pt x="180" y="481" on="0"/>
        <pt x="180" y="223" on="0"/>
        <pt x="256" y="105" on="0"/>
        <pt x="389" y="105" on="0"/>
        <pt x="463" y="216" on="0"/>
        <pt x="463" y="345" on="1"/>
        <pt x="463" y="585" on="0"/>
        <pt x="319" y="585" on="1"/>
        <pt x="252" y="585" on="0"/>
      </contour>
    </TTGlyph>
    <TTGlyph name="Ocircumflex" xMin="30" yMin="-8" xMax="613" yMax="971">
      <contour>
        <pt x="482" y="797" on="1"/>
        <pt x="446" y="756" on="1"/>
        <pt x="400" y="769" on="0"/>
        <pt x="322" y="836" on="1"/>
        <pt x="244" y="769" on="0"/>
        <pt x="198" y="756" on="1"/>
        <pt x="162" y="797" on="1"/>
        <pt x="175" y="832" on="0"/>
        <pt x="277" y="941" on="0"/>
        <pt x="322" y="971" on="1"/>
        <pt x="367" y="941" on="0"/>
        <pt x="469" y="832" on="0"/>
      </contour>
      <contour>
        <pt x="171" y="-8" on="0"/>
        <pt x="30" y="156" on="0"/>
        <pt x="30" y="523" on="0"/>
        <pt x="185" y="698" on="0"/>
        <pt x="472" y="698" on="0"/>
        <pt x="613" y="542" on="0"/>
        <pt x="613" y="176" on="0"/>
        <pt x="455" y="-8" on="0"/>
      </contour>
      <contour>
        <pt x="180" y="481" on="0"/>
        <pt x="180" y="223" on="0"/>
        <pt x="256" y="105" on="0"/>
        <pt x="389" y="105" on="0"/>
        <pt x="463" y="216" on="0"/>
        <pt x="463" y="345" on="1"/>
        <pt x="463" y="585" on="0"/>
        <pt x="319" y="585" on="1"/>
        <pt x="252" y="585" on="0"/>
      </contour>
    </TTGlyph>
    <TTGlyph name="Odieresis" xMin="30" yMin="-8" xMax="613" yMax="894">
      <contour>
        <pt x="128" y="818" on="1"/>
        <pt x="128" y="894" on="0"/>
        <pt x="291" y="894" on="0"/>
        <pt x="291" y="743" on="0"/>
        <pt x="209" y="743" on="1"/>
        <pt x="169" y="743" on="0"/>
        <pt x="128" y="777" on="0"/>
      </contour>
      <contour>
        <pt x="368" y="818" on="1"/>
        <pt x="368" y="894" on="0"/>
        <pt x="531" y="894" on="0"/>
        <pt x="531" y="743" on="0"/>
        <pt x="449" y="743" on="1"/>
        <pt x="409" y="743" on="0"/>
        <pt x="368" y="777" on="0"/>
      </contour>
      <contour>
        <pt x="171" y="-8" on="0"/>
        <pt x="30" y="156" on="0"/>
        <pt x="30" y="523" on="0"/>
        <pt x="185" y="698" on="0"/>
        <pt x="472" y="698" on="0"/>
        <pt x="613" y="542" on="0"/>
        <pt x="613" y="176" on="0"/>
        <pt x="455" y="-8" on="0"/>
      </contour>
      <contour>
        <pt x="180" y="481" on="0"/>
        <pt x="180" y="223" on="0"/>
        <pt x="256" y="105" on="0"/>
        <pt x="389" y="105" on="0"/>
        <pt x="463" y="216" on="0"/>
        <pt x="463" y="345" on="1"/>
        <pt x="463" y="585" on="0"/>
        <pt x="319" y="585" on="1"/>
        <pt x="252" y="585" on="0"/>
      </contour>
    </TTGlyph>
    <TTGlyph name="Ograve" xMin="30" yMin="-8" xMax="613" yMax="972">
      <contour>
        <pt x="390" y="787" on="1"/>
        <pt x="336" y="756" on="1"/>
        <pt x="294" y="782" on="0"/>
        <pt x="216" y="869" on="0"/>
        <pt x="202" y="908" on="1"/>
        <pt x="306" y="972" on="1"/>
        <pt x="335" y="943" on="0"/>
        <pt x="384" y="831" on="0"/>
      </contour>
      <contour>
        <pt x="171" y="-8" on="0"/>
        <pt x="30" y="156" on="0"/>
        <pt x="30" y="523" on="0"/>
        <pt x="185" y="698" on="0"/>
        <pt x="472" y="698" on="0"/>
        <pt x="613" y="542" on="0"/>
        <pt x="613" y="176" on="0"/>
        <pt x="455" y="-8" on="0"/>
      </contour>
      <contour>
        <pt x="180" y="481" on="0"/>
        <pt x="180" y="223" on="0"/>
        <pt x="256" y="105" on="0"/>
        <pt x="389" y="105" on="0"/>
        <pt x="463" y="216" on="0"/>
        <pt x="463" y="345" on="1"/>
        <pt x="463" y="585" on="0"/>
        <pt x="319" y="585" on="1"/>
        <pt x="252" y="585" on="0"/>
      </contour>
    </TTGlyph>
    <TTGlyph name="Oslash" xMin="-4" yMin="-8" xMax="666" yMax="698">
      <contour>
        <pt x="54" y="343" on="1"/>
        <pt x="54" y="698" on="0"/>
        <pt x="337" y="698" on="1"/>
        <pt x="487" y="698" on="0"/>
        <pt x="548" y="616" on="1"/>
        <pt x="631" y="696" on="1"/>
        <pt x="666" y="672" on="1"/>
        <pt x="666" y="623" on="0"/>
        <pt x="623" y="581" on="1"/>
        <pt x="584" y="544" on="1"/>
        <pt x="609" y="467" on="0"/>
        <pt x="609" y="356" on="1"/>
        <pt x="609" y="174" on="0"/>
        <pt x="463" y="-8" on="0"/>
        <pt x="174" y="-8" on="0"/>
        <pt x="111" y="83" on="1"/>
        <pt x="32" y="6" on="1"/>
        <pt x="-4" y="30" on="1"/>
        <pt x="-3" y="80" on="0"/>
        <pt x="39" y="121" on="1"/>
        <pt x="76" y="157" on="1"/>
        <pt x="54" y="229" on="0"/>
      </contour>
      <contour>
        <pt x="459" y="345" on="1"/>
        <pt x="459" y="385" on="0"/>
        <pt x="456" y="418" on="1"/>
        <pt x="223" y="192" on="1"/>
        <pt x="252" y="105" on="0"/>
        <pt x="331" y="105" on="1"/>
        <pt x="397" y="105" on="0"/>
        <pt x="459" y="213" on="0"/>
      </contour>
      <contour>
        <pt x="204" y="352" on="1"/>
        <pt x="204" y="325" on="0"/>
        <pt x="206" y="283" on="1"/>
        <pt x="437" y="508" on="1"/>
        <pt x="408" y="585" on="0"/>
        <pt x="329" y="585" on="1"/>
        <pt x="264" y="585" on="0"/>
        <pt x="204" y="484" on="0"/>
      </contour>
    </TTGlyph>
    <TTGlyph name="Otilde" xMin="30" yMin="-8" xMax="613" yMax="901">
      <contour>
        <pt x="138" y="865" on="0"/>
        <pt x="201" y="901" on="0"/>
        <pt x="268" y="901" on="0"/>
        <pt x="358" y="873" on="0"/>
        <pt x="388" y="873" on="1"/>
        <pt x="445" y="873" on="0"/>
        <pt x="481" y="894" on="1"/>
        <pt x="493" y="901" on="1"/>
        <pt x="533" y="838" on="1"/>
        <pt x="529" y="832" on="0"/>
        <pt x="494" y="802" on="0"/>
        <pt x="478" y="793" on="1"/>
        <pt x="437" y="769" on="0"/>
        <pt x="363" y="769" on="0"/>
        <pt x="268" y="797" on="0"/>
        <pt x="243" y="797" on="1"/>
        <pt x="196" y="797" on="0"/>
        <pt x="164" y="777" on="1"/>
        <pt x="152" y="770" on="1"/>
        <pt x="114" y="836" on="1"/>
        <pt x="119" y="843" on="0"/>
      </contour>
      <contour>
        <pt x="171" y="-8" on="0"/>
        <pt x="30" y="156" on="0"/>
        <pt x="30" y="523" on="0"/>
        <pt x="185" y="698" on="0"/>
        <pt x="472" y="698" on="0"/>
        <pt x="613" y="542" on="0"/>
        <pt x="613" y="176" on="0"/>
        <pt x="455" y="-8" on="0"/>
      </contour>
      <contour>
        <pt x="180" y="481" on="0"/>
        <pt x="180" y="223" on="0"/>
        <pt x="256" y="105" on="0"/>
        <pt x="389" y="105" on="0"/>
        <pt x="463" y="216" on="0"/>
        <pt x="463" y="345" on="1"/>
        <pt x="463" y="585" on="0"/>
        <pt x="319" y="585" on="1"/>
        <pt x="252" y="585" on="0"/>
      </contour>
    </TTGlyph>
    <TTGlyph name="P" xMin="32" yMin="0" xMax="583" yMax="690">
      <contour>
        <pt x="276" y="240" on="1"/>
        <pt x="231" y="240" on="1"/>
        <pt x="231" y="122" on="1"/>
        <pt x="304" y="106" on="0"/>
        <pt x="322" y="83" on="1"/>
        <pt x="312" y="0" on="1"/>
        <pt x="42" y="0" on="1"/>
        <pt x="32" y="83" on="1"/>
        <pt x="45" y="100" on="0"/>
        <pt x="87" y="116" on="1"/>
        <pt x="87" y="573" on="1"/>
        <pt x="46" y="588" on="0"/>
        <pt x="32" y="607" on="1"/>
        <pt x="42" y="690" on="1"/>
        <pt x="307" y="690" on="1"/>
        <pt x="446" y="688" on="0"/>
        <pt x="583" y="591" on="0"/>
        <pt x="583" y="467" on="1"/>
        <pt x="583" y="240" on="0"/>
      </contour>
      <contour>
        <pt x="291" y="581" on="1"/>
        <pt x="231" y="581" on="1"/>
        <pt x="231" y="349" on="1"/>
        <pt x="298" y="349" on="1"/>
        <pt x="366" y="349" on="0"/>
        <pt x="433" y="403" on="0"/>
        <pt x="433" y="536" on="0"/>
        <pt x="360" y="581" on="0"/>
      </contour>
    </TTGlyph>
    <TTGlyph name="Q" xMin="30" yMin="-177" xMax="613" yMax="698">
      <contour>
        <pt x="135" y="16" on="0"/>
        <pt x="30" y="182" on="0"/>
        <pt x="30" y="523" on="0"/>
        <pt x="185" y="698" on="0"/>
        <pt x="472" y="698" on="0"/>
        <pt x="613" y="542" on="0"/>
        <pt x="613" y="356" on="1"/>
        <pt x="613" y="201" on="0"/>
        <pt x="495" y="21" on="0"/>
        <pt x="387" y="-1" on="1"/>
        <pt x="437" y="-66" on="0"/>
        <pt x="554" y="-85" on="1"/>
        <pt x="544" y="-176" on="1"/>
        <pt x="540" y="-176" on="0"/>
        <pt x="535" y="-176" on="1"/>
        <pt x="431" y="-176" on="0"/>
        <pt x="261" y="-85" on="0"/>
        <pt x="240" y="-2" on="1"/>
      </contour>
      <contour>
        <pt x="180" y="481" on="0"/>
        <pt x="180" y="223" on="0"/>
        <pt x="256" y="105" on="0"/>
        <pt x="389" y="105" on="0"/>
        <pt x="463" y="216" on="0"/>
        <pt x="463" y="345" on="1"/>
        <pt x="463" y="585" on="0"/>
        <pt x="319" y="585" on="1"/>
        <pt x="252" y="585" on="0"/>
      </contour>
    </TTGlyph>
    <TTGlyph name="R" xMin="32" yMin="0" xMax="627" yMax="690">
      <contour>
        <pt x="573" y="488" on="1"/>
        <pt x="573" y="420" on="0"/>
        <pt x="488" y="328" on="0"/>
        <pt x="424" y="304" on="1"/>
        <pt x="474" y="283" on="0"/>
        <pt x="490" y="253" on="1"/>
        <pt x="563" y="114" on="1"/>
        <pt x="610" y="98" on="0"/>
        <pt x="627" y="77" on="1"/>
        <pt x="617" y="0" on="1"/>
        <pt x="448" y="0" on="1"/>
        <pt x="333" y="245" on="1"/>
        <pt x="317" y="282" on="0"/>
        <pt x="296" y="282" on="1"/>
        <pt x="231" y="282" on="1"/>
        <pt x="231" y="122" on="1"/>
        <pt x="304" y="106" on="0"/>
        <pt x="322" y="83" on="1"/>
        <pt x="312" y="0" on="1"/>
        <pt x="42" y="0" on="1"/>
        <pt x="32" y="83" on="1"/>
        <pt x="45" y="100" on="0"/>
        <pt x="87" y="116" on="1"/>
        <pt x="87" y="573" on="1"/>
        <pt x="46" y="588" on="0"/>
        <pt x="32" y="607" on="1"/>
        <pt x="42" y="690" on="1"/>
        <pt x="297" y="690" on="1"/>
        <pt x="437" y="688" on="0"/>
        <pt x="573" y="602" on="0"/>
      </contour>
      <contour>
        <pt x="290" y="581" on="1"/>
        <pt x="231" y="581" on="1"/>
        <pt x="231" y="391" on="1"/>
        <pt x="288" y="391" on="1"/>
        <pt x="356" y="391" on="0"/>
        <pt x="423" y="432" on="0"/>
        <pt x="423" y="538" on="0"/>
        <pt x="355" y="581" on="0"/>
      </contour>
    </TTGlyph>
    <TTGlyph name="S" xMin="31" yMin="-8" xMax="517" yMax="698">
      <contour>
        <pt x="340" y="581" on="1"/>
        <pt x="306" y="590" on="0"/>
        <pt x="232" y="590" on="0"/>
        <pt x="187" y="553" on="0"/>
        <pt x="187" y="486" on="0"/>
        <pt x="221" y="448" on="0"/>
        <pt x="271" y="434" on="1"/>
        <pt x="360" y="408" on="1"/>
        <pt x="432" y="387" on="0"/>
        <pt x="517" y="298" on="0"/>
        <pt x="517" y="212" on="1"/>
        <pt x="517" y="110" on="0"/>
        <pt x="370" y="-8" on="0"/>
        <pt x="261" y="-8" on="1"/>
        <pt x="201" y="-8" on="0"/>
        <pt x="74" y="23" on="0"/>
        <pt x="32" y="51" on="1"/>
        <pt x="32" y="57" on="0"/>
        <pt x="32" y="91" on="0"/>
        <pt x="46" y="173" on="0"/>
        <pt x="59" y="199" on="1"/>
        <pt x="154" y="199" on="1"/>
        <pt x="170" y="168" on="0"/>
        <pt x="173" y="116" on="1"/>
        <pt x="208" y="101" on="0"/>
        <pt x="301" y="101" on="0"/>
        <pt x="361" y="145" on="0"/>
        <pt x="361" y="186" on="1"/>
        <pt x="361" y="205" on="0"/>
        <pt x="355" y="230" on="0"/>
        <pt x="324" y="259" on="0"/>
        <pt x="295" y="268" on="1"/>
        <pt x="192" y="298" on="1"/>
        <pt x="35" y="343" on="0"/>
        <pt x="35" y="498" on="1"/>
        <pt x="35" y="589" on="0"/>
        <pt x="167" y="698" on="0"/>
        <pt x="380" y="698" on="0"/>
        <pt x="482" y="650" on="1"/>
        <pt x="482" y="644" on="0"/>
        <pt x="482" y="610" on="0"/>
        <pt x="468" y="528" on="0"/>
        <pt x="455" y="502" on="1"/>
        <pt x="360" y="502" on="1"/>
        <pt x="343" y="526" on="0"/>
      </contour>
    </TTGlyph>
    <TTGlyph name="Scaron" xMin="31" yMin="-8" xMax="517" yMax="956">
      <contour>
        <pt x="393" y="956" on="1"/>
        <pt x="429" y="915" on="1"/>
        <pt x="416" y="880" on="0"/>
        <pt x="314" y="771" on="0"/>
        <pt x="269" y="741" on="1"/>
        <pt x="224" y="771" on="0"/>
        <pt x="122" y="880" on="0"/>
        <pt x="109" y="915" on="1"/>
        <pt x="145" y="956" on="1"/>
        <pt x="194" y="940" on="0"/>
        <pt x="269" y="876" on="1"/>
        <pt x="344" y="940" on="0"/>
      </contour>
      <contour>
        <pt x="340" y="581" on="1"/>
        <pt x="306" y="590" on="0"/>
        <pt x="232" y="590" on="0"/>
        <pt x="187" y="553" on="0"/>
        <pt x="187" y="486" on="0"/>
        <pt x="221" y="448" on="0"/>
        <pt x="271" y="434" on="1"/>
        <pt x="360" y="408" on="1"/>
        <pt x="432" y="387" on="0"/>
        <pt x="517" y="298" on="0"/>
        <pt x="517" y="212" on="1"/>
        <pt x="517" y="110" on="0"/>
        <pt x="370" y="-8" on="0"/>
        <pt x="261" y="-8" on="1"/>
        <pt x="201" y="-8" on="0"/>
        <pt x="74" y="23" on="0"/>
        <pt x="32" y="51" on="1"/>
        <pt x="32" y="57" on="0"/>
        <pt x="32" y="91" on="0"/>
        <pt x="46" y="173" on="0"/>
        <pt x="59" y="199" on="1"/>
        <pt x="154" y="199" on="1"/>
        <pt x="170" y="168" on="0"/>
        <pt x="173" y="116" on="1"/>
        <pt x="208" y="101" on="0"/>
        <pt x="301" y="101" on="0"/>
        <pt x="361" y="145" on="0"/>
        <pt x="361" y="186" on="1"/>
        <pt x="361" y="205" on="0"/>
        <pt x="355" y="230" on="0"/>
        <pt x="324" y="259" on="0"/>
        <pt x="295" y="268" on="1"/>
        <pt x="192" y="298" on="1"/>
        <pt x="35" y="343" on="0"/>
        <pt x="35" y="498" on="1"/>
        <pt x="35" y="589" on="0"/>
        <pt x="167" y="698" on="0"/>
        <pt x="380" y="698" on="0"/>
        <pt x="482" y="650" on="1"/>
        <pt x="482" y="644" on="0"/>
        <pt x="482" y="610" on="0"/>
        <pt x="468" y="528" on="0"/>
        <pt x="455" y="502" on="1"/>
        <pt x="360" y="502" on="1"/>
        <pt x="343" y="526" on="0"/>
      </contour>
    </TTGlyph>
    <TTGlyph name="T" xMin="8" yMin="0" xMax="568" yMax="689">
      <contour>
        <pt x="568" y="689" on="1"/>
        <pt x="568" y="546" on="1"/>
        <pt x="505" y="538" on="1"/>
        <pt x="492" y="548" on="0"/>
        <pt x="480" y="580" on="1"/>
        <pt x="360" y="580" on="1"/>
        <pt x="360" y="116" on="1"/>
        <pt x="400" y="100" on="0"/>
        <pt x="415" y="83" on="1"/>
        <pt x="405" y="0" on="1"/>
        <pt x="171" y="0" on="1"/>
        <pt x="161" y="83" on="1"/>
        <pt x="174" y="100" on="0"/>
        <pt x="216" y="116" on="1"/>
        <pt x="216" y="580" on="1"/>
        <pt x="96" y="580" on="1"/>
        <pt x="84" y="548" on="0"/>
        <pt x="71" y="538" on="1"/>
        <pt x="8" y="546" on="1"/>
        <pt x="8" y="689" on="1"/>
      </contour>
    </TTGlyph>
    <TTGlyph name="Thorn" xMin="32" yMin="0" xMax="583" yMax="690">
      <contour>
        <pt x="231" y="536" on="1"/>
        <pt x="331" y="536" on="1"/>
        <pt x="460" y="536" on="0"/>
        <pt x="583" y="452" on="0"/>
        <pt x="583" y="349" on="1"/>
        <pt x="583" y="158" on="0"/>
        <pt x="321" y="158" on="1"/>
        <pt x="231" y="158" on="1"/>
        <pt x="231" y="122" on="1"/>
        <pt x="304" y="106" on="0"/>
        <pt x="322" y="83" on="1"/>
        <pt x="312" y="0" on="1"/>
        <pt x="42" y="0" on="1"/>
        <pt x="32" y="83" on="1"/>
        <pt x="45" y="100" on="0"/>
        <pt x="87" y="116" on="1"/>
        <pt x="87" y="573" on="1"/>
        <pt x="46" y="588" on="0"/>
        <pt x="32" y="607" on="1"/>
        <pt x="42" y="690" on="1"/>
        <pt x="312" y="690" on="1"/>
        <pt x="322" y="607" on="1"/>
        <pt x="303" y="583" on="0"/>
        <pt x="231" y="567" on="1"/>
      </contour>
      <contour>
        <pt x="291" y="435" on="1"/>
        <pt x="231" y="435" on="1"/>
        <pt x="231" y="259" on="1"/>
        <pt x="298" y="259" on="1"/>
        <pt x="367" y="259" on="0"/>
        <pt x="433" y="298" on="0"/>
        <pt x="433" y="351" on="1"/>
        <pt x="433" y="406" on="0"/>
        <pt x="390" y="422" on="1"/>
        <pt x="356" y="435" on="0"/>
      </contour>
    </TTGlyph>
    <TTGlyph name="U" xMin="16" yMin="-8" xMax="618" yMax="690">
      <contour>
        <pt x="563" y="119" on="0"/>
        <pt x="444" y="-8" on="0"/>
        <pt x="178" y="-8" on="0"/>
        <pt x="71" y="117" on="0"/>
        <pt x="71" y="250" on="1"/>
        <pt x="71" y="573" on="1"/>
        <pt x="33" y="587" on="0"/>
        <pt x="16" y="607" on="1"/>
        <pt x="26" y="690" on="1"/>
        <pt x="260" y="690" on="1"/>
        <pt x="270" y="607" on="1"/>
        <pt x="254" y="588" on="0"/>
        <pt x="215" y="573" on="1"/>
        <pt x="215" y="246" on="1"/>
        <pt x="215" y="174" on="0"/>
        <pt x="262" y="105" on="0"/>
        <pt x="384" y="105" on="0"/>
        <pt x="434" y="176" on="0"/>
        <pt x="434" y="246" on="1"/>
        <pt x="434" y="573" on="1"/>
        <pt x="393" y="588" on="0"/>
        <pt x="379" y="607" on="1"/>
        <pt x="389" y="690" on="1"/>
        <pt x="608" y="690" on="1"/>
        <pt x="618" y="607" on="1"/>
        <pt x="602" y="588" on="0"/>
        <pt x="563" y="573" on="1"/>
        <pt x="563" y="250" on="1"/>
      </contour>
    </TTGlyph>
    <TTGlyph name="Uacute" xMin="16" yMin="-8" xMax="618" yMax="972">
      <contour>
        <pt x="254" y="787" on="1"/>
        <pt x="260" y="831" on="0"/>
        <pt x="309" y="943" on="0"/>
        <pt x="338" y="972" on="1"/>
        <pt x="442" y="908" on="1"/>
        <pt x="428" y="869" on="0"/>
        <pt x="350" y="782" on="0"/>
        <pt x="308" y="756" on="1"/>
        <pt x="254" y="785" on="0"/>
      </contour>
      <contour>
        <pt x="563" y="119" on="0"/>
        <pt x="444" y="-8" on="0"/>
        <pt x="178" y="-8" on="0"/>
        <pt x="71" y="117" on="0"/>
        <pt x="71" y="250" on="1"/>
        <pt x="71" y="573" on="1"/>
        <pt x="33" y="587" on="0"/>
        <pt x="16" y="607" on="1"/>
        <pt x="26" y="690" on="1"/>
        <pt x="260" y="690" on="1"/>
        <pt x="270" y="607" on="1"/>
        <pt x="254" y="588" on="0"/>
        <pt x="215" y="573" on="1"/>
        <pt x="215" y="246" on="1"/>
        <pt x="215" y="174" on="0"/>
        <pt x="262" y="105" on="0"/>
        <pt x="384" y="105" on="0"/>
        <pt x="434" y="176" on="0"/>
        <pt x="434" y="246" on="1"/>
        <pt x="434" y="573" on="1"/>
        <pt x="393" y="588" on="0"/>
        <pt x="379" y="607" on="1"/>
        <pt x="389" y="690" on="1"/>
        <pt x="608" y="690" on="1"/>
        <pt x="618" y="607" on="1"/>
        <pt x="602" y="588" on="0"/>
        <pt x="563" y="573" on="1"/>
        <pt x="563" y="250" on="1"/>
      </contour>
    </TTGlyph>
    <TTGlyph name="Ucircumflex" xMin="16" yMin="-8" xMax="618" yMax="971">
      <contour>
        <pt x="482" y="797" on="1"/>
        <pt x="446" y="756" on="1"/>
        <pt x="400" y="769" on="0"/>
        <pt x="322" y="836" on="1"/>
        <pt x="244" y="769" on="0"/>
        <pt x="198" y="756" on="1"/>
        <pt x="162" y="797" on="1"/>
        <pt x="175" y="832" on="0"/>
        <pt x="277" y="941" on="0"/>
        <pt x="322" y="971" on="1"/>
        <pt x="367" y="941" on="0"/>
        <pt x="469" y="832" on="0"/>
      </contour>
      <contour>
        <pt x="563" y="119" on="0"/>
        <pt x="444" y="-8" on="0"/>
        <pt x="178" y="-8" on="0"/>
        <pt x="71" y="117" on="0"/>
        <pt x="71" y="250" on="1"/>
        <pt x="71" y="573" on="1"/>
        <pt x="33" y="587" on="0"/>
        <pt x="16" y="607" on="1"/>
        <pt x="26" y="690" on="1"/>
        <pt x="260" y="690" on="1"/>
        <pt x="270" y="607" on="1"/>
        <pt x="254" y="588" on="0"/>
        <pt x="215" y="573" on="1"/>
        <pt x="215" y="246" on="1"/>
        <pt x="215" y="174" on="0"/>
        <pt x="262" y="105" on="0"/>
        <pt x="384" y="105" on="0"/>
        <pt x="434" y="176" on="0"/>
        <pt x="434" y="246" on="1"/>
        <pt x="434" y="573" on="1"/>
        <pt x="393" y="588" on="0"/>
        <pt x="379" y="607" on="1"/>
        <pt x="389" y="690" on="1"/>
        <pt x="608" y="690" on="1"/>
        <pt x="618" y="607" on="1"/>
        <pt x="602" y="588" on="0"/>
        <pt x="563" y="573" on="1"/>
        <pt x="563" y="250" on="1"/>
      </contour>
    </TTGlyph>
    <TTGlyph name="Udieresis" xMin="16" yMin="-8" xMax="618" yMax="894">
      <contour>
        <pt x="123" y="818" on="1"/>
        <pt x="123" y="894" on="0"/>
        <pt x="286" y="894" on="0"/>
        <pt x="286" y="743" on="0"/>
        <pt x="204" y="743" on="1"/>
        <pt x="164" y="743" on="0"/>
        <pt x="123" y="777" on="0"/>
      </contour>
      <contour>
        <pt x="363" y="818" on="1"/>
        <pt x="363" y="894" on="0"/>
        <pt x="526" y="894" on="0"/>
        <pt x="526" y="743" on="0"/>
        <pt x="444" y="743" on="1"/>
        <pt x="404" y="743" on="0"/>
        <pt x="363" y="777" on="0"/>
      </contour>
      <contour>
        <pt x="563" y="119" on="0"/>
        <pt x="444" y="-8" on="0"/>
        <pt x="178" y="-8" on="0"/>
        <pt x="71" y="117" on="0"/>
        <pt x="71" y="250" on="1"/>
        <pt x="71" y="573" on="1"/>
        <pt x="33" y="587" on="0"/>
        <pt x="16" y="607" on="1"/>
        <pt x="26" y="690" on="1"/>
        <pt x="260" y="690" on="1"/>
        <pt x="270" y="607" on="1"/>
        <pt x="254" y="588" on="0"/>
        <pt x="215" y="573" on="1"/>
        <pt x="215" y="246" on="1"/>
        <pt x="215" y="174" on="0"/>
        <pt x="262" y="105" on="0"/>
        <pt x="384" y="105" on="0"/>
        <pt x="434" y="176" on="0"/>
        <pt x="434" y="246" on="1"/>
        <pt x="434" y="573" on="1"/>
        <pt x="393" y="588" on="0"/>
        <pt x="379" y="607" on="1"/>
        <pt x="389" y="690" on="1"/>
        <pt x="608" y="690" on="1"/>
        <pt x="618" y="607" on="1"/>
        <pt x="602" y="588" on="0"/>
        <pt x="563" y="573" on="1"/>
        <pt x="563" y="250" on="1"/>
      </contour>
    </TTGlyph>
    <TTGlyph name="Ugrave" xMin="16" yMin="-8" xMax="618" yMax="972">
      <contour>
        <pt x="384" y="787" on="1"/>
        <pt x="330" y="756" on="1"/>
        <pt x="288" y="782" on="0"/>
        <pt x="210" y="869" on="0"/>
        <pt x="196" y="908" on="1"/>
        <pt x="300" y="972" on="1"/>
        <pt x="329" y="943" on="0"/>
        <pt x="378" y="831" on="0"/>
      </contour>
      <contour>
        <pt x="563" y="119" on="0"/>
        <pt x="444" y="-8" on="0"/>
        <pt x="178" y="-8" on="0"/>
        <pt x="71" y="117" on="0"/>
        <pt x="71" y="250" on="1"/>
        <pt x="71" y="573" on="1"/>
        <pt x="33" y="587" on="0"/>
        <pt x="16" y="607" on="1"/>
        <pt x="26" y="690" on="1"/>
        <pt x="260" y="690" on="1"/>
        <pt x="270" y="607" on="1"/>
        <pt x="254" y="588" on="0"/>
        <pt x="215" y="573" on="1"/>
        <pt x="215" y="246" on="1"/>
        <pt x="215" y="174" on="0"/>
        <pt x="262" y="105" on="0"/>
        <pt x="384" y="105" on="0"/>
        <pt x="434" y="176" on="0"/>
        <pt x="434" y="246" on="1"/>
        <pt x="434" y="573" on="1"/>
        <pt x="393" y="588" on="0"/>
        <pt x="379" y="607" on="1"/>
        <pt x="389" y="690" on="1"/>
        <pt x="608" y="690" on="1"/>
        <pt x="618" y="607" on="1"/>
        <pt x="602" y="588" on="0"/>
        <pt x="563" y="573" on="1"/>
        <pt x="563" y="250" on="1"/>
      </contour>
    </TTGlyph>
    <TTGlyph name="V" xMin="0" yMin="-5" xMax="638" yMax="690">
      <contour>
        <pt x="246" y="-5" on="1"/>
        <pt x="56" y="573" on="1"/>
        <pt x="13" y="589" on="0"/>
        <pt x="0" y="607" on="1"/>
        <pt x="10" y="690" on="1"/>
        <pt x="244" y="690" on="1"/>
        <pt x="254" y="607" on="1"/>
        <pt x="240" y="588" on="0"/>
        <pt x="203" y="575" on="1"/>
        <pt x="288" y="279" on="1"/>
        <pt x="309" y="210" on="0"/>
        <pt x="314" y="152" on="1"/>
        <pt x="315" y="135" on="1"/>
        <pt x="329" y="135" on="1"/>
        <pt x="330" y="196" on="0"/>
        <pt x="354" y="277" on="1"/>
        <pt x="443" y="574" on="1"/>
        <pt x="405" y="587" on="0"/>
        <pt x="390" y="607" on="1"/>
        <pt x="400" y="690" on="1"/>
        <pt x="628" y="690" on="1"/>
        <pt x="638" y="607" on="1"/>
        <pt x="620" y="585" on="0"/>
        <pt x="571" y="569" on="1"/>
        <pt x="383" y="-5" on="1"/>
      </contour>
    </TTGlyph>
    <TTGlyph name="W" xMin="3" yMin="-5" xMax="988" yMax="690">
      <contour>
        <pt x="456" y="374" on="1"/>
        <pt x="372" y="-5" on="1"/>
        <pt x="218" y="-5" on="1"/>
        <pt x="58" y="573" on="1"/>
        <pt x="17" y="588" on="0"/>
        <pt x="3" y="607" on="1"/>
        <pt x="13" y="690" on="1"/>
        <pt x="244" y="690" on="1"/>
        <pt x="254" y="607" on="1"/>
        <pt x="237" y="587" on="0"/>
        <pt x="200" y="574" on="1"/>
        <pt x="271" y="279" on="1"/>
        <pt x="287" y="215" on="0"/>
        <pt x="296" y="152" on="1"/>
        <pt x="298" y="135" on="1"/>
        <pt x="312" y="135" on="1"/>
        <pt x="313" y="194" on="0"/>
        <pt x="331" y="277" on="1"/>
        <pt x="421" y="683" on="1"/>
        <pt x="574" y="683" on="1"/>
        <pt x="664" y="279" on="1"/>
        <pt x="680" y="206" on="0"/>
        <pt x="686" y="152" on="1"/>
        <pt x="688" y="134" on="1"/>
        <pt x="702" y="134" on="1"/>
        <pt x="704" y="195" on="0"/>
        <pt x="726" y="277" on="1"/>
        <pt x="805" y="570" on="1"/>
        <pt x="763" y="585" on="0"/>
        <pt x="747" y="607" on="1"/>
        <pt x="757" y="690" on="1"/>
        <pt x="978" y="690" on="1"/>
        <pt x="988" y="607" on="1"/>
        <pt x="969" y="583" on="0"/>
        <pt x="921" y="568" on="1"/>
        <pt x="753" y="-5" on="1"/>
        <pt x="596" y="-5" on="1"/>
        <pt x="515" y="373" on="1"/>
        <pt x="501" y="441" on="0"/>
        <pt x="494" y="506" on="1"/>
        <pt x="492" y="526" on="1"/>
        <pt x="478" y="526" on="1"/>
        <pt x="474" y="457" on="0"/>
      </contour>
    </TTGlyph>
    <TTGlyph name="X" xMin="1" yMin="0" xMax="590" yMax="690">
      <contour>
        <pt x="317" y="423" on="1"/>
        <pt x="323" y="447" on="0"/>
        <pt x="353" y="503" on="1"/>
        <pt x="391" y="575" on="1"/>
        <pt x="356" y="590" on="0"/>
        <pt x="342" y="607" on="1"/>
        <pt x="352" y="690" on="1"/>
        <pt x="580" y="690" on="1"/>
        <pt x="590" y="607" on="1"/>
        <pt x="572" y="585" on="0"/>
        <pt x="523" y="569" on="1"/>
        <pt x="393" y="359" on="1"/>
        <pt x="528" y="118" on="1"/>
        <pt x="572" y="103" on="0"/>
        <pt x="589" y="83" on="1"/>
        <pt x="579" y="0" on="1"/>
        <pt x="345" y="0" on="1"/>
        <pt x="335" y="83" on="1"/>
        <pt x="347" y="97" on="0"/>
        <pt x="377" y="111" on="1"/>
        <pt x="331" y="209" on="1"/>
        <pt x="306" y="260" on="0"/>
        <pt x="298" y="291" on="1"/>
        <pt x="295" y="302" on="1"/>
        <pt x="280" y="302" on="1"/>
        <pt x="271" y="268" on="0"/>
        <pt x="244" y="211" on="1"/>
        <pt x="199" y="115" on="1"/>
        <pt x="235" y="99" on="0"/>
        <pt x="249" y="83" on="1"/>
        <pt x="239" y="0" on="1"/>
        <pt x="11" y="0" on="1"/>
        <pt x="1" y="83" on="1"/>
        <pt x="19" y="105" on="0"/>
        <pt x="68" y="121" on="1"/>
        <pt x="204" y="360" on="1"/>
        <pt x="74" y="571" on="1"/>
        <pt x="27" y="587" on="0"/>
        <pt x="12" y="607" on="1"/>
        <pt x="22" y="690" on="1"/>
        <pt x="256" y="690" on="1"/>
        <pt x="266" y="607" on="1"/>
        <pt x="253" y="591" on="0"/>
        <pt x="226" y="580" on="1"/>
        <pt x="266" y="505" on="1"/>
        <pt x="292" y="455" on="0"/>
        <pt x="302" y="423" on="1"/>
      </contour>
    </TTGlyph>
    <TTGlyph name="Y" xMin="-4" yMin="0" xMax="591" yMax="690">
      <contour>
        <pt x="412" y="0" on="1"/>
        <pt x="178" y="0" on="1"/>
        <pt x="168" y="83" on="1"/>
        <pt x="181" y="100" on="0"/>
        <pt x="223" y="116" on="1"/>
        <pt x="223" y="231" on="1"/>
        <pt x="60" y="570" on="1"/>
        <pt x="13" y="586" on="0"/>
        <pt x="-4" y="607" on="1"/>
        <pt x="5" y="685" on="1"/>
        <pt x="5" y="686" on="1"/>
        <pt x="6" y="690" on="1"/>
        <pt x="240" y="690" on="1"/>
        <pt x="250" y="607" on="1"/>
        <pt x="238" y="590" on="0"/>
        <pt x="204" y="577" on="1"/>
        <pt x="238" y="500" on="1"/>
        <pt x="267" y="434" on="0"/>
        <pt x="288" y="369" on="1"/>
        <pt x="295" y="349" on="1"/>
        <pt x="310" y="349" on="1"/>
        <pt x="331" y="422" on="0"/>
        <pt x="365" y="500" on="1"/>
        <pt x="397" y="573" on="1"/>
        <pt x="357" y="589" on="0"/>
        <pt x="343" y="607" on="1"/>
        <pt x="353" y="690" on="1"/>
        <pt x="581" y="690" on="1"/>
        <pt x="591" y="607" on="1"/>
        <pt x="571" y="584" on="0"/>
        <pt x="525" y="569" on="1"/>
        <pt x="367" y="231" on="1"/>
        <pt x="367" y="116" on="1"/>
        <pt x="407" y="100" on="0"/>
        <pt x="422" y="83" on="1"/>
      </contour>
    </TTGlyph>
    <TTGlyph name="Yacute" xMin="-4" yMin="0" xMax="591" yMax="972">
      <contour>
        <pt x="288" y="756" on="1"/>
        <pt x="234" y="787" on="1"/>
        <pt x="240" y="831" on="0"/>
        <pt x="289" y="943" on="0"/>
        <pt x="318" y="972" on="1"/>
        <pt x="422" y="908" on="1"/>
        <pt x="408" y="869" on="0"/>
        <pt x="330" y="782" on="0"/>
      </contour>
      <contour>
        <pt x="412" y="0" on="1"/>
        <pt x="178" y="0" on="1"/>
        <pt x="168" y="83" on="1"/>
        <pt x="181" y="100" on="0"/>
        <pt x="223" y="116" on="1"/>
        <pt x="223" y="231" on="1"/>
        <pt x="60" y="570" on="1"/>
        <pt x="13" y="586" on="0"/>
        <pt x="-4" y="607" on="1"/>
        <pt x="5" y="685" on="1"/>
        <pt x="5" y="686" on="1"/>
        <pt x="6" y="690" on="1"/>
        <pt x="240" y="690" on="1"/>
        <pt x="250" y="607" on="1"/>
        <pt x="238" y="590" on="0"/>
        <pt x="204" y="577" on="1"/>
        <pt x="238" y="500" on="1"/>
        <pt x="267" y="434" on="0"/>
        <pt x="288" y="369" on="1"/>
        <pt x="295" y="349" on="1"/>
        <pt x="310" y="349" on="1"/>
        <pt x="331" y="422" on="0"/>
        <pt x="365" y="500" on="1"/>
        <pt x="397" y="573" on="1"/>
        <pt x="357" y="589" on="0"/>
        <pt x="343" y="607" on="1"/>
        <pt x="353" y="690" on="1"/>
        <pt x="581" y="690" on="1"/>
        <pt x="591" y="607" on="1"/>
        <pt x="571" y="584" on="0"/>
        <pt x="525" y="569" on="1"/>
        <pt x="367" y="231" on="1"/>
        <pt x="367" y="116" on="1"/>
        <pt x="407" y="100" on="0"/>
        <pt x="422" y="83" on="1"/>
      </contour>
    </TTGlyph>
    <TTGlyph name="Ydieresis" xMin="-4" yMin="0" xMax="591" yMax="894">
      <contour>
        <pt x="97" y="818" on="1"/>
        <pt x="97" y="894" on="0"/>
        <pt x="260" y="894" on="0"/>
        <pt x="260" y="743" on="0"/>
        <pt x="178" y="743" on="1"/>
        <pt x="138" y="743" on="0"/>
        <pt x="97" y="777" on="0"/>
      </contour>
      <contour>
        <pt x="337" y="818" on="1"/>
        <pt x="337" y="894" on="0"/>
        <pt x="500" y="894" on="0"/>
        <pt x="500" y="743" on="0"/>
        <pt x="418" y="743" on="1"/>
        <pt x="378" y="743" on="0"/>
        <pt x="337" y="777" on="0"/>
      </contour>
      <contour>
        <pt x="412" y="0" on="1"/>
        <pt x="178" y="0" on="1"/>
        <pt x="168" y="83" on="1"/>
        <pt x="181" y="100" on="0"/>
        <pt x="223" y="116" on="1"/>
        <pt x="223" y="231" on="1"/>
        <pt x="60" y="570" on="1"/>
        <pt x="13" y="586" on="0"/>
        <pt x="-4" y="607" on="1"/>
        <pt x="5" y="685" on="1"/>
        <pt x="5" y="686" on="1"/>
        <pt x="6" y="690" on="1"/>
        <pt x="240" y="690" on="1"/>
        <pt x="250" y="607" on="1"/>
        <pt x="238" y="590" on="0"/>
        <pt x="204" y="577" on="1"/>
        <pt x="238" y="500" on="1"/>
        <pt x="267" y="434" on="0"/>
        <pt x="288" y="369" on="1"/>
        <pt x="295" y="349" on="1"/>
        <pt x="310" y="349" on="1"/>
        <pt x="331" y="422" on="0"/>
        <pt x="365" y="500" on="1"/>
        <pt x="397" y="573" on="1"/>
        <pt x="357" y="589" on="0"/>
        <pt x="343" y="607" on="1"/>
        <pt x="353" y="690" on="1"/>
        <pt x="581" y="690" on="1"/>
        <pt x="591" y="607" on="1"/>
        <pt x="571" y="584" on="0"/>
        <pt x="525" y="569" on="1"/>
        <pt x="367" y="231" on="1"/>
        <pt x="367" y="116" on="1"/>
        <pt x="407" y="100" on="0"/>
        <pt x="422" y="83" on="1"/>
      </contour>
    </TTGlyph>
    <TTGlyph name="Z" xMin="15" yMin="0" xMax="548" yMax="690">
      <contour>
        <pt x="269" y="590" on="1"/>
        <pt x="176" y="590" on="1"/>
        <pt x="169" y="535" on="0"/>
        <pt x="151" y="504" on="1"/>
        <pt x="56" y="510" on="1"/>
        <pt x="34" y="548" on="0"/>
        <pt x="34" y="628" on="1"/>
        <pt x="34" y="662" on="0"/>
        <pt x="41" y="690" on="1"/>
        <pt x="528" y="690" on="1"/>
        <pt x="538" y="611" on="1"/>
        <pt x="248" y="176" on="1"/>
        <pt x="221" y="134" on="0"/>
        <pt x="192" y="110" on="1"/>
        <pt x="181" y="102" on="1"/>
        <pt x="186" y="91" on="1"/>
        <pt x="232" y="100" on="0"/>
        <pt x="284" y="100" on="1"/>
        <pt x="406" y="100" on="1"/>
        <pt x="413" y="155" on="0"/>
        <pt x="431" y="186" on="1"/>
        <pt x="526" y="180" on="1"/>
        <pt x="548" y="142" on="0"/>
        <pt x="548" y="62" on="1"/>
        <pt x="548" y="28" on="0"/>
        <pt x="541" y="0" on="1"/>
        <pt x="25" y="0" on="1"/>
        <pt x="15" y="79" on="1"/>
        <pt x="305" y="514" on="1"/>
        <pt x="332" y="556" on="0"/>
        <pt x="362" y="580" on="1"/>
        <pt x="372" y="588" on="1"/>
        <pt x="367" y="599" on="1"/>
        <pt x="321" y="590" on="0"/>
      </contour>
    </TTGlyph>
    <TTGlyph name="Zcaron" xMin="15" yMin="0" xMax="548" yMax="956">
      <contour>
        <pt x="423" y="956" on="1"/>
        <pt x="459" y="915" on="1"/>
        <pt x="446" y="880" on="0"/>
        <pt x="344" y="771" on="0"/>
        <pt x="299" y="741" on="1"/>
        <pt x="254" y="771" on="0"/>
        <pt x="152" y="880" on="0"/>
        <pt x="139" y="915" on="1"/>
        <pt x="175" y="956" on="1"/>
        <pt x="224" y="940" on="0"/>
        <pt x="299" y="876" on="1"/>
        <pt x="374" y="940" on="0"/>
      </contour>
      <contour>
        <pt x="269" y="590" on="1"/>
        <pt x="176" y="590" on="1"/>
        <pt x="169" y="535" on="0"/>
        <pt x="151" y="504" on="1"/>
        <pt x="56" y="510" on="1"/>
        <pt x="34" y="548" on="0"/>
        <pt x="34" y="628" on="1"/>
        <pt x="34" y="662" on="0"/>
        <pt x="41" y="690" on="1"/>
        <pt x="528" y="690" on="1"/>
        <pt x="538" y="611" on="1"/>
        <pt x="248" y="176" on="1"/>
        <pt x="221" y="134" on="0"/>
        <pt x="192" y="110" on="1"/>
        <pt x="181" y="102" on="1"/>
        <pt x="186" y="91" on="1"/>
        <pt x="232" y="100" on="0"/>
        <pt x="284" y="100" on="1"/>
        <pt x="406" y="100" on="1"/>
        <pt x="413" y="155" on="0"/>
        <pt x="431" y="186" on="1"/>
        <pt x="526" y="180" on="1"/>
        <pt x="548" y="142" on="0"/>
        <pt x="548" y="62" on="1"/>
        <pt x="548" y="28" on="0"/>
        <pt x="541" y="0" on="1"/>
        <pt x="25" y="0" on="1"/>
        <pt x="15" y="79" on="1"/>
        <pt x="305" y="514" on="1"/>
        <pt x="332" y="556" on="0"/>
        <pt x="362" y="580" on="1"/>
        <pt x="372" y="588" on="1"/>
        <pt x="367" y="599" on="1"/>
        <pt x="321" y="590" on="0"/>
      </contour>
    </TTGlyph>
    <TTGlyph name="a" xMin="21" yMin="-8" xMax="502" yMax="508">
      <contour>
        <pt x="46" y="426" on="1"/>
        <pt x="46" y="441" on="0"/>
        <pt x="47" y="458" on="1"/>
        <pt x="140" y="508" on="0"/>
        <pt x="354" y="508" on="0"/>
        <pt x="447" y="427" on="0"/>
        <pt x="447" y="333" on="1"/>
        <pt x="447" y="120" on="1"/>
        <pt x="482" y="113" on="0"/>
        <pt x="502" y="103" on="1"/>
        <pt x="502" y="16" on="1"/>
        <pt x="451" y="-8" on="0"/>
        <pt x="356" y="-8" on="1"/>
        <pt x="346" y="18" on="0"/>
        <pt x="339" y="55" on="1"/>
        <pt x="296" y="-8" on="0"/>
        <pt x="183" y="-8" on="1"/>
        <pt x="116" y="-8" on="0"/>
        <pt x="21" y="70" on="0"/>
        <pt x="21" y="204" on="0"/>
        <pt x="110" y="281" on="0"/>
        <pt x="198" y="281" on="1"/>
        <pt x="307" y="281" on="1"/>
        <pt x="307" y="329" on="1"/>
        <pt x="307" y="407" on="0"/>
        <pt x="224" y="407" on="1"/>
        <pt x="193" y="407" on="0"/>
        <pt x="173" y="401" on="1"/>
        <pt x="171" y="359" on="0"/>
        <pt x="161" y="336" on="1"/>
        <pt x="63" y="336" on="1"/>
        <pt x="46" y="371" on="0"/>
      </contour>
      <contour>
        <pt x="226" y="94" on="1"/>
        <pt x="277" y="94" on="0"/>
        <pt x="307" y="124" on="1"/>
        <pt x="307" y="206" on="1"/>
        <pt x="237" y="206" on="1"/>
        <pt x="165" y="206" on="0"/>
        <pt x="165" y="151" on="1"/>
        <pt x="165" y="126" on="0"/>
        <pt x="196" y="94" on="0"/>
      </contour>
    </TTGlyph>
    <TTGlyph name="aacute" xMin="21" yMin="-8" xMax="502" yMax="796">
      <contour>
        <pt x="46" y="426" on="1"/>
        <pt x="46" y="441" on="0"/>
        <pt x="47" y="458" on="1"/>
        <pt x="140" y="508" on="0"/>
        <pt x="354" y="508" on="0"/>
        <pt x="447" y="427" on="0"/>
        <pt x="447" y="333" on="1"/>
        <pt x="447" y="120" on="1"/>
        <pt x="482" y="113" on="0"/>
        <pt x="502" y="103" on="1"/>
        <pt x="502" y="16" on="1"/>
        <pt x="451" y="-8" on="0"/>
        <pt x="356" y="-8" on="1"/>
        <pt x="346" y="18" on="0"/>
        <pt x="339" y="55" on="1"/>
        <pt x="296" y="-8" on="0"/>
        <pt x="183" y="-8" on="1"/>
        <pt x="116" y="-8" on="0"/>
        <pt x="21" y="70" on="0"/>
        <pt x="21" y="204" on="0"/>
        <pt x="110" y="281" on="0"/>
        <pt x="198" y="281" on="1"/>
        <pt x="307" y="281" on="1"/>
        <pt x="307" y="329" on="1"/>
        <pt x="307" y="407" on="0"/>
        <pt x="224" y="407" on="1"/>
        <pt x="193" y="407" on="0"/>
        <pt x="173" y="401" on="1"/>
        <pt x="171" y="359" on="0"/>
        <pt x="161" y="336" on="1"/>
        <pt x="63" y="336" on="1"/>
        <pt x="46" y="371" on="0"/>
      </contour>
      <contour>
        <pt x="226" y="94" on="1"/>
        <pt x="277" y="94" on="0"/>
        <pt x="307" y="124" on="1"/>
        <pt x="307" y="206" on="1"/>
        <pt x="237" y="206" on="1"/>
        <pt x="165" y="206" on="0"/>
        <pt x="165" y="151" on="1"/>
        <pt x="165" y="126" on="0"/>
        <pt x="196" y="94" on="0"/>
      </contour>
      <contour>
        <pt x="223" y="569" on="1"/>
        <pt x="169" y="600" on="1"/>
        <pt x="175" y="644" on="0"/>
        <pt x="231" y="767" on="0"/>
        <pt x="260" y="796" on="1"/>
        <pt x="364" y="732" on="1"/>
        <pt x="350" y="692" on="0"/>
        <pt x="264" y="595" on="0"/>
      </contour>
    </TTGlyph>
    <TTGlyph name="acircumflex" xMin="21" yMin="-8" xMax="502" yMax="784">
      <contour>
        <pt x="46" y="426" on="1"/>
        <pt x="46" y="441" on="0"/>
        <pt x="47" y="458" on="1"/>
        <pt x="140" y="508" on="0"/>
        <pt x="354" y="508" on="0"/>
        <pt x="447" y="427" on="0"/>
        <pt x="447" y="333" on="1"/>
        <pt x="447" y="120" on="1"/>
        <pt x="482" y="113" on="0"/>
        <pt x="502" y="103" on="1"/>
        <pt x="502" y="16" on="1"/>
        <pt x="451" y="-8" on="0"/>
        <pt x="356" y="-8" on="1"/>
        <pt x="346" y="18" on="0"/>
        <pt x="339" y="55" on="1"/>
        <pt x="296" y="-8" on="0"/>
        <pt x="183" y="-8" on="1"/>
        <pt x="116" y="-8" on="0"/>
        <pt x="21" y="70" on="0"/>
        <pt x="21" y="204" on="0"/>
        <pt x="110" y="281" on="0"/>
        <pt x="198" y="281" on="1"/>
        <pt x="307" y="281" on="1"/>
        <pt x="307" y="329" on="1"/>
        <pt x="307" y="407" on="0"/>
        <pt x="224" y="407" on="1"/>
        <pt x="193" y="407" on="0"/>
        <pt x="173" y="401" on="1"/>
        <pt x="171" y="359" on="0"/>
        <pt x="161" y="336" on="1"/>
        <pt x="63" y="336" on="1"/>
        <pt x="46" y="371" on="0"/>
      </contour>
      <contour>
        <pt x="226" y="94" on="1"/>
        <pt x="277" y="94" on="0"/>
        <pt x="307" y="124" on="1"/>
        <pt x="307" y="206" on="1"/>
        <pt x="237" y="206" on="1"/>
        <pt x="165" y="206" on="0"/>
        <pt x="165" y="151" on="1"/>
        <pt x="165" y="126" on="0"/>
        <pt x="196" y="94" on="0"/>
      </contour>
      <contour>
        <pt x="427" y="610" on="1"/>
        <pt x="391" y="569" on="1"/>
        <pt x="345" y="582" on="0"/>
        <pt x="267" y="649" on="1"/>
        <pt x="189" y="582" on="0"/>
        <pt x="143" y="569" on="1"/>
        <pt x="107" y="610" on="1"/>
        <pt x="120" y="645" on="0"/>
        <pt x="222" y="754" on="0"/>
        <pt x="267" y="784" on="1"/>
        <pt x="312" y="754" on="0"/>
        <pt x="414" y="645" on="0"/>
      </contour>
    </TTGlyph>
    <TTGlyph name="acute" xMin="184" yMin="569" xMax="379" yMax="796">
      <contour>
        <pt x="238" y="569" on="1"/>
        <pt x="184" y="600" on="1"/>
        <pt x="190" y="644" on="0"/>
        <pt x="246" y="767" on="0"/>
        <pt x="275" y="796" on="1"/>
        <pt x="379" y="732" on="1"/>
        <pt x="365" y="692" on="0"/>
        <pt x="279" y="595" on="0"/>
      </contour>
    </TTGlyph>
    <TTGlyph name="adieresis" xMin="21" yMin="-8" xMax="502" yMax="775">
      <contour>
        <pt x="46" y="426" on="1"/>
        <pt x="46" y="441" on="0"/>
        <pt x="47" y="458" on="1"/>
        <pt x="140" y="508" on="0"/>
        <pt x="354" y="508" on="0"/>
        <pt x="447" y="427" on="0"/>
        <pt x="447" y="333" on="1"/>
        <pt x="447" y="120" on="1"/>
        <pt x="482" y="113" on="0"/>
        <pt x="502" y="103" on="1"/>
        <pt x="502" y="16" on="1"/>
        <pt x="451" y="-8" on="0"/>
        <pt x="356" y="-8" on="1"/>
        <pt x="346" y="18" on="0"/>
        <pt x="339" y="55" on="1"/>
        <pt x="296" y="-8" on="0"/>
        <pt x="183" y="-8" on="1"/>
        <pt x="116" y="-8" on="0"/>
        <pt x="21" y="70" on="0"/>
        <pt x="21" y="204" on="0"/>
        <pt x="110" y="281" on="0"/>
        <pt x="198" y="281" on="1"/>
        <pt x="307" y="281" on="1"/>
        <pt x="307" y="329" on="1"/>
        <pt x="307" y="407" on="0"/>
        <pt x="224" y="407" on="1"/>
        <pt x="193" y="407" on="0"/>
        <pt x="173" y="401" on="1"/>
        <pt x="171" y="359" on="0"/>
        <pt x="161" y="336" on="1"/>
        <pt x="63" y="336" on="1"/>
        <pt x="46" y="371" on="0"/>
      </contour>
      <contour>
        <pt x="226" y="94" on="1"/>
        <pt x="277" y="94" on="0"/>
        <pt x="307" y="124" on="1"/>
        <pt x="307" y="206" on="1"/>
        <pt x="237" y="206" on="1"/>
        <pt x="165" y="206" on="0"/>
        <pt x="165" y="151" on="1"/>
        <pt x="165" y="126" on="0"/>
        <pt x="196" y="94" on="0"/>
      </contour>
      <contour>
        <pt x="47" y="699" on="1"/>
        <pt x="47" y="775" on="0"/>
        <pt x="210" y="775" on="0"/>
        <pt x="210" y="624" on="0"/>
        <pt x="128" y="624" on="1"/>
        <pt x="88" y="624" on="0"/>
        <pt x="47" y="658" on="0"/>
      </contour>
      <contour>
        <pt x="287" y="699" on="1"/>
        <pt x="287" y="775" on="0"/>
        <pt x="450" y="775" on="0"/>
        <pt x="450" y="624" on="0"/>
        <pt x="368" y="624" on="1"/>
        <pt x="328" y="624" on="0"/>
        <pt x="287" y="658" on="0"/>
      </contour>
    </TTGlyph>
    <TTGlyph name="ae" xMin="22" yMin="-8" xMax="739" yMax="508">
      <contour>
        <pt x="47" y="435" on="1"/>
        <pt x="47" y="446" on="0"/>
        <pt x="48" y="458" on="1"/>
        <pt x="87" y="479" on="0"/>
        <pt x="207" y="508" on="0"/>
        <pt x="260" y="508" on="1"/>
        <pt x="357" y="508" on="0"/>
        <pt x="403" y="466" on="1"/>
        <pt x="463" y="508" on="0"/>
        <pt x="646" y="508" on="0"/>
        <pt x="739" y="417" on="0"/>
        <pt x="739" y="290" on="1"/>
        <pt x="739" y="266" on="1"/>
        <pt x="739" y="245" on="0"/>
        <pt x="716" y="220" on="0"/>
        <pt x="697" y="220" on="1"/>
        <pt x="453" y="220" on="1"/>
        <pt x="462" y="99" on="0"/>
        <pt x="558" y="99" on="1"/>
        <pt x="635" y="99" on="0"/>
        <pt x="701" y="125" on="1"/>
        <pt x="735" y="52" on="1"/>
        <pt x="654" y="-8" on="0"/>
        <pt x="427" y="-8" on="0"/>
        <pt x="369" y="50" on="1"/>
        <pt x="293" y="-8" on="0"/>
        <pt x="175" y="-8" on="1"/>
        <pt x="110" y="-8" on="0"/>
        <pt x="22" y="63" on="0"/>
        <pt x="22" y="132" on="1"/>
        <pt x="22" y="219" on="0"/>
        <pt x="142" y="274" on="0"/>
        <pt x="287" y="274" on="1"/>
        <pt x="297" y="274" on="0"/>
        <pt x="308" y="274" on="1"/>
        <pt x="308" y="296" on="1"/>
        <pt x="308" y="361" on="0"/>
        <pt x="270" y="407" on="0"/>
        <pt x="225" y="407" on="1"/>
        <pt x="200" y="407" on="0"/>
        <pt x="173" y="399" on="1"/>
        <pt x="170" y="362" on="0"/>
        <pt x="156" y="336" on="1"/>
        <pt x="68" y="336" on="1"/>
        <pt x="47" y="378" on="0"/>
      </contour>
      <contour>
        <pt x="166" y="142" on="1"/>
        <pt x="166" y="95" on="0"/>
        <pt x="266" y="95" on="0"/>
        <pt x="308" y="118" on="1"/>
        <pt x="308" y="192" on="1"/>
        <pt x="300" y="192" on="0"/>
        <pt x="292" y="192" on="1"/>
        <pt x="216" y="192" on="0"/>
        <pt x="166" y="173" on="0"/>
      </contour>
      <contour>
        <pt x="548" y="406" on="1"/>
        <pt x="468" y="406" on="0"/>
        <pt x="456" y="303" on="1"/>
        <pt x="601" y="312" on="1"/>
        <pt x="601" y="406" on="0"/>
      </contour>
    </TTGlyph>
    <TTGlyph name="agrave" xMin="21" yMin="-8" xMax="502" yMax="796">
      <contour>
        <pt x="46" y="426" on="1"/>
        <pt x="46" y="441" on="0"/>
        <pt x="47" y="458" on="1"/>
        <pt x="140" y="508" on="0"/>
        <pt x="354" y="508" on="0"/>
        <pt x="447" y="427" on="0"/>
        <pt x="447" y="333" on="1"/>
        <pt x="447" y="120" on="1"/>
        <pt x="482" y="113" on="0"/>
        <pt x="502" y="103" on="1"/>
        <pt x="502" y="16" on="1"/>
        <pt x="451" y="-8" on="0"/>
        <pt x="356" y="-8" on="1"/>
        <pt x="346" y="18" on="0"/>
        <pt x="339" y="55" on="1"/>
        <pt x="296" y="-8" on="0"/>
        <pt x="183" y="-8" on="1"/>
        <pt x="116" y="-8" on="0"/>
        <pt x="21" y="70" on="0"/>
        <pt x="21" y="204" on="0"/>
        <pt x="110" y="281" on="0"/>
        <pt x="198" y="281" on="1"/>
        <pt x="307" y="281" on="1"/>
        <pt x="307" y="329" on="1"/>
        <pt x="307" y="407" on="0"/>
        <pt x="224" y="407" on="1"/>
        <pt x="193" y="407" on="0"/>
        <pt x="173" y="401" on="1"/>
        <pt x="171" y="359" on="0"/>
        <pt x="161" y="336" on="1"/>
        <pt x="63" y="336" on="1"/>
        <pt x="46" y="371" on="0"/>
      </contour>
      <contour>
        <pt x="226" y="94" on="1"/>
        <pt x="277" y="94" on="0"/>
        <pt x="307" y="124" on="1"/>
        <pt x="307" y="206" on="1"/>
        <pt x="237" y="206" on="1"/>
        <pt x="165" y="206" on="0"/>
        <pt x="165" y="151" on="1"/>
        <pt x="165" y="126" on="0"/>
        <pt x="196" y="94" on="0"/>
      </contour>
      <contour>
        <pt x="313" y="600" on="1"/>
        <pt x="259" y="569" on="1"/>
        <pt x="218" y="595" on="0"/>
        <pt x="132" y="692" on="0"/>
        <pt x="118" y="732" on="1"/>
        <pt x="222" y="796" on="1"/>
        <pt x="251" y="767" on="0"/>
        <pt x="307" y="644" on="0"/>
      </contour>
    </TTGlyph>
    <TTGlyph name="ampersand" xMin="29" yMin="-8" xMax="582" yMax="698">
      <contour>
        <pt x="361" y="698" on="0"/>
        <pt x="437" y="607" on="0"/>
        <pt x="437" y="483" on="0"/>
        <pt x="368" y="403" on="0"/>
        <pt x="290" y="345" on="1"/>
        <pt x="336" y="277" on="0"/>
        <pt x="432" y="203" on="1"/>
        <pt x="461" y="233" on="0"/>
        <pt x="476" y="286" on="1"/>
        <pt x="566" y="254" on="1"/>
        <pt x="549" y="188" on="0"/>
        <pt x="506" y="134" on="1"/>
        <pt x="519" y="122" on="0"/>
        <pt x="577" y="81" on="0"/>
        <pt x="582" y="77" on="1"/>
        <pt x="526" y="-8" on="1"/>
        <pt x="469" y="22" on="0"/>
        <pt x="425" y="59" on="1"/>
        <pt x="332" y="-8" on="0"/>
        <pt x="142" y="-8" on="0"/>
        <pt x="29" y="82" on="0"/>
        <pt x="29" y="166" on="1"/>
        <pt x="29" y="263" on="0"/>
        <pt x="147" y="351" on="1"/>
        <pt x="72" y="448" on="0"/>
        <pt x="72" y="609" on="0"/>
        <pt x="174" y="698" on="0"/>
      </contour>
      <contour>
        <pt x="329" y="530" on="1"/>
        <pt x="329" y="609" on="0"/>
        <pt x="269" y="609" on="1"/>
        <pt x="194" y="609" on="0"/>
        <pt x="194" y="530" on="1"/>
        <pt x="194" y="471" on="0"/>
        <pt x="237" y="412" on="1"/>
        <pt x="329" y="474" on="0"/>
      </contour>
      <contour>
        <pt x="205" y="272" on="1"/>
        <pt x="166" y="233" on="0"/>
        <pt x="166" y="184" on="1"/>
        <pt x="166" y="93" on="0"/>
        <pt x="274" y="93" on="1"/>
        <pt x="326" y="93" on="0"/>
        <pt x="350" y="123" on="1"/>
        <pt x="239" y="222" on="0"/>
      </contour>
    </TTGlyph>
    <TTGlyph name="aring" xMin="21" yMin="-8" xMax="502" yMax="796">
      <contour>
        <pt x="46" y="426" on="1"/>
        <pt x="46" y="441" on="0"/>
        <pt x="47" y="458" on="1"/>
        <pt x="140" y="508" on="0"/>
        <pt x="354" y="508" on="0"/>
        <pt x="447" y="427" on="0"/>
        <pt x="447" y="333" on="1"/>
        <pt x="447" y="120" on="1"/>
        <pt x="482" y="113" on="0"/>
        <pt x="502" y="103" on="1"/>
        <pt x="502" y="16" on="1"/>
        <pt x="451" y="-8" on="0"/>
        <pt x="356" y="-8" on="1"/>
        <pt x="346" y="18" on="0"/>
        <pt x="339" y="55" on="1"/>
        <pt x="296" y="-8" on="0"/>
        <pt x="183" y="-8" on="1"/>
        <pt x="116" y="-8" on="0"/>
        <pt x="21" y="70" on="0"/>
        <pt x="21" y="204" on="0"/>
        <pt x="110" y="281" on="0"/>
        <pt x="198" y="281" on="1"/>
        <pt x="307" y="281" on="1"/>
        <pt x="307" y="329" on="1"/>
        <pt x="307" y="407" on="0"/>
        <pt x="224" y="407" on="1"/>
        <pt x="193" y="407" on="0"/>
        <pt x="173" y="401" on="1"/>
        <pt x="171" y="359" on="0"/>
        <pt x="161" y="336" on="1"/>
        <pt x="63" y="336" on="1"/>
        <pt x="46" y="371" on="0"/>
      </contour>
      <contour>
        <pt x="226" y="94" on="1"/>
        <pt x="277" y="94" on="0"/>
        <pt x="307" y="124" on="1"/>
        <pt x="307" y="206" on="1"/>
        <pt x="237" y="206" on="1"/>
        <pt x="165" y="206" on="0"/>
        <pt x="165" y="151" on="1"/>
        <pt x="165" y="126" on="0"/>
        <pt x="196" y="94" on="0"/>
      </contour>
      <contour>
        <pt x="192" y="581" on="0"/>
        <pt x="129" y="629" on="0"/>
        <pt x="129" y="747" on="0"/>
        <pt x="193" y="796" on="0"/>
        <pt x="251" y="796" on="1"/>
        <pt x="376" y="796" on="0"/>
        <pt x="376" y="687" on="1"/>
        <pt x="376" y="581" on="0"/>
        <pt x="251" y="581" on="1"/>
      </contour>
      <contour>
        <pt x="194" y="688" on="1"/>
        <pt x="194" y="637" on="0"/>
        <pt x="311" y="637" on="0"/>
        <pt x="311" y="688" on="1"/>
        <pt x="311" y="741" on="0"/>
        <pt x="194" y="741" on="0"/>
      </contour>
    </TTGlyph>
    <TTGlyph name="asciicircum" xMin="95" yMin="569" xMax="429" yMax="837">
      <contour>
        <pt x="262" y="695" on="1"/>
        <pt x="209" y="616" on="0"/>
        <pt x="138" y="569" on="1"/>
        <pt x="95" y="604" on="1"/>
        <pt x="108" y="649" on="0"/>
        <pt x="217" y="811" on="0"/>
        <pt x="262" y="837" on="1"/>
        <pt x="307" y="811" on="0"/>
        <pt x="416" y="649" on="0"/>
        <pt x="429" y="604" on="1"/>
        <pt x="386" y="569" on="1"/>
        <pt x="315" y="616" on="0"/>
      </contour>
    </TTGlyph>
    <TTGlyph name="asciitilde" xMin="30" yMin="202" xMax="573" yMax="354">
      <contour>
        <pt x="105" y="338" on="0"/>
        <pt x="159" y="354" on="0"/>
        <pt x="229" y="354" on="0"/>
        <pt x="347" y="309" on="0"/>
        <pt x="425" y="309" on="0"/>
        <pt x="492" y="328" on="0"/>
        <pt x="509" y="338" on="1"/>
        <pt x="526" y="348" on="1"/>
        <pt x="573" y="281" on="1"/>
        <pt x="565" y="272" on="0"/>
        <pt x="535" y="246" on="0"/>
        <pt x="439" y="202" on="0"/>
        <pt x="352" y="202" on="0"/>
        <pt x="230" y="247" on="0"/>
        <pt x="198" y="247" on="1"/>
        <pt x="138" y="247" on="0"/>
        <pt x="90" y="222" on="1"/>
        <pt x="74" y="213" on="1"/>
        <pt x="30" y="279" on="1"/>
        <pt x="36" y="288" on="0"/>
        <pt x="72" y="318" on="0"/>
      </contour>
    </TTGlyph>
    <TTGlyph name="asterisk" xMin="28" yMin="342" xMax="386" yMax="722">
      <contour>
        <pt x="251" y="643" on="1"/>
        <pt x="251" y="607" on="1"/>
        <pt x="342" y="660" on="1"/>
        <pt x="378" y="616" on="1"/>
        <pt x="370" y="576" on="0"/>
        <pt x="325" y="550" on="1"/>
        <pt x="294" y="532" on="1"/>
        <pt x="386" y="480" on="1"/>
        <pt x="365" y="427" on="1"/>
        <pt x="351" y="422" on="0"/>
        <pt x="310" y="422" on="0"/>
        <pt x="281" y="439" on="1"/>
        <pt x="251" y="456" on="1"/>
        <pt x="251" y="350" on="1"/>
        <pt x="195" y="342" on="1"/>
        <pt x="163" y="369" on="0"/>
        <pt x="163" y="421" on="1"/>
        <pt x="163" y="456" on="1"/>
        <pt x="71" y="403" on="1"/>
        <pt x="36" y="447" on="1"/>
        <pt x="44" y="488" on="0"/>
        <pt x="89" y="514" on="1"/>
        <pt x="120" y="532" on="1"/>
        <pt x="28" y="586" on="1"/>
        <pt x="48" y="638" on="1"/>
        <pt x="61" y="643" on="0"/>
        <pt x="102" y="643" on="0"/>
        <pt x="132" y="625" on="1"/>
        <pt x="163" y="607" on="1"/>
        <pt x="163" y="714" on="1"/>
        <pt x="219" y="722" on="1"/>
        <pt x="251" y="696" on="0"/>
      </contour>
    </TTGlyph>
    <TTGlyph name="at" xMin="36" yMin="-187" xMax="911" yMax="698">
      <contour>
        <pt x="422" y="-187" on="1"/>
        <pt x="36" y="-187" on="0"/>
        <pt x="36" y="181" on="1"/>
        <pt x="36" y="439" on="0"/>
        <pt x="289" y="698" on="0"/>
        <pt x="522" y="698" on="1"/>
        <pt x="718" y="698" on="0"/>
        <pt x="911" y="523" on="0"/>
        <pt x="911" y="341" on="1"/>
        <pt x="911" y="201" on="0"/>
        <pt x="773" y="16" on="0"/>
        <pt x="647" y="16" on="1"/>
        <pt x="594" y="16" on="0"/>
        <pt x="529" y="55" on="0"/>
        <pt x="522" y="80" on="1"/>
        <pt x="499" y="62" on="0"/>
        <pt x="431" y="38" on="0"/>
        <pt x="407" y="38" on="1"/>
        <pt x="331" y="38" on="0"/>
        <pt x="259" y="115" on="0"/>
        <pt x="259" y="276" on="0"/>
        <pt x="299" y="387" on="0"/>
        <pt x="332" y="416" on="1"/>
        <pt x="394" y="470" on="0"/>
        <pt x="524" y="470" on="0"/>
        <pt x="560" y="439" on="1"/>
        <pt x="575" y="464" on="0"/>
        <pt x="609" y="464" on="1"/>
        <pt x="663" y="464" on="1"/>
        <pt x="632" y="144" on="1"/>
        <pt x="632" y="141" on="0"/>
        <pt x="632" y="139" on="1"/>
        <pt x="632" y="106" on="0"/>
        <pt x="669" y="106" on="1"/>
        <pt x="806" y="106" on="0"/>
        <pt x="806" y="319" on="1"/>
        <pt x="806" y="486" on="0"/>
        <pt x="716" y="556" on="1"/>
        <pt x="633" y="621" on="0"/>
        <pt x="505" y="621" on="1"/>
        <pt x="310" y="621" on="0"/>
        <pt x="216" y="494" on="1"/>
        <pt x="182" y="448" on="0"/>
        <pt x="141" y="299" on="0"/>
        <pt x="141" y="202" on="1"/>
        <pt x="141" y="42" on="0"/>
        <pt x="305" y="-101" on="0"/>
        <pt x="438" y="-101" on="1"/>
        <pt x="549" y="-101" on="0"/>
        <pt x="643" y="-68" on="1"/>
        <pt x="660" y="-137" on="1"/>
        <pt x="552" y="-187" on="0"/>
      </contour>
      <contour>
        <pt x="379" y="165" on="0"/>
        <pt x="408" y="124" on="0"/>
        <pt x="482" y="124" on="0"/>
        <pt x="517" y="156" on="1"/>
        <pt x="537" y="371" on="1"/>
        <pt x="506" y="385" on="0"/>
        <pt x="471" y="385" on="1"/>
        <pt x="379" y="385" on="0"/>
        <pt x="379" y="212" on="1"/>
      </contour>
    </TTGlyph>
    <TTGlyph name="atilde" xMin="21" yMin="-8" xMax="502" yMax="714">
      <contour>
        <pt x="46" y="426" on="1"/>
        <pt x="46" y="441" on="0"/>
        <pt x="47" y="458" on="1"/>
        <pt x="140" y="508" on="0"/>
        <pt x="354" y="508" on="0"/>
        <pt x="447" y="427" on="0"/>
        <pt x="447" y="333" on="1"/>
        <pt x="447" y="120" on="1"/>
        <pt x="482" y="113" on="0"/>
        <pt x="502" y="103" on="1"/>
        <pt x="502" y="16" on="1"/>
        <pt x="451" y="-8" on="0"/>
        <pt x="356" y="-8" on="1"/>
        <pt x="346" y="18" on="0"/>
        <pt x="339" y="55" on="1"/>
        <pt x="296" y="-8" on="0"/>
        <pt x="183" y="-8" on="1"/>
        <pt x="116" y="-8" on="0"/>
        <pt x="21" y="70" on="0"/>
        <pt x="21" y="204" on="0"/>
        <pt x="110" y="281" on="0"/>
        <pt x="198" y="281" on="1"/>
        <pt x="307" y="281" on="1"/>
        <pt x="307" y="329" on="1"/>
        <pt x="307" y="407" on="0"/>
        <pt x="224" y="407" on="1"/>
        <pt x="193" y="407" on="0"/>
        <pt x="173" y="401" on="1"/>
        <pt x="171" y="359" on="0"/>
        <pt x="161" y="336" on="1"/>
        <pt x="63" y="336" on="1"/>
        <pt x="46" y="371" on="0"/>
      </contour>
      <contour>
        <pt x="226" y="94" on="1"/>
        <pt x="277" y="94" on="0"/>
        <pt x="307" y="124" on="1"/>
        <pt x="307" y="206" on="1"/>
        <pt x="237" y="206" on="1"/>
        <pt x="165" y="206" on="0"/>
        <pt x="165" y="151" on="1"/>
        <pt x="165" y="126" on="0"/>
        <pt x="196" y="94" on="0"/>
      </contour>
      <contour>
        <pt x="68" y="678" on="0"/>
        <pt x="131" y="714" on="0"/>
        <pt x="198" y="714" on="0"/>
        <pt x="288" y="686" on="0"/>
        <pt x="318" y="686" on="1"/>
        <pt x="375" y="686" on="0"/>
        <pt x="411" y="707" on="1"/>
        <pt x="423" y="714" on="1"/>
        <pt x="463" y="651" on="1"/>
        <pt x="459" y="645" on="0"/>
        <pt x="424" y="615" on="0"/>
        <pt x="408" y="606" on="1"/>
        <pt x="367" y="582" on="0"/>
        <pt x="293" y="582" on="0"/>
        <pt x="198" y="610" on="0"/>
        <pt x="173" y="610" on="1"/>
        <pt x="130" y="610" on="0"/>
        <pt x="94" y="590" on="1"/>
        <pt x="82" y="583" on="1"/>
        <pt x="44" y="649" on="1"/>
        <pt x="49" y="656" on="0"/>
      </contour>
    </TTGlyph>
    <TTGlyph name="b" xMin="-5" yMin="-8" xMax="510" yMax="723">
      <contour>
        <pt x="5" y="710" on="1"/>
        <pt x="61" y="723" on="0"/>
        <pt x="157" y="723" on="0"/>
        <pt x="190" y="720" on="1"/>
        <pt x="190" y="470" on="1"/>
        <pt x="211" y="485" on="0"/>
        <pt x="281" y="508" on="0"/>
        <pt x="313" y="508" on="1"/>
        <pt x="422" y="508" on="0"/>
        <pt x="510" y="396" on="0"/>
        <pt x="510" y="261" on="1"/>
        <pt x="510" y="186" on="0"/>
        <pt x="469" y="77" on="0"/>
        <pt x="434" y="48" on="1"/>
        <pt x="368" y="-8" on="0"/>
        <pt x="278" y="-8" on="1"/>
        <pt x="210" y="-8" on="0"/>
        <pt x="144" y="26" on="1"/>
        <pt x="125" y="0" on="0"/>
        <pt x="100" y="0" on="1"/>
        <pt x="50" y="0" on="1"/>
        <pt x="50" y="599" on="1"/>
        <pt x="15" y="611" on="0"/>
        <pt x="-5" y="633" on="1"/>
      </contour>
      <contour>
        <pt x="270" y="94" on="1"/>
        <pt x="366" y="94" on="0"/>
        <pt x="366" y="255" on="1"/>
        <pt x="366" y="340" on="0"/>
        <pt x="333" y="401" on="0"/>
        <pt x="292" y="401" on="1"/>
        <pt x="230" y="401" on="0"/>
        <pt x="190" y="368" on="1"/>
        <pt x="190" y="111" on="1"/>
        <pt x="233" y="94" on="0"/>
      </contour>
    </TTGlyph>
    <TTGlyph name="backslash" xMin="28" yMin="-199" xMax="418" yMax="719">
      <contour>
        <pt x="151" y="641" on="1"/>
        <pt x="418" y="-168" on="1"/>
        <pt x="359" y="-199" on="1"/>
        <pt x="344" y="-193" on="0"/>
        <pt x="304" y="-146" on="0"/>
        <pt x="296" y="-121" on="1"/>
        <pt x="28" y="689" on="1"/>
        <pt x="88" y="719" on="1"/>
        <pt x="105" y="712" on="0"/>
        <pt x="143" y="666" on="0"/>
      </contour>
    </TTGlyph>
    <TTGlyph name="bar" xMin="65" yMin="-200" xMax="166" yMax="720">
      <contour>
        <pt x="166" y="626" on="1"/>
        <pt x="166" y="-190" on="1"/>
        <pt x="100" y="-200" on="1"/>
        <pt x="65" y="-165" on="0"/>
        <pt x="65" y="-106" on="1"/>
        <pt x="65" y="710" on="1"/>
        <pt x="131" y="720" on="1"/>
        <pt x="166" y="686" on="0"/>
      </contour>
    </TTGlyph>
    <TTGlyph name="braceleft" xMin="2" yMin="-209" xMax="414" yMax="728">
      <contour>
        <pt x="2" y="211" on="1"/>
        <pt x="2" y="308" on="1"/>
        <pt x="76" y="308" on="0"/>
        <pt x="160" y="361" on="0"/>
        <pt x="160" y="414" on="1"/>
        <pt x="160" y="438" on="0"/>
        <pt x="142" y="547" on="0"/>
        <pt x="142" y="572" on="1"/>
        <pt x="142" y="647" on="0"/>
        <pt x="224" y="728" on="0"/>
        <pt x="283" y="728" on="1"/>
        <pt x="370" y="728" on="0"/>
        <pt x="414" y="700" on="1"/>
        <pt x="404" y="620" on="1"/>
        <pt x="375" y="608" on="0"/>
        <pt x="325" y="608" on="1"/>
        <pt x="287" y="608" on="0"/>
        <pt x="287" y="532" on="1"/>
        <pt x="287" y="505" on="0"/>
        <pt x="301" y="422" on="0"/>
        <pt x="301" y="402" on="1"/>
        <pt x="301" y="342" on="0"/>
        <pt x="234" y="271" on="0"/>
        <pt x="189" y="264" on="1"/>
        <pt x="189" y="256" on="1"/>
        <pt x="234" y="249" on="0"/>
        <pt x="301" y="177" on="0"/>
        <pt x="301" y="117" on="1"/>
        <pt x="301" y="97" on="0"/>
        <pt x="287" y="14" on="0"/>
        <pt x="287" y="-13" on="1"/>
        <pt x="287" y="-89" on="0"/>
        <pt x="325" y="-89" on="1"/>
        <pt x="375" y="-89" on="0"/>
        <pt x="404" y="-101" on="1"/>
        <pt x="414" y="-181" on="1"/>
        <pt x="370" y="-209" on="0"/>
        <pt x="283" y="-209" on="1"/>
        <pt x="224" y="-209" on="0"/>
        <pt x="142" y="-128" on="0"/>
        <pt x="142" y="-53" on="1"/>
        <pt x="142" y="-28" on="0"/>
        <pt x="160" y="81" on="0"/>
        <pt x="160" y="105" on="1"/>
        <pt x="160" y="158" on="0"/>
        <pt x="76" y="211" on="0"/>
      </contour>
    </TTGlyph>
    <TTGlyph name="braceright" xMin="16" yMin="-209" xMax="428" yMax="728">
      <contour>
        <pt x="428" y="308" on="1"/>
        <pt x="428" y="211" on="1"/>
        <pt x="354" y="211" on="0"/>
        <pt x="270" y="158" on="0"/>
        <pt x="270" y="105" on="1"/>
        <pt x="270" y="81" on="0"/>
        <pt x="288" y="-28" on="0"/>
        <pt x="288" y="-53" on="1"/>
        <pt x="288" y="-128" on="0"/>
        <pt x="206" y="-209" on="0"/>
        <pt x="147" y="-209" on="1"/>
        <pt x="60" y="-209" on="0"/>
        <pt x="16" y="-181" on="1"/>
        <pt x="26" y="-101" on="1"/>
        <pt x="55" y="-89" on="0"/>
        <pt x="105" y="-89" on="1"/>
        <pt x="143" y="-89" on="0"/>
        <pt x="143" y="-13" on="1"/>
        <pt x="143" y="14" on="0"/>
        <pt x="129" y="97" on="0"/>
        <pt x="129" y="117" on="1"/>
        <pt x="129" y="177" on="0"/>
        <pt x="196" y="249" on="0"/>
        <pt x="241" y="256" on="1"/>
        <pt x="241" y="264" on="1"/>
        <pt x="196" y="271" on="0"/>
        <pt x="129" y="342" on="0"/>
        <pt x="129" y="402" on="1"/>
        <pt x="129" y="422" on="0"/>
        <pt x="143" y="505" on="0"/>
        <pt x="143" y="532" on="1"/>
        <pt x="143" y="608" on="0"/>
        <pt x="105" y="608" on="1"/>
        <pt x="55" y="608" on="0"/>
        <pt x="26" y="620" on="1"/>
        <pt x="16" y="700" on="1"/>
        <pt x="60" y="728" on="0"/>
        <pt x="147" y="728" on="1"/>
        <pt x="206" y="728" on="0"/>
        <pt x="288" y="647" on="0"/>
        <pt x="288" y="572" on="1"/>
        <pt x="288" y="547" on="0"/>
        <pt x="270" y="438" on="0"/>
        <pt x="270" y="414" on="1"/>
        <pt x="270" y="361" on="0"/>
        <pt x="354" y="308" on="0"/>
      </contour>
    </TTGlyph>
    <TTGlyph name="bracketleft" xMin="67" yMin="-200" xMax="317" yMax="720">
      <contour>
        <pt x="223" y="634" on="1"/>
        <pt x="168" y="634" on="1"/>
        <pt x="168" y="-114" on="1"/>
        <pt x="223" y="-114" on="1"/>
        <pt x="250" y="-114" on="0"/>
        <pt x="297" y="-132" on="0"/>
        <pt x="307" y="-140" on="1"/>
        <pt x="317" y="-149" on="1"/>
        <pt x="307" y="-200" on="1"/>
        <pt x="67" y="-200" on="1"/>
        <pt x="67" y="720" on="1"/>
        <pt x="307" y="720" on="1"/>
        <pt x="317" y="669" on="1"/>
        <pt x="283" y="634" on="0"/>
      </contour>
    </TTGlyph>
    <TTGlyph name="bracketright" xMin="10" yMin="-200" xMax="260" yMax="720">
      <contour>
        <pt x="159" y="634" on="1"/>
        <pt x="104" y="634" on="1"/>
        <pt x="77" y="634" on="0"/>
        <pt x="30" y="651" on="0"/>
        <pt x="20" y="660" on="1"/>
        <pt x="10" y="669" on="1"/>
        <pt x="20" y="720" on="1"/>
        <pt x="260" y="720" on="1"/>
        <pt x="260" y="-200" on="1"/>
        <pt x="20" y="-200" on="1"/>
        <pt x="10" y="-149" on="1"/>
        <pt x="44" y="-114" on="0"/>
        <pt x="104" y="-114" on="1"/>
        <pt x="159" y="-114" on="1"/>
      </contour>
    </TTGlyph>
    <TTGlyph name="breve" xMin="81" yMin="565" xMax="432" yMax="726">
      <contour>
        <pt x="81" y="726" on="1"/>
        <pt x="172" y="726" on="1"/>
        <pt x="172" y="688" on="0"/>
        <pt x="217" y="649" on="0"/>
        <pt x="294" y="649" on="0"/>
        <pt x="342" y="688" on="0"/>
        <pt x="342" y="726" on="1"/>
        <pt x="432" y="726" on="1"/>
        <pt x="432" y="565" on="0"/>
        <pt x="81" y="565" on="0"/>
      </contour>
    </TTGlyph>
    <TTGlyph name="brokenbar" xMin="65" yMin="-200" xMax="166" yMax="720">
      <contour>
        <pt x="65" y="-106" on="1"/>
        <pt x="65" y="157" on="1"/>
        <pt x="166" y="157" on="1"/>
        <pt x="166" y="-190" on="1"/>
        <pt x="100" y="-200" on="1"/>
        <pt x="65" y="-165" on="0"/>
      </contour>
      <contour>
        <pt x="166" y="626" on="1"/>
        <pt x="166" y="380" on="1"/>
        <pt x="65" y="380" on="1"/>
        <pt x="65" y="710" on="1"/>
        <pt x="131" y="720" on="1"/>
        <pt x="166" y="686" on="0"/>
      </contour>
    </TTGlyph>
    <TTGlyph name="bullet" xMin="62" yMin="157" xMax="299" yMax="371">
      <contour>
        <pt x="122" y="157" on="0"/>
        <pt x="62" y="206" on="0"/>
        <pt x="62" y="321" on="0"/>
        <pt x="122" y="371" on="0"/>
        <pt x="180" y="371" on="1"/>
        <pt x="299" y="371" on="0"/>
        <pt x="299" y="263" on="1"/>
        <pt x="299" y="157" on="0"/>
        <pt x="180" y="157" on="1"/>
      </contour>
    </TTGlyph>
    <TTGlyph name="c" xMin="25" yMin="-8" xMax="432" yMax="508">
      <contour>
        <pt x="261" y="406" on="1"/>
        <pt x="169" y="406" on="0"/>
        <pt x="169" y="248" on="1"/>
        <pt x="169" y="168" on="0"/>
        <pt x="220" y="105" on="0"/>
        <pt x="268" y="105" on="1"/>
        <pt x="344" y="105" on="0"/>
        <pt x="402" y="119" on="1"/>
        <pt x="432" y="42" on="1"/>
        <pt x="400" y="21" on="0"/>
        <pt x="292" y="-8" on="0"/>
        <pt x="241" y="-8" on="1"/>
        <pt x="25" y="-8" on="0"/>
        <pt x="25" y="242" on="1"/>
        <pt x="25" y="388" on="0"/>
        <pt x="100" y="452" on="1"/>
        <pt x="167" y="508" on="0"/>
        <pt x="359" y="508" on="0"/>
        <pt x="423" y="472" on="1"/>
        <pt x="424" y="462" on="0"/>
        <pt x="424" y="453" on="1"/>
        <pt x="424" y="396" on="0"/>
        <pt x="398" y="345" on="1"/>
        <pt x="310" y="345" on="1"/>
        <pt x="296" y="370" on="0"/>
        <pt x="293" y="405" on="1"/>
        <pt x="281" y="406" on="0"/>
      </contour>
    </TTGlyph>
    <TTGlyph name="caron" xMin="102" yMin="570" xMax="422" yMax="785">
      <contour>
        <pt x="386" y="785" on="1"/>
        <pt x="422" y="744" on="1"/>
        <pt x="409" y="709" on="0"/>
        <pt x="307" y="600" on="0"/>
        <pt x="262" y="570" on="1"/>
        <pt x="217" y="600" on="0"/>
        <pt x="115" y="709" on="0"/>
        <pt x="102" y="744" on="1"/>
        <pt x="138" y="785" on="1"/>
        <pt x="187" y="769" on="0"/>
        <pt x="262" y="705" on="1"/>
        <pt x="337" y="769" on="0"/>
      </contour>
    </TTGlyph>
    <TTGlyph name="ccedilla" xMin="26" yMin="-217" xMax="433" yMax="508">
      <contour>
        <pt x="262" y="406" on="1"/>
        <pt x="170" y="406" on="0"/>
        <pt x="170" y="248" on="1"/>
        <pt x="170" y="168" on="0"/>
        <pt x="221" y="105" on="0"/>
        <pt x="269" y="105" on="1"/>
        <pt x="345" y="105" on="0"/>
        <pt x="403" y="119" on="1"/>
        <pt x="433" y="42" on="1"/>
        <pt x="372" y="4" on="0"/>
        <pt x="275" y="-6" on="1"/>
        <pt x="270" y="-23" on="0"/>
        <pt x="270" y="-35" on="1"/>
        <pt x="335" y="-42" on="0"/>
        <pt x="335" y="-111" on="1"/>
        <pt x="335" y="-206" on="0"/>
        <pt x="186" y="-217" on="1"/>
        <pt x="170" y="-163" on="1"/>
        <pt x="203" y="-151" on="0"/>
        <pt x="229" y="-131" on="0"/>
        <pt x="229" y="-93" on="0"/>
        <pt x="205" y="-73" on="0"/>
        <pt x="187" y="-72" on="1"/>
        <pt x="185" y="-63" on="0"/>
        <pt x="185" y="-29" on="0"/>
        <pt x="197" y="-4" on="1"/>
        <pt x="26" y="20" on="0"/>
        <pt x="26" y="242" on="1"/>
        <pt x="26" y="388" on="0"/>
        <pt x="101" y="452" on="1"/>
        <pt x="168" y="508" on="0"/>
        <pt x="360" y="508" on="0"/>
        <pt x="424" y="472" on="1"/>
        <pt x="425" y="462" on="0"/>
        <pt x="425" y="453" on="1"/>
        <pt x="425" y="396" on="0"/>
        <pt x="399" y="345" on="1"/>
        <pt x="311" y="345" on="1"/>
        <pt x="297" y="370" on="0"/>
        <pt x="294" y="405" on="1"/>
        <pt x="282" y="406" on="0"/>
      </contour>
    </TTGlyph>
    <TTGlyph name="cedilla" xMin="30" yMin="-217" xMax="195" yMax="7">
      <contour>
        <pt x="46" y="-54" on="1"/>
        <pt x="46" y="-22" on="0"/>
        <pt x="63" y="7" on="1"/>
        <pt x="142" y="7" on="1"/>
        <pt x="130" y="-14" on="0"/>
        <pt x="130" y="-35" on="1"/>
        <pt x="195" y="-42" on="0"/>
        <pt x="195" y="-111" on="1"/>
        <pt x="195" y="-206" on="0"/>
        <pt x="46" y="-217" on="1"/>
        <pt x="30" y="-163" on="1"/>
        <pt x="63" y="-151" on="0"/>
        <pt x="89" y="-131" on="0"/>
        <pt x="89" y="-93" on="0"/>
        <pt x="65" y="-73" on="0"/>
        <pt x="47" y="-72" on="1"/>
        <pt x="46" y="-63" on="0"/>
      </contour>
    </TTGlyph>
    <TTGlyph name="cent" xMin="26" yMin="-177" xMax="433" yMax="678">
      <contour>
        <pt x="320" y="-160" on="1"/>
        <pt x="320" y="-168" on="0"/>
        <pt x="320" y="-177" on="1"/>
        <pt x="200" y="-177" on="1"/>
        <pt x="199" y="-164" on="0"/>
        <pt x="199" y="-152" on="1"/>
        <pt x="199" y="-81" on="0"/>
        <pt x="223" y="-7" on="1"/>
        <pt x="116" y="-3" on="0"/>
        <pt x="26" y="112" on="0"/>
        <pt x="26" y="366" on="0"/>
        <pt x="129" y="491" on="0"/>
        <pt x="211" y="504" on="1"/>
        <pt x="186" y="584" on="0"/>
        <pt x="186" y="657" on="1"/>
        <pt x="186" y="668" on="0"/>
        <pt x="187" y="678" on="1"/>
        <pt x="307" y="678" on="1"/>
        <pt x="307" y="670" on="0"/>
        <pt x="307" y="661" on="1"/>
        <pt x="307" y="584" on="0"/>
        <pt x="283" y="507" on="1"/>
        <pt x="365" y="504" on="0"/>
        <pt x="424" y="472" on="1"/>
        <pt x="425" y="462" on="0"/>
        <pt x="425" y="453" on="1"/>
        <pt x="425" y="396" on="0"/>
        <pt x="399" y="345" on="1"/>
        <pt x="311" y="345" on="1"/>
        <pt x="297" y="370" on="0"/>
        <pt x="294" y="405" on="1"/>
        <pt x="282" y="406" on="0"/>
        <pt x="262" y="406" on="1"/>
        <pt x="211" y="406" on="0"/>
        <pt x="170" y="325" on="0"/>
        <pt x="170" y="166" on="0"/>
        <pt x="220" y="99" on="0"/>
        <pt x="268" y="99" on="1"/>
        <pt x="339" y="99" on="0"/>
        <pt x="401" y="119" on="1"/>
        <pt x="433" y="42" on="1"/>
        <pt x="381" y="9" on="0"/>
        <pt x="296" y="-4" on="1"/>
        <pt x="320" y="-82" on="0"/>
      </contour>
    </TTGlyph>
    <TTGlyph name="circumflex" xMin="102" yMin="569" xMax="422" yMax="784">
      <contour>
        <pt x="422" y="610" on="1"/>
        <pt x="386" y="569" on="1"/>
        <pt x="340" y="582" on="0"/>
        <pt x="262" y="649" on="1"/>
        <pt x="184" y="582" on="0"/>
        <pt x="138" y="569" on="1"/>
        <pt x="102" y="610" on="1"/>
        <pt x="115" y="645" on="0"/>
        <pt x="217" y="754" on="0"/>
        <pt x="262" y="784" on="1"/>
        <pt x="307" y="754" on="0"/>
        <pt x="409" y="645" on="0"/>
      </contour>
    </TTGlyph>
    <TTGlyph name="colon" xMin="48" yMin="70" xMax="207" yMax="445">
      <contour>
        <pt x="48" y="70" on="0"/>
        <pt x="48" y="219" on="0"/>
        <pt x="207" y="219" on="0"/>
        <pt x="207" y="70" on="0"/>
      </contour>
      <contour>
        <pt x="48" y="296" on="0"/>
        <pt x="48" y="445" on="0"/>
        <pt x="207" y="445" on="0"/>
        <pt x="207" y="296" on="0"/>
      </contour>
    </TTGlyph>
    <TTGlyph name="comma" xMin="36" yMin="-151" xMax="206" yMax="141">
      <contour>
        <pt x="36" y="65" on="1"/>
        <pt x="36" y="141" on="0"/>
        <pt x="206" y="141" on="0"/>
        <pt x="206" y="65" on="1"/>
        <pt x="206" y="-2" on="0"/>
        <pt x="138" y="-117" on="0"/>
        <pt x="90" y="-151" on="1"/>
        <pt x="48" y="-125" on="1"/>
        <pt x="81" y="-70" on="0"/>
        <pt x="81" y="-17" on="1"/>
        <pt x="81" y="-9" on="0"/>
        <pt x="80" y="-2" on="1"/>
        <pt x="61" y="4" on="0"/>
        <pt x="36" y="41" on="0"/>
      </contour>
    </TTGlyph>
    <TTGlyph name="copyright" xMin="37" yMin="-8" xMax="729" yMax="698">
      <contour>
        <pt x="532" y="499" on="1"/>
        <pt x="532" y="454" on="0"/>
        <pt x="514" y="418" on="1"/>
        <pt x="442" y="418" on="1"/>
        <pt x="430" y="435" on="0"/>
        <pt x="428" y="465" on="1"/>
        <pt x="411" y="473" on="0"/>
        <pt x="387" y="473" on="1"/>
        <pt x="314" y="473" on="0"/>
        <pt x="314" y="348" on="1"/>
        <pt x="314" y="278" on="0"/>
        <pt x="350" y="220" on="0"/>
        <pt x="387" y="220" on="1"/>
        <pt x="450" y="220" on="0"/>
        <pt x="509" y="240" on="1"/>
        <pt x="534" y="185" on="1"/>
        <pt x="466" y="146" on="0"/>
        <pt x="286" y="146" on="0"/>
        <pt x="204" y="237" on="0"/>
        <pt x="204" y="444" on="0"/>
        <pt x="303" y="542" on="0"/>
        <pt x="463" y="542" on="0"/>
        <pt x="532" y="505" on="1"/>
        <pt x="532" y="502" on="0"/>
      </contour>
      <contour>
        <pt x="37" y="345" on="1"/>
        <pt x="37" y="522" on="0"/>
        <pt x="217" y="698" on="0"/>
        <pt x="561" y="698" on="0"/>
        <pt x="729" y="530" on="0"/>
        <pt x="729" y="177" on="0"/>
        <pt x="547" y="-8" on="0"/>
        <pt x="375" y="-8" on="1"/>
        <pt x="37" y="-8" on="0"/>
      </contour>
      <contour>
        <pt x="141" y="208" on="0"/>
        <pt x="276" y="80" on="0"/>
        <pt x="382" y="80" on="1"/>
        <pt x="625" y="80" on="0"/>
        <pt x="625" y="610" on="0"/>
        <pt x="381" y="610" on="1"/>
        <pt x="277" y="610" on="0"/>
        <pt x="212" y="558" on="1"/>
        <pt x="141" y="502" on="0"/>
      </contour>
    </TTGlyph>
    <TTGlyph name="currency" xMin="38" yMin="64" xMax="594" yMax="624">
      <contour>
        <pt x="107" y="200" on="1"/>
        <pt x="79" y="255" on="0"/>
        <pt x="79" y="426" on="0"/>
        <pt x="110" y="481" on="1"/>
        <pt x="38" y="553" on="1"/>
        <pt x="73" y="603" on="1"/>
        <pt x="76" y="603" on="0"/>
        <pt x="79" y="603" on="1"/>
        <pt x="119" y="603" on="0"/>
        <pt x="155" y="567" on="1"/>
        <pt x="174" y="548" on="1"/>
        <pt x="232" y="583" on="0"/>
        <pt x="404" y="583" on="0"/>
        <pt x="457" y="554" on="1"/>
        <pt x="527" y="624" on="1"/>
        <pt x="578" y="589" on="1"/>
        <pt x="578" y="586" on="0"/>
        <pt x="578" y="583" on="1"/>
        <pt x="578" y="543" on="0"/>
        <pt x="542" y="507" on="1"/>
        <pt x="524" y="489" on="1"/>
        <pt x="554" y="435" on="0"/>
        <pt x="554" y="260" on="0"/>
        <pt x="521" y="203" on="1"/>
        <pt x="594" y="131" on="1"/>
        <pt x="559" y="80" on="1"/>
        <pt x="558" y="80" on="0"/>
        <pt x="557" y="80" on="1"/>
        <pt x="515" y="80" on="0"/>
        <pt x="477" y="117" on="1"/>
        <pt x="458" y="135" on="1"/>
        <pt x="400" y="99" on="0"/>
        <pt x="225" y="99" on="0"/>
        <pt x="171" y="132" on="1"/>
        <pt x="103" y="64" on="1"/>
        <pt x="52" y="99" on="1"/>
        <pt x="50" y="143" on="0"/>
        <pt x="88" y="181" on="1"/>
      </contour>
      <contour>
        <pt x="174" y="345" on="1"/>
        <pt x="174" y="259" on="0"/>
        <pt x="254" y="181" on="0"/>
        <pt x="316" y="181" on="1"/>
        <pt x="460" y="181" on="0"/>
        <pt x="460" y="502" on="0"/>
        <pt x="315" y="502" on="1"/>
        <pt x="174" y="502" on="0"/>
      </contour>
    </TTGlyph>
    <TTGlyph name="d" xMin="26" yMin="-8" xMax="539" yMax="724">
      <contour>
        <pt x="286" y="710" on="1"/>
        <pt x="343" y="723" on="0"/>
        <pt x="447" y="723" on="0"/>
        <pt x="484" y="720" on="1"/>
        <pt x="484" y="120" on="1"/>
        <pt x="514" y="115" on="0"/>
        <pt x="539" y="103" on="1"/>
        <pt x="539" y="24" on="1"/>
        <pt x="479" y="-8" on="0"/>
        <pt x="387" y="-8" on="1"/>
        <pt x="377" y="-3" on="0"/>
        <pt x="358" y="23" on="0"/>
        <pt x="357" y="35" on="1"/>
        <pt x="335" y="17" on="0"/>
        <pt x="265" y="-8" on="0"/>
        <pt x="231" y="-8" on="1"/>
        <pt x="123" y="-8" on="0"/>
        <pt x="26" y="109" on="0"/>
        <pt x="26" y="242" on="1"/>
        <pt x="26" y="393" on="0"/>
        <pt x="100" y="454" on="1"/>
        <pt x="165" y="508" on="0"/>
        <pt x="260" y="508" on="1"/>
        <pt x="302" y="508" on="0"/>
        <pt x="344" y="498" on="1"/>
        <pt x="344" y="597" on="1"/>
        <pt x="298" y="610" on="0"/>
        <pt x="276" y="633" on="1"/>
      </contour>
      <contour>
        <pt x="252" y="94" on="1"/>
        <pt x="309" y="94" on="0"/>
        <pt x="344" y="128" on="1"/>
        <pt x="344" y="396" on="1"/>
        <pt x="303" y="406" on="0"/>
        <pt x="211" y="406" on="0"/>
        <pt x="170" y="325" on="0"/>
        <pt x="170" y="164" on="0"/>
        <pt x="210" y="94" on="0"/>
      </contour>
    </TTGlyph>
    <TTGlyph name="dagger" xMin="24" yMin="-126" xMax="492" yMax="690">
      <contour>
        <pt x="224" y="-126" on="1"/>
        <pt x="192" y="2" on="0"/>
        <pt x="192" y="227" on="1"/>
        <pt x="192" y="303" on="0"/>
        <pt x="204" y="408" on="1"/>
        <pt x="126" y="388" on="0"/>
        <pt x="44" y="388" on="0"/>
        <pt x="24" y="391" on="1"/>
        <pt x="24" y="502" on="1"/>
        <pt x="42" y="505" on="0"/>
        <pt x="122" y="505" on="0"/>
        <pt x="203" y="485" on="1"/>
        <pt x="190" y="570" on="0"/>
        <pt x="190" y="664" on="0"/>
        <pt x="193" y="690" on="1"/>
        <pt x="323" y="690" on="1"/>
        <pt x="326" y="666" on="0"/>
        <pt x="326" y="573" on="0"/>
        <pt x="312" y="485" on="1"/>
        <pt x="394" y="505" on="0"/>
        <pt x="474" y="505" on="0"/>
        <pt x="492" y="502" on="1"/>
        <pt x="492" y="391" on="1"/>
        <pt x="471" y="388" on="0"/>
        <pt x="389" y="388" on="0"/>
        <pt x="311" y="408" on="1"/>
        <pt x="324" y="325" on="0"/>
        <pt x="324" y="230" on="1"/>
        <pt x="324" y="115" on="0"/>
        <pt x="304" y="-77" on="0"/>
        <pt x="292" y="-126" on="1"/>
      </contour>
    </TTGlyph>
    <TTGlyph name="daggerdbl" xMin="31" yMin="-126" xMax="499" yMax="690">
      <contour>
        <pt x="203" y="86" on="1"/>
        <pt x="203" y="139" on="0"/>
        <pt x="210" y="191" on="1"/>
        <pt x="135" y="172" on="0"/>
        <pt x="52" y="172" on="0"/>
        <pt x="31" y="175" on="1"/>
        <pt x="31" y="286" on="1"/>
        <pt x="49" y="289" on="0"/>
        <pt x="127" y="289" on="0"/>
        <pt x="208" y="269" on="1"/>
        <pt x="201" y="306" on="0"/>
        <pt x="201" y="386" on="0"/>
        <pt x="209" y="428" on="1"/>
        <pt x="132" y="408" on="0"/>
        <pt x="51" y="408" on="0"/>
        <pt x="31" y="411" on="1"/>
        <pt x="31" y="522" on="1"/>
        <pt x="49" y="525" on="0"/>
        <pt x="129" y="525" on="0"/>
        <pt x="210" y="505" on="1"/>
        <pt x="197" y="586" on="0"/>
        <pt x="197" y="669" on="0"/>
        <pt x="200" y="690" on="1"/>
        <pt x="330" y="690" on="1"/>
        <pt x="332" y="670" on="0"/>
        <pt x="332" y="588" on="0"/>
        <pt x="319" y="505" on="1"/>
        <pt x="401" y="525" on="0"/>
        <pt x="481" y="525" on="0"/>
        <pt x="499" y="522" on="1"/>
        <pt x="499" y="411" on="1"/>
        <pt x="479" y="408" on="0"/>
        <pt x="397" y="408" on="0"/>
        <pt x="320" y="428" on="1"/>
        <pt x="328" y="386" on="0"/>
        <pt x="328" y="306" on="0"/>
        <pt x="321" y="269" on="1"/>
        <pt x="402" y="289" on="0"/>
        <pt x="481" y="289" on="0"/>
        <pt x="499" y="286" on="1"/>
        <pt x="499" y="175" on="1"/>
        <pt x="476" y="171" on="0"/>
        <pt x="392" y="171" on="0"/>
        <pt x="319" y="191" on="1"/>
        <pt x="326" y="140" on="0"/>
        <pt x="326" y="88" on="1"/>
        <pt x="326" y="-17" on="0"/>
        <pt x="299" y="-126" on="1"/>
        <pt x="231" y="-126" on="1"/>
        <pt x="203" y="-18" on="0"/>
      </contour>
    </TTGlyph>
    <TTGlyph name="degree" xMin="30" yMin="417" xMax="345" yMax="705">
      <contour>
        <pt x="30" y="560" on="1"/>
        <pt x="30" y="705" on="0"/>
        <pt x="186" y="705" on="1"/>
        <pt x="259" y="705" on="0"/>
        <pt x="345" y="635" on="0"/>
        <pt x="345" y="486" on="0"/>
        <pt x="259" y="417" on="0"/>
        <pt x="114" y="417" on="0"/>
        <pt x="30" y="486" on="0"/>
      </contour>
      <contour>
        <pt x="260" y="637" on="0"/>
        <pt x="114" y="637" on="0"/>
        <pt x="114" y="487" on="0"/>
        <pt x="260" y="487" on="0"/>
      </contour>
    </TTGlyph>
    <TTGlyph name="dieresis" xMin="79" yMin="624" xMax="482" yMax="775">
      <contour>
        <pt x="79" y="699" on="1"/>
        <pt x="79" y="775" on="0"/>
        <pt x="242" y="775" on="0"/>
        <pt x="242" y="624" on="0"/>
        <pt x="160" y="624" on="1"/>
        <pt x="120" y="624" on="0"/>
        <pt x="79" y="658" on="0"/>
      </contour>
      <contour>
        <pt x="319" y="699" on="1"/>
        <pt x="319" y="775" on="0"/>
        <pt x="482" y="775" on="0"/>
        <pt x="482" y="624" on="0"/>
        <pt x="400" y="624" on="1"/>
        <pt x="360" y="624" on="0"/>
        <pt x="319" y="658" on="0"/>
      </contour>
    </TTGlyph>
    <TTGlyph name="divide" xMin="25" yMin="14" xMax="484" yMax="495">
      <contour>
        <pt x="394" y="208" on="1"/>
        <pt x="35" y="208" on="1"/>
        <pt x="25" y="266" on="1"/>
        <pt x="56" y="301" on="0"/>
        <pt x="115" y="301" on="1"/>
        <pt x="474" y="301" on="1"/>
        <pt x="484" y="243" on="1"/>
        <pt x="454" y="208" on="0"/>
      </contour>
      <contour>
        <pt x="177" y="86" on="1"/>
        <pt x="177" y="158" on="0"/>
        <pt x="332" y="158" on="0"/>
        <pt x="332" y="86" on="1"/>
        <pt x="332" y="47" on="0"/>
        <pt x="292" y="14" on="0"/>
        <pt x="216" y="14" on="0"/>
        <pt x="177" y="47" on="0"/>
      </contour>
      <contour>
        <pt x="177" y="422" on="1"/>
        <pt x="177" y="495" on="0"/>
        <pt x="332" y="495" on="0"/>
        <pt x="332" y="422" on="1"/>
        <pt x="332" y="351" on="0"/>
        <pt x="254" y="351" on="1"/>
        <pt x="216" y="351" on="0"/>
        <pt x="177" y="383" on="0"/>
      </contour>
    </TTGlyph>
    <TTGlyph name="dollar" xMin="30" yMin="-175" xMax="516" yMax="867">
      <contour>
        <pt x="339" y="581" on="1"/>
        <pt x="305" y="590" on="0"/>
        <pt x="231" y="590" on="0"/>
        <pt x="186" y="553" on="0"/>
        <pt x="186" y="486" on="0"/>
        <pt x="220" y="448" on="0"/>
        <pt x="270" y="434" on="1"/>
        <pt x="359" y="408" on="1"/>
        <pt x="431" y="387" on="0"/>
        <pt x="516" y="298" on="0"/>
        <pt x="516" y="121" on="0"/>
        <pt x="398" y="7" on="0"/>
        <pt x="306" y="-5" on="1"/>
        <pt x="330" y="-82" on="0"/>
        <pt x="330" y="-158" on="1"/>
        <pt x="330" y="-167" on="0"/>
        <pt x="330" y="-175" on="1"/>
        <pt x="210" y="-175" on="1"/>
        <pt x="209" y="-164" on="0"/>
        <pt x="209" y="-153" on="1"/>
        <pt x="209" y="-82" on="0"/>
        <pt x="232" y="-7" on="1"/>
        <pt x="106" y="0" on="0"/>
        <pt x="31" y="51" on="1"/>
        <pt x="31" y="57" on="0"/>
        <pt x="31" y="91" on="0"/>
        <pt x="45" y="173" on="0"/>
        <pt x="58" y="199" on="1"/>
        <pt x="153" y="199" on="1"/>
        <pt x="169" y="168" on="0"/>
        <pt x="172" y="116" on="1"/>
        <pt x="207" y="101" on="0"/>
        <pt x="300" y="101" on="0"/>
        <pt x="360" y="145" on="0"/>
        <pt x="360" y="186" on="1"/>
        <pt x="360" y="205" on="0"/>
        <pt x="354" y="230" on="0"/>
        <pt x="323" y="259" on="0"/>
        <pt x="294" y="268" on="1"/>
        <pt x="191" y="298" on="1"/>
        <pt x="34" y="343" on="0"/>
        <pt x="34" y="498" on="1"/>
        <pt x="34" y="578" on="0"/>
        <pt x="137" y="682" on="0"/>
        <pt x="222" y="694" on="1"/>
        <pt x="198" y="774" on="0"/>
        <pt x="198" y="846" on="1"/>
        <pt x="198" y="857" on="0"/>
        <pt x="198" y="867" on="1"/>
        <pt x="318" y="867" on="1"/>
        <pt x="318" y="858" on="0"/>
        <pt x="318" y="850" on="1"/>
        <pt x="318" y="775" on="0"/>
        <pt x="295" y="697" on="1"/>
        <pt x="390" y="692" on="0"/>
        <pt x="481" y="650" on="1"/>
        <pt x="481" y="644" on="0"/>
        <pt x="481" y="610" on="0"/>
        <pt x="467" y="528" on="0"/>
        <pt x="454" y="502" on="1"/>
        <pt x="359" y="502" on="1"/>
        <pt x="343" y="531" on="0"/>
      </contour>
    </TTGlyph>
    <TTGlyph name="dotaccent" xMin="50" yMin="597" xMax="217" yMax="748">
      <contour>
        <pt x="50" y="597" on="0"/>
        <pt x="50" y="748" on="0"/>
        <pt x="217" y="748" on="0"/>
        <pt x="217" y="597" on="0"/>
      </contour>
    </TTGlyph>
    <TTGlyph name="dotlessi" xMin="28" yMin="0" xMax="278" yMax="513">
      <contour>
        <pt x="38" y="500" on="1"/>
        <pt x="94" y="513" on="0"/>
        <pt x="190" y="513" on="0"/>
        <pt x="223" y="510" on="1"/>
        <pt x="223" y="111" on="1"/>
        <pt x="262" y="96" on="0"/>
        <pt x="278" y="77" on="1"/>
        <pt x="268" y="0" on="1"/>
        <pt x="38" y="0" on="1"/>
        <pt x="28" y="77" on="1"/>
        <pt x="42" y="96" on="0"/>
        <pt x="83" y="111" on="1"/>
        <pt x="83" y="389" on="1"/>
        <pt x="48" y="401" on="0"/>
        <pt x="28" y="423" on="1"/>
      </contour>
    </TTGlyph>
    <TTGlyph name="e" xMin="25" yMin="-8" xMax="458" yMax="508">
      <contour>
        <pt x="266" y="-8" on="1"/>
        <pt x="146" y="-8" on="0"/>
        <pt x="25" y="120" on="0"/>
        <pt x="25" y="242" on="1"/>
        <pt x="25" y="316" on="0"/>
        <pt x="67" y="423" on="0"/>
        <pt x="103" y="452" on="1"/>
        <pt x="173" y="508" on="0"/>
        <pt x="359" y="508" on="0"/>
        <pt x="458" y="413" on="0"/>
        <pt x="458" y="290" on="1"/>
        <pt x="458" y="218" on="0"/>
        <pt x="387" y="218" on="1"/>
        <pt x="170" y="218" on="1"/>
        <pt x="174" y="155" on="0"/>
        <pt x="231" y="103" on="0"/>
        <pt x="293" y="103" on="1"/>
        <pt x="327" y="103" on="0"/>
        <pt x="389" y="119" on="0"/>
        <pt x="403" y="127" on="1"/>
        <pt x="417" y="135" on="1"/>
        <pt x="447" y="55" on="1"/>
        <pt x="441" y="48" on="0"/>
        <pt x="418" y="27" on="0"/>
        <pt x="325" y="-8" on="0"/>
      </contour>
      <contour>
        <pt x="329" y="307" on="1"/>
        <pt x="331" y="321" on="0"/>
        <pt x="331" y="361" on="0"/>
        <pt x="299" y="406" on="0"/>
        <pt x="220" y="406" on="0"/>
        <pt x="178" y="358" on="0"/>
        <pt x="171" y="301" on="1"/>
      </contour>
    </TTGlyph>
    <TTGlyph name="eacute" xMin="25" yMin="-8" xMax="458" yMax="796">
      <contour>
        <pt x="266" y="-8" on="1"/>
        <pt x="146" y="-8" on="0"/>
        <pt x="25" y="120" on="0"/>
        <pt x="25" y="242" on="1"/>
        <pt x="25" y="316" on="0"/>
        <pt x="67" y="423" on="0"/>
        <pt x="103" y="452" on="1"/>
        <pt x="173" y="508" on="0"/>
        <pt x="359" y="508" on="0"/>
        <pt x="458" y="413" on="0"/>
        <pt x="458" y="290" on="1"/>
        <pt x="458" y="218" on="0"/>
        <pt x="387" y="218" on="1"/>
        <pt x="170" y="218" on="1"/>
        <pt x="174" y="155" on="0"/>
        <pt x="231" y="103" on="0"/>
        <pt x="293" y="103" on="1"/>
        <pt x="327" y="103" on="0"/>
        <pt x="389" y="119" on="0"/>
        <pt x="403" y="127" on="1"/>
        <pt x="417" y="135" on="1"/>
        <pt x="447" y="55" on="1"/>
        <pt x="441" y="48" on="0"/>
        <pt x="418" y="27" on="0"/>
        <pt x="325" y="-8" on="0"/>
      </contour>
      <contour>
        <pt x="329" y="307" on="1"/>
        <pt x="331" y="321" on="0"/>
        <pt x="331" y="361" on="0"/>
        <pt x="299" y="406" on="0"/>
        <pt x="220" y="406" on="0"/>
        <pt x="178" y="358" on="0"/>
        <pt x="171" y="301" on="1"/>
      </contour>
      <contour>
        <pt x="267" y="569" on="1"/>
        <pt x="213" y="600" on="1"/>
        <pt x="219" y="644" on="0"/>
        <pt x="275" y="767" on="0"/>
        <pt x="304" y="796" on="1"/>
        <pt x="408" y="732" on="1"/>
        <pt x="394" y="692" on="0"/>
        <pt x="308" y="595" on="0"/>
      </contour>
    </TTGlyph>
    <TTGlyph name="ecircumflex" xMin="25" yMin="-8" xMax="458" yMax="784">
      <contour>
        <pt x="266" y="-8" on="1"/>
        <pt x="146" y="-8" on="0"/>
        <pt x="25" y="120" on="0"/>
        <pt x="25" y="242" on="1"/>
        <pt x="25" y="316" on="0"/>
        <pt x="67" y="423" on="0"/>
        <pt x="103" y="452" on="1"/>
        <pt x="173" y="508" on="0"/>
        <pt x="359" y="508" on="0"/>
        <pt x="458" y="413" on="0"/>
        <pt x="458" y="290" on="1"/>
        <pt x="458" y="218" on="0"/>
        <pt x="387" y="218" on="1"/>
        <pt x="170" y="218" on="1"/>
        <pt x="174" y="155" on="0"/>
        <pt x="231" y="103" on="0"/>
        <pt x="293" y="103" on="1"/>
        <pt x="327" y="103" on="0"/>
        <pt x="389" y="119" on="0"/>
        <pt x="403" y="127" on="1"/>
        <pt x="417" y="135" on="1"/>
        <pt x="447" y="55" on="1"/>
        <pt x="441" y="48" on="0"/>
        <pt x="418" y="27" on="0"/>
        <pt x="325" y="-8" on="0"/>
      </contour>
      <contour>
        <pt x="329" y="307" on="1"/>
        <pt x="331" y="321" on="0"/>
        <pt x="331" y="361" on="0"/>
        <pt x="299" y="406" on="0"/>
        <pt x="220" y="406" on="0"/>
        <pt x="178" y="358" on="0"/>
        <pt x="171" y="301" on="1"/>
      </contour>
      <contour>
        <pt x="412" y="610" on="1"/>
        <pt x="376" y="569" on="1"/>
        <pt x="330" y="582" on="0"/>
        <pt x="252" y="649" on="1"/>
        <pt x="174" y="582" on="0"/>
        <pt x="128" y="569" on="1"/>
        <pt x="92" y="610" on="1"/>
        <pt x="105" y="645" on="0"/>
        <pt x="207" y="754" on="0"/>
        <pt x="252" y="784" on="1"/>
        <pt x="297" y="754" on="0"/>
        <pt x="399" y="645" on="0"/>
      </contour>
    </TTGlyph>
    <TTGlyph name="edieresis" xMin="25" yMin="-8" xMax="458" yMax="775">
      <contour>
        <pt x="266" y="-8" on="1"/>
        <pt x="146" y="-8" on="0"/>
        <pt x="25" y="120" on="0"/>
        <pt x="25" y="242" on="1"/>
        <pt x="25" y="316" on="0"/>
        <pt x="67" y="423" on="0"/>
        <pt x="103" y="452" on="1"/>
        <pt x="173" y="508" on="0"/>
        <pt x="359" y="508" on="0"/>
        <pt x="458" y="413" on="0"/>
        <pt x="458" y="290" on="1"/>
        <pt x="458" y="218" on="0"/>
        <pt x="387" y="218" on="1"/>
        <pt x="170" y="218" on="1"/>
        <pt x="174" y="155" on="0"/>
        <pt x="231" y="103" on="0"/>
        <pt x="293" y="103" on="1"/>
        <pt x="327" y="103" on="0"/>
        <pt x="389" y="119" on="0"/>
        <pt x="403" y="127" on="1"/>
        <pt x="417" y="135" on="1"/>
        <pt x="447" y="55" on="1"/>
        <pt x="441" y="48" on="0"/>
        <pt x="418" y="27" on="0"/>
        <pt x="325" y="-8" on="0"/>
      </contour>
      <contour>
        <pt x="329" y="307" on="1"/>
        <pt x="331" y="321" on="0"/>
        <pt x="331" y="361" on="0"/>
        <pt x="299" y="406" on="0"/>
        <pt x="220" y="406" on="0"/>
        <pt x="178" y="358" on="0"/>
        <pt x="171" y="301" on="1"/>
      </contour>
      <contour>
        <pt x="48" y="699" on="1"/>
        <pt x="48" y="775" on="0"/>
        <pt x="211" y="775" on="0"/>
        <pt x="211" y="624" on="0"/>
        <pt x="129" y="624" on="1"/>
        <pt x="89" y="624" on="0"/>
        <pt x="48" y="658" on="0"/>
      </contour>
      <contour>
        <pt x="258" y="699" on="1"/>
        <pt x="258" y="775" on="0"/>
        <pt x="421" y="775" on="0"/>
        <pt x="421" y="624" on="0"/>
        <pt x="339" y="624" on="1"/>
        <pt x="299" y="624" on="0"/>
        <pt x="258" y="658" on="0"/>
      </contour>
    </TTGlyph>
    <TTGlyph name="egrave" xMin="25" yMin="-8" xMax="458" yMax="796">
      <contour>
        <pt x="266" y="-8" on="1"/>
        <pt x="146" y="-8" on="0"/>
        <pt x="25" y="120" on="0"/>
        <pt x="25" y="242" on="1"/>
        <pt x="25" y="316" on="0"/>
        <pt x="67" y="423" on="0"/>
        <pt x="103" y="452" on="1"/>
        <pt x="173" y="508" on="0"/>
        <pt x="359" y="508" on="0"/>
        <pt x="458" y="413" on="0"/>
        <pt x="458" y="290" on="1"/>
        <pt x="458" y="218" on="0"/>
        <pt x="387" y="218" on="1"/>
        <pt x="170" y="218" on="1"/>
        <pt x="174" y="155" on="0"/>
        <pt x="231" y="103" on="0"/>
        <pt x="293" y="103" on="1"/>
        <pt x="327" y="103" on="0"/>
        <pt x="389" y="119" on="0"/>
        <pt x="403" y="127" on="1"/>
        <pt x="417" y="135" on="1"/>
        <pt x="447" y="55" on="1"/>
        <pt x="441" y="48" on="0"/>
        <pt x="418" y="27" on="0"/>
        <pt x="325" y="-8" on="0"/>
      </contour>
      <contour>
        <pt x="329" y="307" on="1"/>
        <pt x="331" y="321" on="0"/>
        <pt x="331" y="361" on="0"/>
        <pt x="299" y="406" on="0"/>
        <pt x="220" y="406" on="0"/>
        <pt x="178" y="358" on="0"/>
        <pt x="171" y="301" on="1"/>
      </contour>
      <contour>
        <pt x="322" y="600" on="1"/>
        <pt x="268" y="569" on="1"/>
        <pt x="227" y="595" on="0"/>
        <pt x="141" y="692" on="0"/>
        <pt x="127" y="732" on="1"/>
        <pt x="231" y="796" on="1"/>
        <pt x="260" y="767" on="0"/>
        <pt x="316" y="644" on="0"/>
      </contour>
    </TTGlyph>
    <TTGlyph name="eight" xMin="34" yMin="-8" xMax="522" yMax="698">
      <contour>
        <pt x="67" y="516" on="1"/>
        <pt x="67" y="604" on="0"/>
        <pt x="180" y="698" on="0"/>
        <pt x="387" y="698" on="0"/>
        <pt x="489" y="615" on="0"/>
        <pt x="489" y="527" on="1"/>
        <pt x="489" y="488" on="0"/>
        <pt x="445" y="405" on="0"/>
        <pt x="414" y="377" on="1"/>
        <pt x="468" y="341" on="0"/>
        <pt x="522" y="268" on="0"/>
        <pt x="522" y="207" on="1"/>
        <pt x="522" y="107" on="0"/>
        <pt x="389" y="-8" on="0"/>
        <pt x="152" y="-8" on="0"/>
        <pt x="34" y="90" on="0"/>
        <pt x="34" y="192" on="1"/>
        <pt x="34" y="246" on="0"/>
        <pt x="90" y="337" on="0"/>
        <pt x="138" y="366" on="1"/>
        <pt x="102" y="398" on="0"/>
        <pt x="67" y="464" on="0"/>
      </contour>
      <contour>
        <pt x="180" y="204" on="1"/>
        <pt x="180" y="93" on="0"/>
        <pt x="376" y="93" on="0"/>
        <pt x="376" y="187" on="1"/>
        <pt x="376" y="239" on="0"/>
        <pt x="338" y="268" on="1"/>
        <pt x="308" y="290" on="0"/>
        <pt x="242" y="316" on="0"/>
        <pt x="234" y="320" on="1"/>
        <pt x="180" y="274" on="0"/>
      </contour>
      <contour>
        <pt x="236" y="608" on="0"/>
        <pt x="193" y="568" on="0"/>
        <pt x="193" y="510" on="0"/>
        <pt x="208" y="477" on="0"/>
        <pt x="240" y="454" on="0"/>
        <pt x="264" y="441" on="0"/>
        <pt x="309" y="424" on="0"/>
        <pt x="317" y="420" on="1"/>
        <pt x="363" y="466" on="0"/>
        <pt x="363" y="567" on="0"/>
        <pt x="319" y="608" on="0"/>
      </contour>
    </TTGlyph>
    <TTGlyph name="ellipsis" xMin="37" yMin="-10" xMax="776" yMax="141">
      <contour>
        <pt x="37" y="-10" on="0"/>
        <pt x="37" y="141" on="0"/>
        <pt x="204" y="141" on="0"/>
        <pt x="204" y="-10" on="0"/>
      </contour>
      <contour>
        <pt x="323" y="-10" on="0"/>
        <pt x="323" y="141" on="0"/>
        <pt x="490" y="141" on="0"/>
        <pt x="490" y="-10" on="0"/>
      </contour>
      <contour>
        <pt x="609" y="-10" on="0"/>
        <pt x="609" y="141" on="0"/>
        <pt x="776" y="141" on="0"/>
        <pt x="776" y="-10" on="0"/>
      </contour>
    </TTGlyph>
    <TTGlyph name="emdash" xMin="46" yMin="220" xMax="709" yMax="319">
      <contour>
        <pt x="619" y="220" on="1"/>
        <pt x="56" y="220" on="1"/>
        <pt x="46" y="284" on="1"/>
        <pt x="77" y="319" on="0"/>
        <pt x="136" y="319" on="1"/>
        <pt x="699" y="319" on="1"/>
        <pt x="709" y="255" on="1"/>
        <pt x="679" y="220" on="0"/>
      </contour>
    </TTGlyph>
    <TTGlyph name="endash" xMin="46" yMin="220" xMax="483" yMax="319">
      <contour>
        <pt x="393" y="220" on="1"/>
        <pt x="56" y="220" on="1"/>
        <pt x="46" y="284" on="1"/>
        <pt x="77" y="319" on="0"/>
        <pt x="136" y="319" on="1"/>
        <pt x="473" y="319" on="1"/>
        <pt x="483" y="255" on="1"/>
        <pt x="453" y="220" on="0"/>
      </contour>
    </TTGlyph>
    <TTGlyph name="equal" xMin="52" yMin="108" xMax="511" yMax="402">
      <contour>
        <pt x="421" y="305" on="1"/>
        <pt x="62" y="305" on="1"/>
        <pt x="52" y="367" on="1"/>
        <pt x="83" y="402" on="0"/>
        <pt x="142" y="402" on="1"/>
        <pt x="501" y="402" on="1"/>
        <pt x="511" y="340" on="1"/>
        <pt x="481" y="305" on="0"/>
      </contour>
      <contour>
        <pt x="421" y="108" on="1"/>
        <pt x="62" y="108" on="1"/>
        <pt x="52" y="170" on="1"/>
        <pt x="83" y="205" on="0"/>
        <pt x="142" y="205" on="1"/>
        <pt x="501" y="205" on="1"/>
        <pt x="511" y="143" on="1"/>
        <pt x="481" y="108" on="0"/>
      </contour>
    </TTGlyph>
    <TTGlyph name="eth" xMin="27" yMin="-8" xMax="497" yMax="728">
      <contour>
        <pt x="497" y="286" on="1"/>
        <pt x="497" y="156" on="0"/>
        <pt x="377" y="-8" on="0"/>
        <pt x="271" y="-8" on="1"/>
        <pt x="145" y="-8" on="0"/>
        <pt x="27" y="99" on="0"/>
        <pt x="27" y="330" on="0"/>
        <pt x="144" y="458" on="0"/>
        <pt x="237" y="458" on="1"/>
        <pt x="291" y="458" on="0"/>
        <pt x="337" y="441" on="1"/>
        <pt x="324" y="492" on="0"/>
        <pt x="299" y="533" on="1"/>
        <pt x="255" y="494" on="1"/>
        <pt x="201" y="530" on="1"/>
        <pt x="203" y="562" on="0"/>
        <pt x="232" y="587" on="1"/>
        <pt x="247" y="600" on="1"/>
        <pt x="241" y="607" on="0"/>
        <pt x="198" y="644" on="1"/>
        <pt x="265" y="728" on="1"/>
        <pt x="298" y="708" on="0"/>
        <pt x="335" y="678" on="1"/>
        <pt x="384" y="722" on="1"/>
        <pt x="438" y="686" on="1"/>
        <pt x="437" y="655" on="0"/>
        <pt x="407" y="629" on="1"/>
        <pt x="394" y="617" on="1"/>
        <pt x="497" y="487" on="0"/>
      </contour>
      <contour>
        <pt x="353" y="292" on="1"/>
        <pt x="353" y="311" on="0"/>
        <pt x="351" y="343" on="1"/>
        <pt x="314" y="360" on="0"/>
        <pt x="255" y="360" on="1"/>
        <pt x="171" y="360" on="0"/>
        <pt x="171" y="231" on="1"/>
        <pt x="171" y="162" on="0"/>
        <pt x="213" y="88" on="0"/>
        <pt x="316" y="88" on="0"/>
        <pt x="353" y="188" on="0"/>
      </contour>
    </TTGlyph>
    <TTGlyph name="exclam" xMin="60" yMin="-10" xMax="219" yMax="690">
      <contour>
        <pt x="62" y="510" on="1"/>
        <pt x="62" y="594" on="0"/>
        <pt x="69" y="690" on="1"/>
        <pt x="211" y="690" on="1"/>
        <pt x="217" y="601" on="0"/>
        <pt x="217" y="522" on="1"/>
        <pt x="217" y="335" on="0"/>
        <pt x="184" y="202" on="1"/>
        <pt x="94" y="202" on="1"/>
        <pt x="62" y="332" on="0"/>
      </contour>
      <contour>
        <pt x="60" y="-10" on="0"/>
        <pt x="60" y="138" on="0"/>
        <pt x="219" y="138" on="0"/>
        <pt x="219" y="-10" on="0"/>
      </contour>
    </TTGlyph>
    <TTGlyph name="exclamdown" xMin="59" yMin="0" xMax="218" yMax="700">
      <contour>
        <pt x="61" y="168" on="1"/>
        <pt x="61" y="355" on="0"/>
        <pt x="94" y="488" on="1"/>
        <pt x="184" y="488" on="1"/>
        <pt x="216" y="358" on="0"/>
        <pt x="216" y="180" on="1"/>
        <pt x="216" y="96" on="0"/>
        <pt x="209" y="0" on="1"/>
        <pt x="67" y="0" on="1"/>
        <pt x="61" y="89" on="0"/>
      </contour>
      <contour>
        <pt x="218" y="700" on="0"/>
        <pt x="218" y="552" on="0"/>
        <pt x="59" y="552" on="0"/>
        <pt x="59" y="700" on="0"/>
      </contour>
    </TTGlyph>
    <TTGlyph name="f" xMin="26" yMin="0" xMax="441" yMax="728">
      <contour>
        <pt x="81" y="519" on="1"/>
        <pt x="81" y="623" on="0"/>
        <pt x="171" y="728" on="0"/>
        <pt x="367" y="728" on="0"/>
        <pt x="439" y="675" on="1"/>
        <pt x="440" y="668" on="0"/>
        <pt x="440" y="641" on="0"/>
        <pt x="426" y="579" on="0"/>
        <pt x="414" y="560" on="1"/>
        <pt x="330" y="560" on="1"/>
        <pt x="312" y="594" on="0"/>
        <pt x="311" y="624" on="1"/>
        <pt x="299" y="626" on="0"/>
        <pt x="291" y="626" on="1"/>
        <pt x="253" y="626" on="0"/>
        <pt x="221" y="584" on="0"/>
        <pt x="221" y="529" on="1"/>
        <pt x="221" y="491" on="1"/>
        <pt x="374" y="491" on="1"/>
        <pt x="374" y="399" on="1"/>
        <pt x="221" y="399" on="1"/>
        <pt x="221" y="116" on="1"/>
        <pt x="296" y="101" on="0"/>
        <pt x="323" y="77" on="1"/>
        <pt x="313" y="0" on="1"/>
        <pt x="36" y="0" on="1"/>
        <pt x="26" y="77" on="1"/>
        <pt x="40" y="96" on="0"/>
        <pt x="81" y="111" on="1"/>
        <pt x="81" y="399" on="1"/>
        <pt x="37" y="399" on="1"/>
        <pt x="26" y="468" on="1"/>
        <pt x="48" y="488" on="0"/>
        <pt x="81" y="491" on="1"/>
      </contour>
    </TTGlyph>
    <TTGlyph name="fi" xMin="26" yMin="0" xMax="605" yMax="728">
      <contour>
        <pt x="484" y="563" on="1"/>
        <pt x="457" y="563" on="0"/>
        <pt x="413" y="587" on="0"/>
        <pt x="400" y="603" on="0"/>
        <pt x="389" y="618" on="1"/>
        <pt x="350" y="626" on="0"/>
        <pt x="255" y="626" on="0"/>
        <pt x="221" y="584" on="0"/>
        <pt x="221" y="529" on="1"/>
        <pt x="221" y="485" on="1"/>
        <pt x="365" y="485" on="1"/>
        <pt x="421" y="498" on="0"/>
        <pt x="517" y="498" on="0"/>
        <pt x="550" y="495" on="1"/>
        <pt x="550" y="111" on="1"/>
        <pt x="589" y="96" on="0"/>
        <pt x="605" y="77" on="1"/>
        <pt x="595" y="0" on="1"/>
        <pt x="365" y="0" on="1"/>
        <pt x="355" y="77" on="1"/>
        <pt x="369" y="96" on="0"/>
        <pt x="410" y="111" on="1"/>
        <pt x="410" y="393" on="1"/>
        <pt x="221" y="393" on="1"/>
        <pt x="221" y="113" on="1"/>
        <pt x="264" y="98" on="0"/>
        <pt x="287" y="77" on="1"/>
        <pt x="277" y="0" on="1"/>
        <pt x="36" y="0" on="1"/>
        <pt x="26" y="77" on="1"/>
        <pt x="40" y="96" on="0"/>
        <pt x="81" y="111" on="1"/>
        <pt x="81" y="393" on="1"/>
        <pt x="37" y="393" on="1"/>
        <pt x="26" y="462" on="1"/>
        <pt x="48" y="482" on="0"/>
        <pt x="81" y="485" on="1"/>
        <pt x="81" y="538" on="1"/>
        <pt x="81" y="637" on="0"/>
        <pt x="181" y="728" on="0"/>
        <pt x="405" y="728" on="0"/>
        <pt x="562" y="686" on="0"/>
        <pt x="562" y="636" on="1"/>
        <pt x="562" y="563" on="0"/>
      </contour>
    </TTGlyph>
    <TTGlyph name="five" xMin="28" yMin="-8" xMax="472" yMax="690">
      <contour>
        <pt x="263" y="442" on="1"/>
        <pt x="361" y="442" on="0"/>
        <pt x="472" y="337" on="0"/>
        <pt x="472" y="233" on="1"/>
        <pt x="472" y="110" on="0"/>
        <pt x="327" y="-8" on="0"/>
        <pt x="197" y="-8" on="1"/>
        <pt x="155" y="-8" on="0"/>
        <pt x="55" y="16" on="0"/>
        <pt x="28" y="32" on="1"/>
        <pt x="60" y="119" on="1"/>
        <pt x="117" y="97" on="0"/>
        <pt x="249" y="97" on="0"/>
        <pt x="315" y="151" on="0"/>
        <pt x="315" y="211" on="1"/>
        <pt x="315" y="292" on="0"/>
        <pt x="277" y="318" on="1"/>
        <pt x="247" y="339" on="0"/>
        <pt x="163" y="339" on="0"/>
        <pt x="96" y="329" on="1"/>
        <pt x="56" y="403" on="1"/>
        <pt x="55" y="403" on="1"/>
        <pt x="55" y="690" on="1"/>
        <pt x="424" y="690" on="1"/>
        <pt x="424" y="576" on="1"/>
        <pt x="180" y="576" on="1"/>
        <pt x="180" y="436" on="1"/>
        <pt x="212" y="442" on="0"/>
      </contour>
    </TTGlyph>
    <TTGlyph name="fl" xMin="25" yMin="0" xMax="622" yMax="728">
      <contour>
        <pt x="80" y="519" on="1"/>
        <pt x="80" y="622" on="0"/>
        <pt x="171" y="728" on="0"/>
        <pt x="275" y="728" on="1"/>
        <pt x="326" y="728" on="0"/>
        <pt x="380" y="710" on="1"/>
        <pt x="444" y="722" on="0"/>
        <pt x="539" y="722" on="0"/>
        <pt x="567" y="720" on="1"/>
        <pt x="567" y="111" on="1"/>
        <pt x="606" y="96" on="0"/>
        <pt x="622" y="77" on="1"/>
        <pt x="612" y="0" on="1"/>
        <pt x="382" y="0" on="1"/>
        <pt x="372" y="77" on="1"/>
        <pt x="386" y="96" on="0"/>
        <pt x="427" y="111" on="1"/>
        <pt x="427" y="595" on="1"/>
        <pt x="353" y="626" on="0"/>
        <pt x="256" y="626" on="0"/>
        <pt x="220" y="584" on="0"/>
        <pt x="220" y="529" on="1"/>
        <pt x="220" y="445" on="1"/>
        <pt x="373" y="445" on="1"/>
        <pt x="373" y="353" on="1"/>
        <pt x="220" y="353" on="1"/>
        <pt x="220" y="116" on="1"/>
        <pt x="295" y="101" on="0"/>
        <pt x="322" y="77" on="1"/>
        <pt x="312" y="0" on="1"/>
        <pt x="35" y="0" on="1"/>
        <pt x="25" y="77" on="1"/>
        <pt x="39" y="96" on="0"/>
        <pt x="80" y="111" on="1"/>
        <pt x="80" y="353" on="1"/>
        <pt x="36" y="353" on="1"/>
        <pt x="25" y="422" on="1"/>
        <pt x="47" y="442" on="0"/>
        <pt x="80" y="445" on="1"/>
      </contour>
    </TTGlyph>
    <TTGlyph name="florin" xMin="28" yMin="-208" xMax="612" yMax="728">
      <contour>
        <pt x="455" y="626" on="1"/>
        <pt x="417" y="626" on="0"/>
        <pt x="383" y="584" on="0"/>
        <pt x="383" y="529" on="1"/>
        <pt x="383" y="445" on="1"/>
        <pt x="536" y="445" on="1"/>
        <pt x="536" y="353" on="1"/>
        <pt x="383" y="353" on="1"/>
        <pt x="383" y="0" on="1"/>
        <pt x="383" y="-116" on="0"/>
        <pt x="296" y="-208" on="0"/>
        <pt x="100" y="-208" on="0"/>
        <pt x="29" y="-156" on="1"/>
        <pt x="28" y="-147" on="0"/>
        <pt x="28" y="-138" on="1"/>
        <pt x="28" y="-84" on="0"/>
        <pt x="54" y="-33" on="1"/>
        <pt x="140" y="-33" on="1"/>
        <pt x="158" y="-63" on="0"/>
        <pt x="160" y="-105" on="1"/>
        <pt x="166" y="-106" on="0"/>
        <pt x="177" y="-106" on="1"/>
        <pt x="212" y="-106" on="0"/>
        <pt x="243" y="-64" on="0"/>
        <pt x="243" y="-9" on="1"/>
        <pt x="243" y="353" on="1"/>
        <pt x="199" y="353" on="1"/>
        <pt x="188" y="422" on="1"/>
        <pt x="210" y="442" on="0"/>
        <pt x="243" y="445" on="1"/>
        <pt x="243" y="519" on="1"/>
        <pt x="243" y="622" on="0"/>
        <pt x="334" y="728" on="0"/>
        <pt x="539" y="728" on="0"/>
        <pt x="611" y="675" on="1"/>
        <pt x="612" y="666" on="0"/>
        <pt x="612" y="656" on="1"/>
        <pt x="612" y="600" on="0"/>
        <pt x="586" y="549" on="1"/>
        <pt x="498" y="549" on="1"/>
        <pt x="480" y="582" on="0"/>
        <pt x="479" y="624" on="1"/>
        <pt x="463" y="626" on="0"/>
      </contour>
    </TTGlyph>
    <TTGlyph name="four" xMin="6" yMin="0" xMax="533" yMax="714">
      <contour>
        <pt x="459" y="282" on="1"/>
        <pt x="533" y="282" on="1"/>
        <pt x="533" y="182" on="1"/>
        <pt x="459" y="182" on="1"/>
        <pt x="459" y="113" on="1"/>
        <pt x="498" y="98" on="0"/>
        <pt x="514" y="79" on="1"/>
        <pt x="504" y="0" on="1"/>
        <pt x="250" y="0" on="1"/>
        <pt x="240" y="79" on="1"/>
        <pt x="259" y="102" on="0"/>
        <pt x="321" y="118" on="1"/>
        <pt x="321" y="182" on="1"/>
        <pt x="32" y="182" on="1"/>
        <pt x="6" y="261" on="1"/>
        <pt x="219" y="714" on="1"/>
        <pt x="321" y="670" on="1"/>
        <pt x="192" y="366" on="1"/>
        <pt x="172" y="320" on="0"/>
        <pt x="148" y="292" on="1"/>
        <pt x="139" y="281" on="1"/>
        <pt x="144" y="270" on="1"/>
        <pt x="178" y="282" on="0"/>
        <pt x="230" y="282" on="1"/>
        <pt x="321" y="282" on="1"/>
        <pt x="321" y="425" on="1"/>
        <pt x="321" y="552" on="0"/>
        <pt x="355" y="606" on="1"/>
        <pt x="459" y="595" on="1"/>
      </contour>
    </TTGlyph>
    <TTGlyph name="fraction" xMin="4" yMin="-23" xMax="417" yMax="720">
      <contour>
        <pt x="4" y="-1" on="1"/>
        <pt x="-11" y="46" on="0"/>
        <pt x="18" y="98" on="1"/>
        <pt x="348" y="720" on="1"/>
        <pt x="411" y="698" on="1"/>
        <pt x="416" y="682" on="0"/>
        <pt x="416" y="634" on="0"/>
        <pt x="397" y="598" on="1"/>
        <pt x="67" y="-23" on="1"/>
      </contour>
    </TTGlyph>
    <TTGlyph name="g" xMin="27" yMin="-208" xMax="485" yMax="508">
      <contour>
        <pt x="256" y="-106" on="1"/>
        <pt x="345" y="-106" on="0"/>
        <pt x="345" y="1" on="1"/>
        <pt x="345" y="45" on="1"/>
        <pt x="296" y="15" on="0"/>
        <pt x="222" y="15" on="1"/>
        <pt x="128" y="15" on="0"/>
        <pt x="27" y="125" on="0"/>
        <pt x="27" y="253" on="1"/>
        <pt x="27" y="508" on="0"/>
        <pt x="261" y="508" on="1"/>
        <pt x="321" y="508" on="0"/>
        <pt x="373" y="482" on="1"/>
        <pt x="383" y="500" on="0"/>
        <pt x="403" y="500" on="1"/>
        <pt x="485" y="500" on="1"/>
        <pt x="485" y="8" on="1"/>
        <pt x="485" y="-102" on="0"/>
        <pt x="376" y="-208" on="0"/>
        <pt x="262" y="-208" on="1"/>
        <pt x="202" y="-208" on="0"/>
        <pt x="74" y="-180" on="0"/>
        <pt x="41" y="-159" on="1"/>
        <pt x="40" y="-150" on="0"/>
        <pt x="40" y="-141" on="1"/>
        <pt x="40" y="-86" on="0"/>
        <pt x="66" y="-35" on="1"/>
        <pt x="154" y="-35" on="1"/>
        <pt x="165" y="-56" on="0"/>
        <pt x="170" y="-91" on="1"/>
        <pt x="208" y="-106" on="0"/>
      </contour>
      <contour>
        <pt x="165" y="184" on="0"/>
        <pt x="206" y="124" on="0"/>
        <pt x="305" y="124" on="0"/>
        <pt x="345" y="152" on="1"/>
        <pt x="345" y="389" on="1"/>
        <pt x="305" y="406" on="0"/>
        <pt x="258" y="406" on="1"/>
        <pt x="165" y="406" on="0"/>
        <pt x="165" y="259" on="1"/>
      </contour>
    </TTGlyph>
    <TTGlyph name="germandbls" xMin="14" yMin="-9" xMax="567" yMax="728">
      <contour>
        <pt x="209" y="0" on="1"/>
        <pt x="24" y="0" on="1"/>
        <pt x="14" y="77" on="1"/>
        <pt x="28" y="96" on="0"/>
        <pt x="69" y="111" on="1"/>
        <pt x="69" y="519" on="1"/>
        <pt x="69" y="623" on="0"/>
        <pt x="159" y="728" on="0"/>
        <pt x="354" y="728" on="0"/>
        <pt x="478" y="642" on="0"/>
        <pt x="478" y="570" on="1"/>
        <pt x="478" y="511" on="0"/>
        <pt x="412" y="424" on="1"/>
        <pt x="389" y="394" on="0"/>
        <pt x="389" y="362" on="0"/>
        <pt x="445" y="313" on="0"/>
        <pt x="511" y="265" on="0"/>
        <pt x="567" y="185" on="0"/>
        <pt x="567" y="143" on="1"/>
        <pt x="567" y="71" on="0"/>
        <pt x="465" y="-8" on="0"/>
        <pt x="377" y="-8" on="1"/>
        <pt x="315" y="-8" on="0"/>
        <pt x="261" y="0" on="1"/>
        <pt x="276" y="98" on="1"/>
        <pt x="307" y="89" on="0"/>
        <pt x="391" y="89" on="0"/>
        <pt x="435" y="114" on="0"/>
        <pt x="435" y="160" on="0"/>
        <pt x="380" y="212" on="0"/>
        <pt x="315" y="252" on="0"/>
        <pt x="260" y="319" on="0"/>
        <pt x="260" y="381" on="0"/>
        <pt x="291" y="434" on="0"/>
        <pt x="327" y="473" on="0"/>
        <pt x="358" y="532" on="0"/>
        <pt x="358" y="589" on="0"/>
        <pt x="313" y="626" on="0"/>
        <pt x="241" y="626" on="0"/>
        <pt x="209" y="584" on="0"/>
        <pt x="209" y="529" on="1"/>
      </contour>
    </TTGlyph>
    <TTGlyph name="grave" xMin="133" yMin="569" xMax="328" yMax="796">
      <contour>
        <pt x="328" y="600" on="1"/>
        <pt x="274" y="569" on="1"/>
        <pt x="233" y="595" on="0"/>
        <pt x="147" y="692" on="0"/>
        <pt x="133" y="732" on="1"/>
        <pt x="237" y="796" on="1"/>
        <pt x="266" y="767" on="0"/>
        <pt x="322" y="644" on="0"/>
      </contour>
    </TTGlyph>
    <TTGlyph name="greater" xMin="40" yMin="60" xMax="368" yMax="618">
      <contour>
        <pt x="84" y="60" on="1"/>
        <pt x="40" y="98" on="1"/>
        <pt x="77" y="196" on="0"/>
        <pt x="200" y="339" on="1"/>
        <pt x="79" y="478" on="0"/>
        <pt x="40" y="581" on="1"/>
        <pt x="84" y="618" on="1"/>
        <pt x="141" y="593" on="0"/>
        <pt x="324" y="416" on="0"/>
        <pt x="368" y="339" on="1"/>
        <pt x="324" y="262" on="0"/>
        <pt x="141" y="85" on="0"/>
      </contour>
    </TTGlyph>
    <TTGlyph name="guillemotleft" xMin="24" yMin="38" xMax="504" yMax="457">
      <contour>
        <pt x="457" y="457" on="1"/>
        <pt x="504" y="422" on="1"/>
        <pt x="495" y="390" on="0"/>
        <pt x="438" y="291" on="0"/>
        <pt x="403" y="247" on="1"/>
        <pt x="482" y="149" on="0"/>
        <pt x="504" y="73" on="1"/>
        <pt x="457" y="38" on="1"/>
        <pt x="416" y="55" on="0"/>
        <pt x="288" y="188" on="0"/>
        <pt x="254" y="247" on="1"/>
        <pt x="288" y="306" on="0"/>
        <pt x="416" y="439" on="0"/>
      </contour>
      <contour>
        <pt x="227" y="457" on="1"/>
        <pt x="274" y="422" on="1"/>
        <pt x="265" y="390" on="0"/>
        <pt x="208" y="291" on="0"/>
        <pt x="173" y="247" on="1"/>
        <pt x="252" y="149" on="0"/>
        <pt x="274" y="73" on="1"/>
        <pt x="227" y="38" on="1"/>
        <pt x="186" y="55" on="0"/>
        <pt x="58" y="188" on="0"/>
        <pt x="24" y="247" on="1"/>
        <pt x="58" y="306" on="0"/>
        <pt x="186" y="439" on="0"/>
      </contour>
    </TTGlyph>
    <TTGlyph name="guillemotright" xMin="34" yMin="38" xMax="514" yMax="457">
      <contour>
        <pt x="34" y="422" on="1"/>
        <pt x="81" y="457" on="1"/>
        <pt x="122" y="439" on="0"/>
        <pt x="250" y="306" on="0"/>
        <pt x="284" y="247" on="1"/>
        <pt x="250" y="188" on="0"/>
        <pt x="122" y="55" on="0"/>
        <pt x="81" y="38" on="1"/>
        <pt x="34" y="73" on="1"/>
        <pt x="56" y="149" on="0"/>
        <pt x="135" y="247" on="1"/>
        <pt x="100" y="291" on="0"/>
        <pt x="43" y="390" on="0"/>
      </contour>
      <contour>
        <pt x="264" y="422" on="1"/>
        <pt x="311" y="457" on="1"/>
        <pt x="352" y="439" on="0"/>
        <pt x="480" y="306" on="0"/>
        <pt x="514" y="247" on="1"/>
        <pt x="480" y="188" on="0"/>
        <pt x="352" y="55" on="0"/>
        <pt x="311" y="38" on="1"/>
        <pt x="264" y="73" on="1"/>
        <pt x="286" y="149" on="0"/>
        <pt x="365" y="247" on="1"/>
        <pt x="330" y="291" on="0"/>
        <pt x="273" y="390" on="0"/>
      </contour>
    </TTGlyph>
    <TTGlyph name="guilsinglleft" xMin="24" yMin="38" xMax="274" yMax="457">
      <contour>
        <pt x="227" y="457" on="1"/>
        <pt x="274" y="422" on="1"/>
        <pt x="265" y="390" on="0"/>
        <pt x="208" y="291" on="0"/>
        <pt x="173" y="247" on="1"/>
        <pt x="252" y="149" on="0"/>
        <pt x="274" y="73" on="1"/>
        <pt x="227" y="38" on="1"/>
        <pt x="186" y="55" on="0"/>
        <pt x="58" y="188" on="0"/>
        <pt x="24" y="247" on="1"/>
        <pt x="58" y="306" on="0"/>
        <pt x="186" y="439" on="0"/>
      </contour>
    </TTGlyph>
    <TTGlyph name="guilsinglright" xMin="34" yMin="38" xMax="284" yMax="457">
      <contour>
        <pt x="34" y="422" on="1"/>
        <pt x="81" y="457" on="1"/>
        <pt x="122" y="439" on="0"/>
        <pt x="250" y="306" on="0"/>
        <pt x="284" y="247" on="1"/>
        <pt x="250" y="188" on="0"/>
        <pt x="122" y="55" on="0"/>
        <pt x="81" y="38" on="1"/>
        <pt x="34" y="73" on="1"/>
        <pt x="56" y="149" on="0"/>
        <pt x="135" y="247" on="1"/>
        <pt x="100" y="291" on="0"/>
        <pt x="43" y="390" on="0"/>
      </contour>
    </TTGlyph>
    <TTGlyph name="h" xMin="14" yMin="0" xMax="574" yMax="723">
      <contour>
        <pt x="24" y="710" on="1"/>
        <pt x="80" y="723" on="0"/>
        <pt x="176" y="723" on="0"/>
        <pt x="209" y="720" on="1"/>
        <pt x="209" y="470" on="1"/>
        <pt x="233" y="486" on="0"/>
        <pt x="313" y="508" on="0"/>
        <pt x="344" y="508" on="1"/>
        <pt x="443" y="508" on="0"/>
        <pt x="519" y="412" on="0"/>
        <pt x="519" y="314" on="1"/>
        <pt x="519" y="111" on="1"/>
        <pt x="558" y="96" on="0"/>
        <pt x="574" y="77" on="1"/>
        <pt x="564" y="0" on="1"/>
        <pt x="334" y="0" on="1"/>
        <pt x="324" y="77" on="1"/>
        <pt x="338" y="96" on="0"/>
        <pt x="379" y="111" on="1"/>
        <pt x="379" y="309" on="1"/>
        <pt x="379" y="363" on="0"/>
        <pt x="344" y="400" on="0"/>
        <pt x="252" y="400" on="0"/>
        <pt x="209" y="368" on="1"/>
        <pt x="209" y="111" on="1"/>
        <pt x="248" y="96" on="0"/>
        <pt x="264" y="77" on="1"/>
        <pt x="254" y="0" on="1"/>
        <pt x="24" y="0" on="1"/>
        <pt x="14" y="77" on="1"/>
        <pt x="28" y="96" on="0"/>
        <pt x="69" y="111" on="1"/>
        <pt x="69" y="599" on="1"/>
        <pt x="34" y="611" on="0"/>
        <pt x="14" y="633" on="1"/>
      </contour>
    </TTGlyph>
    <TTGlyph name="hungarumlaut" xMin="6" yMin="611" xMax="409" yMax="831">
      <contour>
        <pt x="125" y="821" on="1"/>
        <pt x="137" y="830" on="0"/>
        <pt x="159" y="830" on="0"/>
        <pt x="168" y="827" on="1"/>
        <pt x="193" y="818" on="0"/>
        <pt x="202" y="796" on="1"/>
        <pt x="207" y="786" on="0"/>
        <pt x="207" y="762" on="0"/>
        <pt x="200" y="747" on="1"/>
        <pt x="161" y="678" on="0"/>
        <pt x="38" y="611" on="1"/>
        <pt x="6" y="647" on="1"/>
      </contour>
      <contour>
        <pt x="327" y="821" on="1"/>
        <pt x="339" y="830" on="0"/>
        <pt x="361" y="830" on="0"/>
        <pt x="370" y="827" on="1"/>
        <pt x="395" y="818" on="0"/>
        <pt x="404" y="796" on="1"/>
        <pt x="409" y="786" on="0"/>
        <pt x="409" y="762" on="0"/>
        <pt x="402" y="747" on="1"/>
        <pt x="363" y="678" on="0"/>
        <pt x="240" y="611" on="1"/>
        <pt x="208" y="647" on="1"/>
      </contour>
    </TTGlyph>
    <TTGlyph name="hyphen" xMin="46" yMin="220" xMax="376" yMax="319">
      <contour>
        <pt x="286" y="220" on="1"/>
        <pt x="56" y="220" on="1"/>
        <pt x="46" y="284" on="1"/>
        <pt x="77" y="319" on="0"/>
        <pt x="136" y="319" on="1"/>
        <pt x="366" y="319" on="1"/>
        <pt x="376" y="255" on="1"/>
        <pt x="346" y="220" on="0"/>
      </contour>
    </TTGlyph>
    <TTGlyph name="i" xMin="28" yMin="0" xMax="278" yMax="720">
      <contour>
        <pt x="38" y="500" on="1"/>
        <pt x="94" y="513" on="0"/>
        <pt x="190" y="513" on="0"/>
        <pt x="223" y="510" on="1"/>
        <pt x="223" y="111" on="1"/>
        <pt x="262" y="96" on="0"/>
        <pt x="278" y="77" on="1"/>
        <pt x="268" y="0" on="1"/>
        <pt x="38" y="0" on="1"/>
        <pt x="28" y="77" on="1"/>
        <pt x="42" y="96" on="0"/>
        <pt x="83" y="111" on="1"/>
        <pt x="83" y="389" on="1"/>
        <pt x="48" y="401" on="0"/>
        <pt x="28" y="423" on="1"/>
      </contour>
      <contour>
        <pt x="68" y="569" on="0"/>
        <pt x="68" y="720" on="0"/>
        <pt x="235" y="720" on="0"/>
        <pt x="235" y="569" on="0"/>
      </contour>
    </TTGlyph>
    <TTGlyph name="iacute" xMin="28" yMin="0" xMax="278" yMax="796">
      <contour>
        <pt x="115" y="569" on="1"/>
        <pt x="61" y="600" on="1"/>
        <pt x="67" y="644" on="0"/>
        <pt x="123" y="767" on="0"/>
        <pt x="152" y="796" on="1"/>
        <pt x="256" y="732" on="1"/>
        <pt x="242" y="692" on="0"/>
        <pt x="156" y="595" on="0"/>
      </contour>
      <contour>
        <pt x="38" y="500" on="1"/>
        <pt x="94" y="513" on="0"/>
        <pt x="190" y="513" on="0"/>
        <pt x="223" y="510" on="1"/>
        <pt x="223" y="111" on="1"/>
        <pt x="262" y="96" on="0"/>
        <pt x="278" y="77" on="1"/>
        <pt x="268" y="0" on="1"/>
        <pt x="38" y="0" on="1"/>
        <pt x="28" y="77" on="1"/>
        <pt x="42" y="96" on="0"/>
        <pt x="83" y="111" on="1"/>
        <pt x="83" y="389" on="1"/>
        <pt x="48" y="401" on="0"/>
        <pt x="28" y="423" on="1"/>
      </contour>
    </TTGlyph>
    <TTGlyph name="icircumflex" xMin="-13" yMin="0" xMax="307" yMax="784">
      <contour>
        <pt x="38" y="500" on="1"/>
        <pt x="94" y="513" on="0"/>
        <pt x="190" y="513" on="0"/>
        <pt x="223" y="510" on="1"/>
        <pt x="223" y="111" on="1"/>
        <pt x="262" y="96" on="0"/>
        <pt x="278" y="77" on="1"/>
        <pt x="268" y="0" on="1"/>
        <pt x="38" y="0" on="1"/>
        <pt x="28" y="77" on="1"/>
        <pt x="42" y="96" on="0"/>
        <pt x="83" y="111" on="1"/>
        <pt x="83" y="389" on="1"/>
        <pt x="48" y="401" on="0"/>
        <pt x="28" y="423" on="1"/>
      </contour>
      <contour>
        <pt x="307" y="610" on="1"/>
        <pt x="271" y="569" on="1"/>
        <pt x="225" y="582" on="0"/>
        <pt x="147" y="649" on="1"/>
        <pt x="69" y="582" on="0"/>
        <pt x="23" y="569" on="1"/>
        <pt x="-13" y="610" on="1"/>
        <pt x="0" y="645" on="0"/>
        <pt x="102" y="754" on="0"/>
        <pt x="147" y="784" on="1"/>
        <pt x="192" y="754" on="0"/>
        <pt x="294" y="645" on="0"/>
      </contour>
    </TTGlyph>
    <TTGlyph name="idieresis" xMin="-27" yMin="0" xMax="318" yMax="771">
      <contour>
        <pt x="-27" y="699" on="1"/>
        <pt x="-27" y="771" on="0"/>
        <pt x="128" y="771" on="0"/>
        <pt x="128" y="628" on="0"/>
        <pt x="50" y="628" on="1"/>
        <pt x="12" y="628" on="0"/>
        <pt x="-27" y="660" on="0"/>
      </contour>
      <contour>
        <pt x="163" y="628" on="0"/>
        <pt x="163" y="771" on="0"/>
        <pt x="318" y="771" on="0"/>
        <pt x="318" y="628" on="0"/>
      </contour>
      <contour>
        <pt x="38" y="500" on="1"/>
        <pt x="94" y="513" on="0"/>
        <pt x="190" y="513" on="0"/>
        <pt x="223" y="510" on="1"/>
        <pt x="223" y="111" on="1"/>
        <pt x="262" y="96" on="0"/>
        <pt x="278" y="77" on="1"/>
        <pt x="268" y="0" on="1"/>
        <pt x="38" y="0" on="1"/>
        <pt x="28" y="77" on="1"/>
        <pt x="42" y="96" on="0"/>
        <pt x="83" y="111" on="1"/>
        <pt x="83" y="389" on="1"/>
        <pt x="48" y="401" on="0"/>
        <pt x="28" y="423" on="1"/>
      </contour>
    </TTGlyph>
    <TTGlyph name="igrave" xMin="22" yMin="0" xMax="278" yMax="796">
      <contour>
        <pt x="38" y="500" on="1"/>
        <pt x="94" y="513" on="0"/>
        <pt x="190" y="513" on="0"/>
        <pt x="223" y="510" on="1"/>
        <pt x="223" y="111" on="1"/>
        <pt x="262" y="96" on="0"/>
        <pt x="278" y="77" on="1"/>
        <pt x="268" y="0" on="1"/>
        <pt x="38" y="0" on="1"/>
        <pt x="28" y="77" on="1"/>
        <pt x="42" y="96" on="0"/>
        <pt x="83" y="111" on="1"/>
        <pt x="83" y="389" on="1"/>
        <pt x="48" y="401" on="0"/>
        <pt x="28" y="423" on="1"/>
      </contour>
      <contour>
        <pt x="217" y="600" on="1"/>
        <pt x="163" y="569" on="1"/>
        <pt x="122" y="595" on="0"/>
        <pt x="36" y="692" on="0"/>
        <pt x="22" y="732" on="1"/>
        <pt x="126" y="796" on="1"/>
        <pt x="155" y="767" on="0"/>
        <pt x="211" y="644" on="0"/>
      </contour>
    </TTGlyph>
    <TTGlyph name="j" xMin="-36" yMin="-208" xMax="222" yMax="720">
      <contour>
        <pt x="25" y="500" on="1"/>
        <pt x="81" y="513" on="0"/>
        <pt x="177" y="513" on="0"/>
        <pt x="210" y="510" on="1"/>
        <pt x="210" y="0" on="1"/>
        <pt x="210" y="-116" on="0"/>
        <pt x="123" y="-208" on="0"/>
        <pt x="21" y="-208" on="1"/>
        <pt x="-9" y="-208" on="0"/>
        <pt x="-36" y="-203" on="1"/>
        <pt x="-24" y="-105" on="1"/>
        <pt x="-17" y="-106" on="0"/>
        <pt x="39" y="-106" on="0"/>
        <pt x="70" y="-64" on="0"/>
        <pt x="70" y="-9" on="1"/>
        <pt x="70" y="389" on="1"/>
        <pt x="35" y="401" on="0"/>
        <pt x="15" y="423" on="1"/>
      </contour>
      <contour>
        <pt x="55" y="569" on="0"/>
        <pt x="55" y="720" on="0"/>
        <pt x="222" y="720" on="0"/>
        <pt x="222" y="569" on="0"/>
      </contour>
    </TTGlyph>
    <TTGlyph name="j.alt" xMin="-145" yMin="-208" xMax="222" yMax="720">
      <contour>
        <pt x="25" y="500" on="1"/>
        <pt x="81" y="513" on="0"/>
        <pt x="177" y="513" on="0"/>
        <pt x="210" y="510" on="1"/>
        <pt x="210" y="0" on="1"/>
        <pt x="209" y="0" on="1"/>
        <pt x="205" y="-117" on="0"/>
        <pt x="122" y="-208" on="0"/>
        <pt x="-73" y="-208" on="0"/>
        <pt x="-144" y="-156" on="1"/>
        <pt x="-145" y="-147" on="0"/>
        <pt x="-145" y="-138" on="1"/>
        <pt x="-145" y="-84" on="0"/>
        <pt x="-119" y="-33" on="1"/>
        <pt x="-33" y="-33" on="1"/>
        <pt x="-15" y="-63" on="0"/>
        <pt x="-13" y="-105" on="1"/>
        <pt x="-8" y="-106" on="0"/>
        <pt x="4" y="-106" on="1"/>
        <pt x="39" y="-106" on="0"/>
        <pt x="70" y="-64" on="0"/>
        <pt x="70" y="-9" on="1"/>
        <pt x="70" y="389" on="1"/>
        <pt x="35" y="401" on="0"/>
        <pt x="15" y="423" on="1"/>
      </contour>
      <contour>
        <pt x="55" y="569" on="0"/>
        <pt x="55" y="720" on="0"/>
        <pt x="222" y="720" on="0"/>
        <pt x="222" y="569" on="0"/>
      </contour>
    </TTGlyph>
    <TTGlyph name="k" xMin="14" yMin="0" xMax="565" yMax="723">
      <contour>
        <pt x="24" y="710" on="1"/>
        <pt x="80" y="723" on="0"/>
        <pt x="176" y="723" on="0"/>
        <pt x="209" y="720" on="1"/>
        <pt x="209" y="111" on="1"/>
        <pt x="248" y="96" on="0"/>
        <pt x="264" y="77" on="1"/>
        <pt x="254" y="0" on="1"/>
        <pt x="24" y="0" on="1"/>
        <pt x="14" y="77" on="1"/>
        <pt x="28" y="96" on="0"/>
        <pt x="69" y="111" on="1"/>
        <pt x="69" y="599" on="1"/>
        <pt x="34" y="611" on="0"/>
        <pt x="14" y="633" on="1"/>
      </contour>
      <contour>
        <pt x="395" y="0" on="1"/>
        <pt x="218" y="259" on="1"/>
        <pt x="328" y="402" on="1"/>
        <pt x="311" y="412" on="0"/>
        <pt x="304" y="423" on="1"/>
        <pt x="314" y="500" on="1"/>
        <pt x="534" y="500" on="1"/>
        <pt x="544" y="423" on="1"/>
        <pt x="522" y="395" on="0"/>
        <pt x="461" y="379" on="1"/>
        <pt x="365" y="269" on="1"/>
        <pt x="478" y="120" on="1"/>
        <pt x="540" y="106" on="0"/>
        <pt x="565" y="77" on="1"/>
        <pt x="555" y="0" on="1"/>
      </contour>
    </TTGlyph>
    <TTGlyph name="l" xMin="14" yMin="0" xMax="264" yMax="723">
      <contour>
        <pt x="24" y="710" on="1"/>
        <pt x="80" y="723" on="0"/>
        <pt x="176" y="723" on="0"/>
        <pt x="209" y="720" on="1"/>
        <pt x="209" y="111" on="1"/>
        <pt x="248" y="96" on="0"/>
        <pt x="264" y="77" on="1"/>
        <pt x="254" y="0" on="1"/>
        <pt x="24" y="0" on="1"/>
        <pt x="14" y="77" on="1"/>
        <pt x="28" y="96" on="0"/>
        <pt x="69" y="111" on="1"/>
        <pt x="69" y="599" on="1"/>
        <pt x="34" y="611" on="0"/>
        <pt x="14" y="633" on="1"/>
      </contour>
    </TTGlyph>
    <TTGlyph name="less" xMin="23" yMin="60" xMax="351" yMax="618">
      <contour>
        <pt x="351" y="98" on="1"/>
        <pt x="307" y="60" on="1"/>
        <pt x="250" y="85" on="0"/>
        <pt x="67" y="262" on="0"/>
        <pt x="23" y="339" on="1"/>
        <pt x="67" y="416" on="0"/>
        <pt x="250" y="593" on="0"/>
        <pt x="307" y="618" on="1"/>
        <pt x="351" y="581" on="1"/>
        <pt x="309" y="473" on="0"/>
        <pt x="190" y="339" on="1"/>
        <pt x="311" y="201" on="0"/>
      </contour>
    </TTGlyph>
    <TTGlyph name="logicalnot" xMin="23" yMin="143" xMax="567" yMax="500">
      <contour>
        <pt x="468" y="401" on="1"/>
        <pt x="113" y="401" on="1"/>
        <pt x="86" y="401" on="0"/>
        <pt x="41" y="418" on="0"/>
        <pt x="32" y="427" on="1"/>
        <pt x="23" y="436" on="1"/>
        <pt x="33" y="500" on="1"/>
        <pt x="567" y="500" on="1"/>
        <pt x="567" y="233" on="1"/>
        <pt x="567" y="207" on="0"/>
        <pt x="550" y="162" on="0"/>
        <pt x="541" y="152" on="1"/>
        <pt x="532" y="143" on="1"/>
        <pt x="468" y="153" on="1"/>
      </contour>
    </TTGlyph>
    <TTGlyph name="lslash" xMin="-16" yMin="0" xMax="311" yMax="723">
      <contour>
        <pt x="33" y="710" on="1"/>
        <pt x="89" y="723" on="0"/>
        <pt x="185" y="723" on="0"/>
        <pt x="218" y="720" on="1"/>
        <pt x="218" y="438" on="1"/>
        <pt x="289" y="463" on="1"/>
        <pt x="311" y="426" on="1"/>
        <pt x="305" y="410" on="0"/>
        <pt x="260" y="371" on="0"/>
        <pt x="235" y="362" on="1"/>
        <pt x="218" y="356" on="1"/>
        <pt x="218" y="111" on="1"/>
        <pt x="257" y="96" on="0"/>
        <pt x="273" y="77" on="1"/>
        <pt x="263" y="0" on="1"/>
        <pt x="33" y="0" on="1"/>
        <pt x="23" y="77" on="1"/>
        <pt x="37" y="96" on="0"/>
        <pt x="78" y="111" on="1"/>
        <pt x="78" y="307" on="1"/>
        <pt x="7" y="282" on="1"/>
        <pt x="-16" y="319" on="1"/>
        <pt x="-10" y="334" on="0"/>
        <pt x="37" y="376" on="0"/>
        <pt x="61" y="384" on="1"/>
        <pt x="78" y="389" on="1"/>
        <pt x="78" y="599" on="1"/>
        <pt x="43" y="611" on="0"/>
        <pt x="23" y="633" on="1"/>
      </contour>
    </TTGlyph>
    <TTGlyph name="m" xMin="26" yMin="0" xMax="868" yMax="513">
      <contour>
        <pt x="36" y="500" on="1"/>
        <pt x="91" y="512" on="0"/>
        <pt x="179" y="512" on="0"/>
        <pt x="208" y="510" on="1"/>
        <pt x="208" y="460" on="1"/>
        <pt x="232" y="480" on="0"/>
        <pt x="304" y="508" on="0"/>
        <pt x="333" y="508" on="1"/>
        <pt x="447" y="508" on="0"/>
        <pt x="485" y="451" on="1"/>
        <pt x="510" y="475" on="0"/>
        <pt x="592" y="508" on="0"/>
        <pt x="627" y="508" on="1"/>
        <pt x="737" y="508" on="0"/>
        <pt x="813" y="409" on="0"/>
        <pt x="813" y="273" on="1"/>
        <pt x="813" y="111" on="1"/>
        <pt x="852" y="96" on="0"/>
        <pt x="868" y="77" on="1"/>
        <pt x="858" y="0" on="1"/>
        <pt x="628" y="0" on="1"/>
        <pt x="618" y="77" on="1"/>
        <pt x="632" y="96" on="0"/>
        <pt x="673" y="111" on="1"/>
        <pt x="673" y="309" on="1"/>
        <pt x="673" y="364" on="0"/>
        <pt x="643" y="400" on="0"/>
        <pt x="554" y="400" on="0"/>
        <pt x="514" y="367" on="1"/>
        <pt x="519" y="333" on="0"/>
        <pt x="519" y="273" on="1"/>
        <pt x="519" y="111" on="1"/>
        <pt x="558" y="96" on="0"/>
        <pt x="574" y="77" on="1"/>
        <pt x="564" y="0" on="1"/>
        <pt x="334" y="0" on="1"/>
        <pt x="324" y="77" on="1"/>
        <pt x="338" y="96" on="0"/>
        <pt x="379" y="111" on="1"/>
        <pt x="379" y="309" on="1"/>
        <pt x="379" y="364" on="0"/>
        <pt x="349" y="400" on="0"/>
        <pt x="261" y="400" on="0"/>
        <pt x="221" y="368" on="1"/>
        <pt x="221" y="111" on="1"/>
        <pt x="260" y="96" on="0"/>
        <pt x="276" y="77" on="1"/>
        <pt x="266" y="0" on="1"/>
        <pt x="36" y="0" on="1"/>
        <pt x="26" y="77" on="1"/>
        <pt x="40" y="96" on="0"/>
        <pt x="81" y="111" on="1"/>
        <pt x="81" y="389" on="1"/>
        <pt x="46" y="401" on="0"/>
        <pt x="26" y="423" on="1"/>
      </contour>
    </TTGlyph>
    <TTGlyph name="macron" xMin="40" yMin="585" xMax="382" yMax="680">
      <contour>
        <pt x="292" y="585" on="1"/>
        <pt x="50" y="585" on="1"/>
        <pt x="40" y="645" on="1"/>
        <pt x="71" y="680" on="0"/>
        <pt x="130" y="680" on="1"/>
        <pt x="372" y="680" on="1"/>
        <pt x="382" y="620" on="1"/>
        <pt x="352" y="585" on="0"/>
      </contour>
    </TTGlyph>
    <TTGlyph name="minus" xMin="46" yMin="220" xMax="483" yMax="319">
      <contour>
        <pt x="393" y="220" on="1"/>
        <pt x="56" y="220" on="1"/>
        <pt x="46" y="284" on="1"/>
        <pt x="77" y="319" on="0"/>
        <pt x="136" y="319" on="1"/>
        <pt x="473" y="319" on="1"/>
        <pt x="483" y="255" on="1"/>
        <pt x="453" y="220" on="0"/>
      </contour>
    </TTGlyph>
    <TTGlyph name="mu" xMin="24" yMin="-214" xMax="591" yMax="513">
      <contour>
        <pt x="88" y="-179" on="1"/>
        <pt x="88" y="-64" on="0"/>
        <pt x="111" y="42" on="1"/>
        <pt x="79" y="85" on="0"/>
        <pt x="79" y="198" on="1"/>
        <pt x="79" y="389" on="1"/>
        <pt x="44" y="401" on="0"/>
        <pt x="24" y="423" on="1"/>
        <pt x="34" y="500" on="1"/>
        <pt x="90" y="513" on="0"/>
        <pt x="186" y="513" on="0"/>
        <pt x="219" y="510" on="1"/>
        <pt x="219" y="185" on="1"/>
        <pt x="219" y="131" on="0"/>
        <pt x="254" y="94" on="0"/>
        <pt x="293" y="94" on="1"/>
        <pt x="353" y="94" on="0"/>
        <pt x="396" y="132" on="1"/>
        <pt x="396" y="389" on="1"/>
        <pt x="361" y="401" on="0"/>
        <pt x="341" y="423" on="1"/>
        <pt x="351" y="500" on="1"/>
        <pt x="407" y="513" on="0"/>
        <pt x="503" y="513" on="0"/>
        <pt x="536" y="510" on="1"/>
        <pt x="536" y="122" on="1"/>
        <pt x="571" y="115" on="0"/>
        <pt x="591" y="105" on="1"/>
        <pt x="591" y="24" on="1"/>
        <pt x="531" y="-8" on="0"/>
        <pt x="439" y="-8" on="1"/>
        <pt x="414" y="10" on="0"/>
        <pt x="412" y="42" on="1"/>
        <pt x="389" y="22" on="0"/>
        <pt x="307" y="-8" on="0"/>
        <pt x="232" y="-8" on="0"/>
        <pt x="205" y="-4" on="1"/>
        <pt x="221" y="-103" on="0"/>
        <pt x="221" y="-187" on="0"/>
        <pt x="220" y="-200" on="1"/>
        <pt x="194" y="-214" on="0"/>
        <pt x="108" y="-214" on="0"/>
        <pt x="88" y="-200" on="1"/>
        <pt x="88" y="-190" on="0"/>
      </contour>
    </TTGlyph>
    <TTGlyph name="multiply" xMin="26" yMin="39" xMax="518" yMax="531">
      <contour>
        <pt x="477" y="55" on="1"/>
        <pt x="432" y="55" on="0"/>
        <pt x="393" y="94" on="1"/>
        <pt x="271" y="215" on="1"/>
        <pt x="96" y="39" on="1"/>
        <pt x="42" y="76" on="1"/>
        <pt x="40" y="123" on="0"/>
        <pt x="81" y="164" on="1"/>
        <pt x="201" y="285" on="1"/>
        <pt x="26" y="460" on="1"/>
        <pt x="63" y="514" on="1"/>
        <pt x="66" y="514" on="0"/>
        <pt x="69" y="514" on="1"/>
        <pt x="112" y="514" on="0"/>
        <pt x="151" y="475" on="1"/>
        <pt x="271" y="355" on="1"/>
        <pt x="447" y="531" on="1"/>
        <pt x="501" y="494" on="1"/>
        <pt x="501" y="491" on="0"/>
        <pt x="501" y="488" on="1"/>
        <pt x="501" y="445" on="0"/>
        <pt x="462" y="406" on="1"/>
        <pt x="341" y="285" on="1"/>
        <pt x="518" y="109" on="1"/>
        <pt x="481" y="55" on="1"/>
        <pt x="479" y="55" on="0"/>
      </contour>
    </TTGlyph>
    <TTGlyph name="n" xMin="26" yMin="0" xMax="586" yMax="513">
      <contour>
        <pt x="36" y="500" on="1"/>
        <pt x="91" y="512" on="0"/>
        <pt x="179" y="512" on="0"/>
        <pt x="208" y="510" on="1"/>
        <pt x="208" y="460" on="1"/>
        <pt x="233" y="481" on="0"/>
        <pt x="316" y="508" on="0"/>
        <pt x="354" y="508" on="1"/>
        <pt x="452" y="508" on="0"/>
        <pt x="531" y="416" on="0"/>
        <pt x="531" y="303" on="1"/>
        <pt x="531" y="111" on="1"/>
        <pt x="570" y="96" on="0"/>
        <pt x="586" y="77" on="1"/>
        <pt x="576" y="0" on="1"/>
        <pt x="346" y="0" on="1"/>
        <pt x="336" y="77" on="1"/>
        <pt x="350" y="96" on="0"/>
        <pt x="391" y="111" on="1"/>
        <pt x="391" y="309" on="1"/>
        <pt x="391" y="363" on="0"/>
        <pt x="356" y="400" on="0"/>
        <pt x="266" y="400" on="0"/>
        <pt x="221" y="368" on="1"/>
        <pt x="221" y="111" on="1"/>
        <pt x="260" y="96" on="0"/>
        <pt x="276" y="77" on="1"/>
        <pt x="266" y="0" on="1"/>
        <pt x="36" y="0" on="1"/>
        <pt x="26" y="77" on="1"/>
        <pt x="40" y="96" on="0"/>
        <pt x="81" y="111" on="1"/>
        <pt x="81" y="389" on="1"/>
        <pt x="46" y="401" on="0"/>
        <pt x="26" y="423" on="1"/>
      </contour>
    </TTGlyph>
    <TTGlyph name="nine" xMin="17" yMin="-12" xMax="483" yMax="699">
      <contour>
        <pt x="237" y="282" on="1"/>
        <pt x="145" y="282" on="0"/>
        <pt x="17" y="389" on="0"/>
        <pt x="17" y="589" on="0"/>
        <pt x="140" y="699" on="0"/>
        <pt x="361" y="699" on="0"/>
        <pt x="483" y="548" on="0"/>
        <pt x="483" y="270" on="0"/>
        <pt x="319" y="36" on="0"/>
        <pt x="189" y="-12" on="1"/>
        <pt x="143" y="71" on="1"/>
        <pt x="282" y="136" on="0"/>
        <pt x="325" y="299" on="1"/>
        <pt x="292" y="282" on="0"/>
      </contour>
      <contour>
        <pt x="339" y="417" on="1"/>
        <pt x="339" y="519" on="0"/>
        <pt x="291" y="605" on="0"/>
        <pt x="199" y="605" on="0"/>
        <pt x="161" y="551" on="0"/>
        <pt x="161" y="438" on="0"/>
        <pt x="212" y="379" on="0"/>
        <pt x="250" y="379" on="1"/>
        <pt x="309" y="379" on="0"/>
        <pt x="338" y="397" on="1"/>
        <pt x="339" y="404" on="0"/>
      </contour>
    </TTGlyph>
</ttFont>
